<svg width="110" height="110" viewBox="0 0 110 110" fill="none" xmlns="http://www.w3.org/2000/svg">
<path d="M33.6334 22.099C33.1185 11.4173 47.0329 6.8878 52.9047 15.8257C55.2388 19.3788 60.2985 19.7747 63.1563 16.6274C70.3453 8.71011 83.3865 15.3459 81.2183 25.818C80.3563 29.9807 83.6542 33.838 87.9002 33.6335C98.5821 33.1183 103.112 47.033 94.1735 52.9047C90.6208 55.239 90.2255 60.2984 93.3728 63.1561C101.29 70.345 94.6541 83.386 84.1822 81.2181C80.0195 80.3561 76.1622 83.654 76.3667 87.9C76.8818 98.5819 62.9671 103.111 57.0954 94.1733C54.7612 90.6205 49.7018 90.2253 46.8441 93.3726C39.6551 101.29 26.614 94.654 28.7821 84.182C29.6441 80.0191 26.3455 76.162 22.0992 76.3668C11.4176 76.8817 6.88808 62.9673 15.826 57.0955C19.379 54.7614 19.7749 49.7016 16.6276 46.8439C8.71009 39.6549 15.346 26.6135 25.8182 28.7819C29.981 29.6438 33.8382 26.3452 33.6334 22.099Z" fill="#47B7E5" stroke="#E5F5FC" stroke-width="4"/>
<path d="M39.7837 48.3866V63.6348C39.7837 66.6124 41.8993 67.8347 44.4694 66.3616L48.1522 64.2617C48.9514 63.8072 50.2835 63.7602 51.1141 64.1833L59.3415 68.3049C60.1721 68.7123 61.5042 68.681 62.3034 68.2265L69.0891 64.34C69.951 63.8386 70.6719 62.6162 70.6719 61.6132V46.365C70.6719 43.3875 68.5563 42.1651 65.9862 43.6382L62.3034 45.7382C61.5042 46.1926 60.1721 46.2397 59.3415 45.8165L51.1141 41.7106C50.2835 41.3032 48.9514 41.3345 48.1522 41.789L41.3665 45.6755C40.4889 46.177 39.7837 47.3993 39.7837 48.3866Z" fill="white" stroke="#69CAF3" stroke-width="1.6" stroke-linecap="round" stroke-linejoin="round"/>
<path d="M49.6099 42.4631V62.8359V42.4631Z" fill="white"/>
<path d="M49.6099 42.4631V62.8359" stroke="#69CAF3" stroke-width="1.6" stroke-linecap="round" stroke-linejoin="round"/>
<path d="M60.8462 46.5691V67.5373V46.5691Z" fill="white"/>
<path d="M60.8462 46.5691V67.5373" stroke="#69CAF3" stroke-width="1.6" stroke-linecap="round" stroke-linejoin="round"/>
</svg>
