<svg width="19" height="19" viewBox="0 0 19 19" fill="none" xmlns="http://www.w3.org/2000/svg">
<rect x="0.5" y="0.189941" width="18" height="18" rx="4" fill="#F2F4F8"/>
<path d="M7.06425 15.9399H14.75M9.33831 4.17373C9.33831 4.17373 9.33831 5.39969 10.5643 6.62566C11.7902 7.85163 13.0162 7.85163 13.0162 7.85163M4.48972 13.681L7.06425 13.3132C7.43562 13.2602 7.77977 13.0881 8.04503 12.8228L14.2422 6.62566C14.9193 5.94858 14.9193 4.85081 14.2422 4.17372L13.0162 2.94775C12.3391 2.27067 11.2414 2.27067 10.5643 2.94775L4.36712 9.14491C4.10186 9.41017 3.92979 9.75432 3.87673 10.1257L3.50894 12.7002C3.42721 13.2723 3.9176 13.7627 4.48972 13.681Z" stroke="#878D96" stroke-linecap="round"/>
</svg>
