<svg width="25" height="24" viewBox="0 0 25 24" fill="none" xmlns="http://www.w3.org/2000/svg">
<rect x="0.259033" width="24" height="24" rx="6" fill="#71CC63"/>
<path d="M15.7387 5.33325H10.232C9.96537 5.33325 9.71201 5.42659 9.50535 5.58659L8.04535 6.75326C7.45868 7.21992 7.45868 8.10658 8.04535 8.57324L9.50535 9.73991C9.71201 9.90658 9.97203 9.99325 10.232 9.99325H15.7387C16.3853 9.99325 16.9053 9.47325 16.9053 8.82658V6.49325C16.9053 5.85325 16.3853 5.33325 15.7387 5.33325Z" stroke="white" stroke-width="1.2" stroke-linecap="round" stroke-linejoin="round"/>
<path d="M8.79289 12H14.2996C14.5662 12 14.8196 12.0933 15.0262 12.2533L16.4862 13.42C17.0729 13.8867 17.0729 14.7733 16.4862 15.24L15.0262 16.4067C14.8196 16.5733 14.5596 16.66 14.2996 16.66H8.79289C8.14622 16.66 7.62622 16.14 7.62622 15.4933V13.16C7.62622 12.52 8.14622 12 8.79289 12Z" stroke="white" stroke-width="1.2" stroke-linecap="round" stroke-linejoin="round"/>
<path d="M12.259 12V10" stroke="white" stroke-width="1.2" stroke-linecap="round" stroke-linejoin="round"/>
<path d="M12.259 18.6667V16.6667" stroke="white" stroke-width="1.2" stroke-linecap="round" stroke-linejoin="round"/>
<path d="M10.259 18.6667H14.259" stroke="white" stroke-width="1.2" stroke-linecap="round" stroke-linejoin="round"/>
</svg>
