<svg width="16" height="16" viewBox="0 0 16 16" fill="none" xmlns="http://www.w3.org/2000/svg">
<path d="M8.00098 0.583008C12.0815 0.583451 15.417 3.92037 15.417 8.00098C15.4165 12.0812 12.0812 15.4165 8.00098 15.417C3.92037 15.417 0.583451 12.0815 0.583008 8.00098C0.583008 3.9201 3.9201 0.583008 8.00098 0.583008ZM11.3643 5.58301C11.0899 5.30844 10.655 5.29125 10.3604 5.53125L10.3037 5.58203L7.05273 8.8252L5.69727 7.46973L5.64062 7.41797C5.34613 7.17771 4.91134 7.19534 4.63672 7.46973C4.36213 7.74434 4.34463 8.17906 4.58496 8.47363L4.63672 8.53027L6.52344 10.417L6.58008 10.4688C6.87446 10.7087 7.3094 10.6911 7.58398 10.417L11.3633 6.64453C11.6562 6.35192 11.6567 5.87609 11.3643 5.58301Z" fill="#262626"/>
</svg>
