<svg width="19" height="19" viewBox="0 0 19 19" fill="none" xmlns="http://www.w3.org/2000/svg">
<path d="M12.9853 3.605L12.9328 6.44748C12.9253 6.83748 13.1728 7.35499 13.4878 7.58749L15.3478 8.99747C16.5403 9.89747 16.3453 11 14.9203 11.45L12.4978 12.2075C12.0928 12.335 11.6653 12.7775 11.5603 13.19L10.9828 15.395C10.5253 17.135 9.38526 17.3075 8.44026 15.7775L7.12025 13.64C6.88026 13.25 6.31026 12.9575 5.86026 12.98L3.35529 13.1075C1.56279 13.1975 1.05278 12.1625 2.22278 10.7975L3.70776 9.07248C3.98526 8.74998 4.11276 8.14999 3.98526 7.74499L3.2278 5.32248C2.7853 3.89748 3.58029 3.10999 4.99779 3.57499L7.2103 4.30249C7.5853 4.42249 8.14778 4.33998 8.46278 4.10748L10.7728 2.44248C12.0178 1.54248 13.0153 2.0675 12.9853 3.605Z" fill="#FFEB7B" stroke="#565151" stroke-width="1.5" stroke-linecap="round" stroke-linejoin="round"/>
<path d="M16.4502 16.9998L14.1777 14.7273" stroke="#565151" stroke-width="1.5" stroke-linecap="round" stroke-linejoin="round"/>
</svg>
