<svg width="73" height="73" viewBox="0 0 73 73" fill="none" xmlns="http://www.w3.org/2000/svg">
<rect x="0.517578" y="0.5" width="72" height="72" rx="36" fill="#F2F4F8"/>
<ellipse cx="2.5276" cy="3.17552" rx="2.5276" ry="3.17552" transform="matrix(0.990615 0.136684 -0.136681 0.990615 30.1748 26.0984)" fill="#393939"/>
<ellipse opacity="0.2" cx="20.1185" cy="37.4021" rx="9.60087" ry="9.59891" fill="#8D8D8D"/>
<ellipse cx="2.52761" cy="3.17552" rx="2.52761" ry="3.17552" transform="matrix(0.98238 -0.186893 0.186884 0.982382 37.7109 26.9438)" fill="#393939"/>
<ellipse opacity="0.2" cx="52.9163" cy="37.4021" rx="9.60087" ry="9.59891" fill="#8D8D8D"/>
<path d="M31.5221 39.6722C31.5221 38.3589 31.9028 37.3596 32.6641 36.6743C33.4445 35.9701 34.6056 35.6179 36.1474 35.6179C37.6891 35.6179 38.8407 35.9796 39.6021 36.7029C40.3825 37.4262 40.7727 38.416 40.7727 39.6722C40.7727 40.7952 40.411 41.7755 39.6877 42.613H40.0018C40.8964 42.613 41.7053 42.4988 42.4286 42.2704C43.1519 42.042 43.742 41.6994 44.1988 41.2425C44.3701 41.0712 44.5509 40.9475 44.7413 40.8714C44.9316 40.7762 45.16 40.7286 45.4265 40.7286C45.9214 40.7286 46.283 40.8714 46.5114 41.1569C46.7589 41.4424 46.8826 41.7945 46.8826 42.2133C46.8826 42.8224 46.6637 43.3268 46.2259 43.7265C45.8072 44.1453 45.2742 44.4784 44.6271 44.7258C43.9989 44.9923 43.3042 45.1826 42.5428 45.2969C41.8005 45.4111 41.1153 45.4682 40.4871 45.4682C38.9454 45.4682 37.4988 45.2493 36.1474 44.8115C34.7769 45.2493 33.3303 45.4682 31.8076 45.4682C31.1795 45.4682 30.4847 45.4111 29.7233 45.2969C28.981 45.1826 28.2863 44.9923 27.6391 44.7258C27.011 44.4784 26.478 44.1453 26.0402 43.7265C25.6215 43.3268 25.4121 42.8224 25.4121 42.2133C25.4121 41.7945 25.5263 41.4424 25.7547 41.1569C26.0022 40.8714 26.3733 40.7286 26.8682 40.7286C27.1347 40.7286 27.3631 40.7762 27.5534 40.8714C27.7438 40.9475 27.9246 41.0712 28.0959 41.2425C28.5527 41.6994 29.1428 42.0515 29.8661 42.299C30.5894 42.5274 31.3983 42.6321 32.2929 42.613H32.607C32.2644 42.2133 31.9979 41.766 31.8076 41.2711C31.6172 40.7762 31.5221 40.2432 31.5221 39.6722ZM35.091 39.7864C35.091 40.2052 35.1861 40.5763 35.3765 40.8999C35.5668 41.2045 35.8238 41.4614 36.1474 41.6708C36.4709 41.4614 36.7279 41.2045 36.9182 40.8999C37.1086 40.5763 37.2038 40.2052 37.2038 39.7864C37.2038 39.3296 37.1086 39.006 36.9182 38.8157C36.7279 38.6253 36.4709 38.5302 36.1474 38.5302C35.8238 38.5302 35.5668 38.6253 35.3765 38.8157C35.1861 39.006 35.091 39.3296 35.091 39.7864Z" fill="#393939"/>
</svg>
