<svg width="61" height="62" viewBox="0 0 61 62" fill="none" xmlns="http://www.w3.org/2000/svg">
<path d="M17.8498 12.9079C17.5223 6.1176 26.3673 3.23832 30.0999 8.9202C31.0607 10.3825 33.1429 10.5448 34.3192 9.24948C38.8891 4.21644 47.1805 8.43538 45.8021 15.0924C45.4474 16.8058 46.8043 18.3934 48.552 18.3093C55.3424 17.9819 58.2216 26.8269 52.5398 30.5594C51.0775 31.5202 50.9151 33.6024 52.2105 34.7787C57.2435 39.3486 53.0246 47.64 46.3676 46.2616C44.6542 45.907 43.0665 47.2639 43.1506 49.0116C43.4781 55.8019 34.6331 58.6812 30.9005 52.9993C29.9397 51.537 27.8575 51.3747 26.6812 52.67C22.1113 57.7031 13.8199 53.4841 15.1983 46.8271C15.553 45.1137 14.1961 43.5261 12.4484 43.6102C5.65804 43.9377 2.77876 35.0926 8.46064 31.3601C9.92295 30.3993 10.0853 28.3171 8.78992 27.1408C3.75688 22.5709 7.97583 14.2795 14.6328 15.6579C16.3463 16.0125 17.9339 14.6556 17.8498 12.9079Z" fill="#FFF3AD" stroke="#FFF3AD" stroke-width="4"/>
<path d="M22.9106 35.71C22.6706 38.6 24.8506 40.96 27.7506 40.96H32.5406C35.8006 40.96 38.0406 38.33 37.5006 35.11C36.9306 31.73 33.6706 28.96 30.2406 28.96C26.5206 28.96 23.2206 32 22.9106 35.71Z" fill="#FBE044" stroke="#FBE044" stroke-width="1.5" stroke-linecap="round" stroke-linejoin="round"/>
<path d="M28.9707 26.46C30.3514 26.46 31.4707 25.3407 31.4707 23.96C31.4707 22.5792 30.3514 21.46 28.9707 21.46C27.59 21.46 26.4707 22.5792 26.4707 23.96C26.4707 25.3407 27.59 26.46 28.9707 26.46Z" fill="#FBE044" stroke="#FBE044" stroke-width="1.5" stroke-linecap="round" stroke-linejoin="round"/>
<path d="M35.8008 27.6602C36.9053 27.6602 37.8008 26.7647 37.8008 25.6602C37.8008 24.5556 36.9053 23.6602 35.8008 23.6602C34.6962 23.6602 33.8008 24.5556 33.8008 25.6602C33.8008 26.7647 34.6962 27.6602 35.8008 27.6602Z" fill="#FBE044" stroke="#FBE044" stroke-width="1.5" stroke-linecap="round" stroke-linejoin="round"/>
<path d="M39.5 31.6602C40.3284 31.6602 41 30.9886 41 30.1602C41 29.3317 40.3284 28.6602 39.5 28.6602C38.6716 28.6602 38 29.3317 38 30.1602C38 30.9886 38.6716 31.6602 39.5 31.6602Z" fill="#FBE044" stroke="#FBE044" stroke-width="1.5" stroke-linecap="round" stroke-linejoin="round"/>
<path d="M22.4707 29.6602C23.5753 29.6602 24.4707 28.7647 24.4707 27.6602C24.4707 26.5556 23.5753 25.6602 22.4707 25.6602C21.3661 25.6602 20.4707 26.5556 20.4707 27.6602C20.4707 28.7647 21.3661 29.6602 22.4707 29.6602Z" fill="#FBE044" stroke="#FBE044" stroke-width="1.5" stroke-linecap="round" stroke-linejoin="round"/>
</svg>
