<svg width="25" height="25" viewBox="0 0 25 25" fill="none" xmlns="http://www.w3.org/2000/svg">
<path d="M12.0382 3.41016C8.72815 3.41016 6.03815 6.10016 6.03815 9.41016V12.3002C6.03815 12.9102 5.77815 13.8402 5.46815 14.3602L4.31815 16.2702C3.60815 17.4502 4.09815 18.7602 5.39815 19.2002C9.70815 20.6402 14.3582 20.6402 18.6682 19.2002C19.8782 18.8002 20.4082 17.3702 19.7482 16.2702L18.5982 14.3602C18.2982 13.8402 18.0382 12.9102 18.0382 12.3002V9.41016C18.0382 6.11016 15.3382 3.41016 12.0382 3.41016Z" stroke="#A2A9B0" stroke-width="1.3" stroke-miterlimit="10" stroke-linecap="round"/>
<path d="M13.8875 3.69994C13.5775 3.60994 13.2575 3.53994 12.9275 3.49994C11.9675 3.37994 11.0475 3.44994 10.1875 3.69994C10.4775 2.95994 11.1975 2.43994 12.0375 2.43994C12.8775 2.43994 13.5975 2.95994 13.8875 3.69994Z" stroke="#A2A9B0" stroke-width="1.3" stroke-miterlimit="10" stroke-linecap="round" stroke-linejoin="round"/>
<path d="M15.0371 19.5601C15.0371 21.2101 13.6871 22.5601 12.0371 22.5601C11.2171 22.5601 10.4571 22.2201 9.91711 21.6801C9.37711 21.1401 9.03711 20.3801 9.03711 19.5601" stroke="#A2A9B0" stroke-width="1.3" stroke-miterlimit="10"/>
</svg>
