<svg width="24" height="24" viewBox="0 0 24 24" fill="none" xmlns="http://www.w3.org/2000/svg">
<path d="M17.8999 6.09568C15.3099 5.83901 12.7043 5.70679 10.1066 5.70679C8.56657 5.70679 7.02657 5.78457 5.48657 5.94012L3.8999 6.09568" stroke="#C1C7CD" stroke-width="1.4" stroke-linecap="round" stroke-linejoin="round"/>
<path d="M8.17773 5.31L8.34885 4.29111C8.47329 3.55222 8.56662 3 9.88107 3H11.9188C13.2333 3 13.3344 3.58333 13.4511 4.29889L13.6222 5.31" stroke="#C1C7CD" stroke-width="1.4" stroke-linecap="round" stroke-linejoin="round"/>
<path d="M16.2278 8.55298L15.7223 16.3852C15.6367 17.6063 15.5667 18.5552 13.3967 18.5552H8.40338C6.23338 18.5552 6.16338 17.6063 6.07782 16.3852L5.57227 8.55298" stroke="#C1C7CD" stroke-width="1.4" stroke-linecap="round" stroke-linejoin="round"/>
<path d="M9.60107 14.2781H12.1911" stroke="#C1C7CD" stroke-width="1.4" stroke-linecap="round" stroke-linejoin="round"/>
<path d="M8.95557 11.1667H12.8445" stroke="#C1C7CD" stroke-width="1.4" stroke-linecap="round" stroke-linejoin="round"/>
</svg>
