<svg width="178" height="201" viewBox="0 0 178 201" fill="none" xmlns="http://www.w3.org/2000/svg">
<mask id="path-1-outside-1_1829_5715" maskUnits="userSpaceOnUse" x="26.7087" y="15.2969" width="152" height="186" fill="black">
<rect fill="white" x="26.7087" y="15.2969" width="152" height="186"/>
<path d="M126.81 153.098C127.358 153.083 127.854 153.415 128.051 153.926L130.925 161.414C131.231 162.213 132.217 162.497 132.94 162.039C135.771 160.247 139.054 159.062 142.621 158.688C154.867 157.404 165.824 166.175 167.094 178.279C167.39 181.112 167.13 183.876 166.401 186.465C166.257 186.977 165.795 187.329 165.263 187.36L110.658 190.458C110 190.495 109.42 190.031 109.311 189.381L103.6 155.201C103.471 154.428 104.056 153.719 104.84 153.697L126.81 153.098ZM96.0603 147.864C96.8418 147.804 97.4965 148.448 97.449 149.231L95.3337 183.82C95.2935 184.478 94.7645 185 94.1062 185.031L39.4753 187.644C38.9438 187.669 38.4477 187.367 38.2507 186.873C37.2555 184.374 36.7087 181.652 36.7087 178.804C36.7089 166.633 46.691 156.768 59.0046 156.768C62.5913 156.768 65.9802 157.605 68.9822 159.092C69.7492 159.472 70.7 159.086 70.9216 158.259L72.9988 150.513C73.1406 149.984 73.6004 149.602 74.1462 149.56L96.0603 147.864ZM154.27 121.302C161.758 121.302 167.828 127.372 167.828 134.86C167.828 142.347 161.758 148.417 154.27 148.417C146.783 148.417 140.713 142.347 140.713 134.86C140.713 127.372 146.783 121.302 154.27 121.302ZM54.8416 120.746C62.3293 120.746 68.3992 126.816 68.3992 134.304C68.3992 141.791 62.3293 147.861 54.8416 147.861C47.354 147.861 41.284 141.791 41.2839 134.304C41.2839 126.816 47.354 120.746 54.8416 120.746ZM87.9861 113.405C95.4738 113.405 101.544 119.475 101.544 126.963C101.544 134.451 95.4737 140.521 87.9861 140.521C80.4986 140.521 74.4287 134.45 74.4285 126.963C74.4285 119.475 80.4985 113.406 87.9861 113.405ZM121.129 113.405C128.616 113.406 134.686 119.475 134.686 126.963C134.686 134.45 128.616 140.521 121.129 140.521C113.641 140.521 107.571 134.451 107.571 126.963C107.571 119.475 113.641 113.405 121.129 113.405ZM128.647 27.0333C128.613 26.3206 129.542 26.018 129.933 26.6144L131.515 29.0236C131.767 29.4064 132.313 29.4496 132.621 29.1105L134.558 26.9757C135.038 26.4476 135.908 26.8904 135.763 27.589L135.178 30.4123C135.086 30.8607 135.442 31.2761 135.899 31.2541L138.778 31.1154C139.491 31.081 139.793 32.0097 139.197 32.4015L136.788 33.9835C136.405 34.235 136.362 34.78 136.701 35.088L138.836 37.0265C139.364 37.5062 138.921 38.3762 138.222 38.2316L135.399 37.6466C134.951 37.5539 134.535 37.9099 134.557 38.3673L134.696 41.2462C134.73 41.9589 133.802 42.2616 133.41 41.6652L131.828 39.256C131.576 38.8731 131.03 38.8299 130.722 39.1691L128.785 41.3039C128.305 41.8319 127.435 41.3892 127.58 40.6906L128.13 38.0285C127.974 38.0716 127.813 38.1165 127.645 38.1623C125.467 38.7577 122.256 39.6359 117.362 42.2101C110.899 45.6095 108.711 53.0402 108.273 57.6798C108.249 57.9392 108.449 58.1639 108.709 58.1808C141.36 60.2763 166.206 84.0868 167.979 119.926C167.997 120.28 167.629 120.527 167.31 120.372C150.066 112.017 128.318 107.033 104.682 107.033C81.0015 107.033 59.2159 112.036 41.9558 120.42C41.6475 120.57 41.2883 120.345 41.2859 120.002C41.0439 85.235 67.5318 58.9878 102.077 58.0558C102.301 58.0498 102.492 57.8869 102.532 57.6662C103.049 54.7822 104.057 51.0437 105.885 47.0509C109.877 38.3354 119.697 34.9651 125.24 33.1173C125.584 33.0025 125.917 32.9035 126.236 32.8214L124.508 31.2531C123.979 30.7734 124.422 29.9033 125.121 30.048L127.944 30.632C128.393 30.7248 128.808 30.3698 128.786 29.9123L128.647 27.0333Z"/>
</mask>
<path d="M126.81 153.098C127.358 153.083 127.854 153.415 128.051 153.926L130.925 161.414C131.231 162.213 132.217 162.497 132.94 162.039C135.771 160.247 139.054 159.062 142.621 158.688C154.867 157.404 165.824 166.175 167.094 178.279C167.39 181.112 167.13 183.876 166.401 186.465C166.257 186.977 165.795 187.329 165.263 187.36L110.658 190.458C110 190.495 109.42 190.031 109.311 189.381L103.6 155.201C103.471 154.428 104.056 153.719 104.84 153.697L126.81 153.098ZM96.0603 147.864C96.8418 147.804 97.4965 148.448 97.449 149.231L95.3337 183.82C95.2935 184.478 94.7645 185 94.1062 185.031L39.4753 187.644C38.9438 187.669 38.4477 187.367 38.2507 186.873C37.2555 184.374 36.7087 181.652 36.7087 178.804C36.7089 166.633 46.691 156.768 59.0046 156.768C62.5913 156.768 65.9802 157.605 68.9822 159.092C69.7492 159.472 70.7 159.086 70.9216 158.259L72.9988 150.513C73.1406 149.984 73.6004 149.602 74.1462 149.56L96.0603 147.864ZM154.27 121.302C161.758 121.302 167.828 127.372 167.828 134.86C167.828 142.347 161.758 148.417 154.27 148.417C146.783 148.417 140.713 142.347 140.713 134.86C140.713 127.372 146.783 121.302 154.27 121.302ZM54.8416 120.746C62.3293 120.746 68.3992 126.816 68.3992 134.304C68.3992 141.791 62.3293 147.861 54.8416 147.861C47.354 147.861 41.284 141.791 41.2839 134.304C41.2839 126.816 47.354 120.746 54.8416 120.746ZM87.9861 113.405C95.4738 113.405 101.544 119.475 101.544 126.963C101.544 134.451 95.4737 140.521 87.9861 140.521C80.4986 140.521 74.4287 134.45 74.4285 126.963C74.4285 119.475 80.4985 113.406 87.9861 113.405ZM121.129 113.405C128.616 113.406 134.686 119.475 134.686 126.963C134.686 134.45 128.616 140.521 121.129 140.521C113.641 140.521 107.571 134.451 107.571 126.963C107.571 119.475 113.641 113.405 121.129 113.405ZM128.647 27.0333C128.613 26.3206 129.542 26.018 129.933 26.6144L131.515 29.0236C131.767 29.4064 132.313 29.4496 132.621 29.1105L134.558 26.9757C135.038 26.4476 135.908 26.8904 135.763 27.589L135.178 30.4123C135.086 30.8607 135.442 31.2761 135.899 31.2541L138.778 31.1154C139.491 31.081 139.793 32.0097 139.197 32.4015L136.788 33.9835C136.405 34.235 136.362 34.78 136.701 35.088L138.836 37.0265C139.364 37.5062 138.921 38.3762 138.222 38.2316L135.399 37.6466C134.951 37.5539 134.535 37.9099 134.557 38.3673L134.696 41.2462C134.73 41.9589 133.802 42.2616 133.41 41.6652L131.828 39.256C131.576 38.8731 131.03 38.8299 130.722 39.1691L128.785 41.3039C128.305 41.8319 127.435 41.3892 127.58 40.6906L128.13 38.0285C127.974 38.0716 127.813 38.1165 127.645 38.1623C125.467 38.7577 122.256 39.6359 117.362 42.2101C110.899 45.6095 108.711 53.0402 108.273 57.6798C108.249 57.9392 108.449 58.1639 108.709 58.1808C141.36 60.2763 166.206 84.0868 167.979 119.926C167.997 120.28 167.629 120.527 167.31 120.372C150.066 112.017 128.318 107.033 104.682 107.033C81.0015 107.033 59.2159 112.036 41.9558 120.42C41.6475 120.57 41.2883 120.345 41.2859 120.002C41.0439 85.235 67.5318 58.9878 102.077 58.0558C102.301 58.0498 102.492 57.8869 102.532 57.6662C103.049 54.7822 104.057 51.0437 105.885 47.0509C109.877 38.3354 119.697 34.9651 125.24 33.1173C125.584 33.0025 125.917 32.9035 126.236 32.8214L124.508 31.2531C123.979 30.7734 124.422 29.9033 125.121 30.048L127.944 30.632C128.393 30.7248 128.808 30.3698 128.786 29.9123L128.647 27.0333Z" fill="#FBE044"/>
<path d="M126.81 153.098L126.541 143.101L126.537 143.102L126.81 153.098ZM128.051 153.926L137.387 150.343L137.386 150.341L128.051 153.926ZM130.925 161.414L121.589 164.997L121.59 165L130.925 161.414ZM132.94 162.039L127.591 153.59L127.591 153.59L132.94 162.039ZM142.621 158.688L141.578 148.742H141.578L142.621 158.688ZM167.094 178.279L177.039 177.237L177.039 177.237L167.094 178.279ZM166.401 186.465L176.026 189.179L176.027 189.176L166.401 186.465ZM165.263 187.36L165.83 197.343H165.83L165.263 187.36ZM110.658 190.458L111.222 200.442L111.225 200.442L110.658 190.458ZM109.311 189.381L119.175 187.733L119.175 187.733L109.311 189.381ZM103.6 155.201L93.7371 156.849L93.7371 156.849L103.6 155.201ZM104.84 153.697L105.112 163.694H105.112L104.84 153.697ZM96.0603 147.864L95.2908 137.894L95.289 137.894L96.0603 147.864ZM97.449 149.231L107.43 149.841L107.431 149.838L97.449 149.231ZM95.3337 183.82L85.3524 183.21L95.3337 183.82ZM94.1062 185.031L94.5838 195.02H94.5841L94.1062 185.031ZM39.4753 187.644L39.9522 197.632L39.953 197.632L39.4753 187.644ZM38.2507 186.873L28.9605 190.573L28.9612 190.575L38.2507 186.873ZM36.7087 178.804L26.7087 178.804V178.804H36.7087ZM59.0046 156.768V146.768H59.0046L59.0046 156.768ZM68.9822 159.092L73.4215 150.131L73.4214 150.131L68.9822 159.092ZM70.9216 158.259L61.2629 155.669L61.2627 155.669L70.9216 158.259ZM72.9988 150.513L82.6575 153.103L82.6577 153.102L72.9988 150.513ZM74.1462 149.56L73.3749 139.59L73.3717 139.59L74.1462 149.56ZM154.27 121.302L154.27 111.302H154.27V121.302ZM167.828 134.86H177.828V134.859L167.828 134.86ZM154.27 148.417V158.417H154.27L154.27 148.417ZM140.713 134.86L130.713 134.859V134.86H140.713ZM54.8416 120.746V110.746H54.8413L54.8416 120.746ZM68.3992 134.304L78.3992 134.304V134.304H68.3992ZM54.8416 147.861L54.8413 157.861H54.8416V147.861ZM41.2839 134.304H31.2839V134.304L41.2839 134.304ZM87.9861 113.405V103.405H87.9859L87.9861 113.405ZM101.544 126.963L111.544 126.963V126.963H101.544ZM87.9861 140.521L87.9859 150.521H87.9861V140.521ZM74.4285 126.963H64.4285V126.963L74.4285 126.963ZM121.129 113.405L121.129 103.405H121.129V113.405ZM134.686 126.963L144.686 126.963V126.963H134.686ZM121.129 140.521V150.521H121.129L121.129 140.521ZM107.571 126.963H97.571V126.963L107.571 126.963ZM128.647 27.0333L138.636 26.5522L138.636 26.5516L128.647 27.0333ZM129.933 26.6144L138.292 21.1254L138.291 21.1239L129.933 26.6144ZM131.515 29.0236L123.157 34.5126L123.157 34.5141L131.515 29.0236ZM132.621 29.1105L140.024 35.8328L140.026 35.8312L132.621 29.1105ZM134.558 26.9757L127.156 20.2524L127.153 20.2551L134.558 26.9757ZM135.763 27.589L145.555 29.6179L145.556 29.6161L135.763 27.589ZM135.178 30.4123L125.386 28.3834L125.385 28.3891L135.178 30.4123ZM135.899 31.2541L135.418 21.2656L135.417 21.2657L135.899 31.2541ZM138.778 31.1154L139.259 41.1038L139.26 41.1038L138.778 31.1154ZM139.197 32.4015L144.686 40.7604L144.687 40.7594L139.197 32.4015ZM136.788 33.9835L131.299 25.6247L131.297 25.6256L136.788 33.9835ZM136.701 35.088L129.973 42.4864L129.978 42.4913L136.701 35.088ZM138.836 37.0265L145.559 29.6243L145.558 29.6233L138.836 37.0265ZM138.222 38.2316L136.194 48.0236L136.196 48.0241L138.222 38.2316ZM135.399 37.6466L137.428 27.8546L137.423 27.8536L135.399 37.6466ZM134.557 38.3673L144.546 37.8862L144.546 37.8856L134.557 38.3673ZM134.696 41.2462L124.708 41.7274L124.708 41.7279L134.696 41.2462ZM133.41 41.6652L125.051 47.1542L125.052 47.1557L133.41 41.6652ZM131.828 39.256L140.187 33.767L140.186 33.7655L131.828 39.256ZM130.722 39.1691L123.319 32.4468L123.317 32.4484L130.722 39.1691ZM128.785 41.3039L136.187 48.0275L136.19 48.0245L128.785 41.3039ZM127.58 40.6906L137.372 42.7167L137.373 42.7132L127.58 40.6906ZM128.13 38.0285L137.923 40.0511C138.628 36.6392 137.506 33.1064 134.962 30.7262C132.418 28.346 128.818 27.4614 125.461 28.3912L128.13 38.0285ZM127.645 38.1623L130.282 47.8084L127.645 38.1623ZM117.362 42.2101L112.707 33.3598L112.707 33.3598L117.362 42.2101ZM108.273 57.6798L98.3174 56.7403L98.3174 56.7404L108.273 57.6798ZM108.709 58.1808L108.06 68.1597L108.068 68.1603L108.709 58.1808ZM167.979 119.926L177.967 119.432V119.432L167.979 119.926ZM167.31 120.372L171.671 111.373L171.671 111.373L167.31 120.372ZM104.682 107.033L104.682 97.0333H104.682V107.033ZM41.9558 120.42L37.5864 111.425L37.5864 111.425L41.9558 120.42ZM41.2859 120.002L31.2861 120.072V120.072L41.2859 120.002ZM102.077 58.0558L101.807 48.0594L101.807 48.0594L102.077 58.0558ZM102.532 57.6662L92.689 55.9008L92.689 55.9008L102.532 57.6662ZM105.885 47.0509L96.7936 42.8871L96.7935 42.8873L105.885 47.0509ZM125.24 33.1173L122.078 23.6305L122.078 23.6305L125.24 33.1173ZM126.236 32.8214L128.725 42.5067C132.287 41.5913 135.059 38.7944 135.943 35.2242C136.827 31.6541 135.68 27.887 132.956 25.4156L126.236 32.8214ZM124.508 31.2531L117.785 38.6561L117.788 38.6589L124.508 31.2531ZM125.121 30.048L123.093 39.8403L123.095 39.8407L125.121 30.048ZM127.944 30.632L125.918 40.4247L125.919 40.4247L127.944 30.632ZM128.786 29.9123L118.797 30.3934L118.798 30.394L128.786 29.9123ZM126.81 153.098L127.08 163.094C123.387 163.194 120.037 160.953 118.715 157.511L128.051 153.926L137.386 150.341C135.671 145.877 131.328 142.972 126.541 143.101L126.81 153.098ZM128.051 153.926L118.715 157.509L121.589 164.997L130.925 161.414L140.261 157.831L137.387 150.343L128.051 153.926ZM130.925 161.414L121.59 165C124.352 172.19 132.695 174.03 138.29 170.488L132.94 162.039L127.591 153.59C131.739 150.964 138.111 152.236 140.259 157.828L130.925 161.414ZM132.94 162.039L138.29 170.488C139.844 169.504 141.658 168.843 143.664 168.633L142.621 158.688L141.578 148.742C136.45 149.28 131.697 150.991 127.591 153.59L132.94 162.039ZM142.621 158.688L143.664 168.633C150.528 167.913 156.466 172.82 157.148 179.322L167.094 178.279L177.039 177.237C175.182 159.53 159.207 146.894 141.578 148.742L142.621 158.688ZM167.094 178.279L157.148 179.322C157.31 180.871 157.168 182.362 156.776 183.754L166.401 186.465L176.027 189.176C177.093 185.39 177.47 181.353 177.039 177.237L167.094 178.279ZM166.401 186.465L156.776 183.751C157.853 179.932 161.203 177.574 164.697 177.376L165.263 187.36L165.83 197.343C170.387 197.085 174.66 194.022 176.026 189.179L166.401 186.465ZM165.263 187.36L164.697 177.376L110.091 180.474L110.658 190.458L111.225 200.442L165.83 197.343L165.263 187.36ZM110.658 190.458L110.094 180.474C114.535 180.223 118.443 183.357 119.175 187.733L109.311 189.381L99.448 191.029C100.396 196.704 105.465 200.768 111.222 200.442L110.658 190.458ZM109.311 189.381L119.175 187.733L113.464 153.553L103.6 155.201L93.7371 156.849L99.448 191.029L109.311 189.381ZM103.6 155.201L113.464 153.553C114.336 158.774 110.391 163.55 105.112 163.694L104.84 153.697L104.567 143.701C97.7208 143.888 92.6064 150.082 93.7371 156.849L103.6 155.201ZM104.84 153.697L105.112 163.694L127.083 163.094L126.81 153.098L126.537 143.102L104.567 143.701L104.84 153.697ZM96.0603 147.864L96.8298 157.835C91.5604 158.241 87.1466 153.899 87.4674 148.624L97.449 149.231L107.431 149.838C107.846 142.998 102.123 137.367 95.2908 137.894L96.0603 147.864ZM97.449 149.231L87.4676 148.62L85.3524 183.21L95.3337 183.82L105.315 184.431L107.43 149.841L97.449 149.231ZM95.3337 183.82L85.3524 183.21C85.6239 178.771 89.1945 175.255 93.6283 175.043L94.1062 185.031L94.5841 195.02C100.334 194.745 104.963 190.186 105.315 184.431L95.3337 183.82ZM94.1062 185.031L93.6286 175.043L38.9977 177.655L39.4753 187.644L39.953 197.632L94.5838 195.02L94.1062 185.031ZM39.4753 187.644L38.9985 177.655C42.4868 177.489 46.0687 179.478 47.5403 183.171L38.2507 186.873L28.9612 190.575C30.8268 195.257 35.4009 197.85 39.9522 197.632L39.4753 187.644ZM38.2507 186.873L47.5409 183.173C47.0062 181.83 46.7087 180.362 46.7087 178.804H36.7087H26.7087C26.7087 182.942 27.5047 186.918 28.9605 190.573L38.2507 186.873ZM36.7087 178.804L46.7087 178.804C46.7088 172.266 52.1031 166.768 59.0047 166.768L59.0046 156.768L59.0046 146.768C41.279 146.768 26.709 161 26.7087 178.804L36.7087 178.804ZM59.0046 156.768V166.768C61.0206 166.768 62.8932 167.235 64.5429 168.053L68.9822 159.092L73.4214 150.131C69.0672 147.974 64.162 146.768 59.0046 146.768V156.768ZM68.9822 159.092L64.5428 168.053C70.4861 170.997 78.5879 168.281 80.5805 160.849L70.9216 158.259L61.2627 155.669C62.812 149.891 69.0123 147.947 73.4215 150.131L68.9822 159.092ZM70.9216 158.259L80.5804 160.849L82.6575 153.103L72.9988 150.513L63.34 147.923L61.2629 155.669L70.9216 158.259ZM72.9988 150.513L82.6577 153.102C81.7014 156.669 78.6001 159.244 74.9208 159.53L74.1462 149.56L73.3717 139.59C68.6006 139.96 64.5798 143.299 63.3399 147.923L72.9988 150.513ZM74.1462 149.56L74.9176 159.53L96.8316 157.835L96.0603 147.864L95.289 137.894L73.3749 139.59L74.1462 149.56ZM154.27 121.302L154.27 131.302C156.235 131.302 157.828 132.895 157.828 134.86L167.828 134.86L177.828 134.859C177.828 121.849 167.281 111.302 154.27 111.302L154.27 121.302ZM167.828 134.86H157.828C157.828 136.824 156.235 138.417 154.27 138.417L154.27 148.417L154.27 158.417C167.281 158.417 177.828 147.87 177.828 134.86H167.828ZM154.27 148.417V138.417C152.305 138.417 150.713 136.824 150.713 134.86H140.713H130.713C130.713 147.87 141.26 158.417 154.27 158.417V148.417ZM140.713 134.86L150.713 134.86C150.713 132.895 152.306 131.302 154.27 131.302V121.302V111.302C141.26 111.302 130.713 121.849 130.713 134.859L140.713 134.86ZM54.8416 120.746V130.746C56.8064 130.746 58.3992 132.339 58.3992 134.304H68.3992H78.3992C78.3992 121.293 67.8521 110.746 54.8416 110.746V120.746ZM68.3992 134.304L58.3992 134.304C58.3992 136.269 56.8064 137.861 54.8416 137.861V147.861V157.861C67.8521 157.861 78.3991 147.314 78.3992 134.304L68.3992 134.304ZM54.8416 147.861L54.8418 137.861C52.8767 137.861 51.2839 136.268 51.2839 134.304L41.2839 134.304L31.2839 134.304C31.284 147.314 41.8313 157.861 54.8413 157.861L54.8416 147.861ZM41.2839 134.304H51.2839C51.2839 132.339 52.8767 130.746 54.8418 130.746L54.8416 120.746L54.8413 110.746C41.8313 110.747 31.2839 121.293 31.2839 134.304H41.2839ZM87.9861 113.405V123.405C89.9509 123.405 91.5437 124.998 91.5437 126.963H101.544H111.544C111.544 113.953 100.997 103.405 87.9861 103.405V113.405ZM101.544 126.963L91.5437 126.963C91.5437 128.928 89.9505 130.521 87.9861 130.521V140.521V150.521C100.997 150.521 111.543 139.973 111.544 126.963L101.544 126.963ZM87.9861 140.521L87.9863 130.521C86.0216 130.521 84.4285 128.928 84.4285 126.963L74.4285 126.963L64.4285 126.963C64.4288 139.973 74.9756 150.52 87.9859 150.521L87.9861 140.521ZM74.4285 126.963H84.4285C84.4285 124.998 86.0212 123.405 87.9863 123.405L87.9861 113.405L87.9859 103.405C74.9758 103.406 64.4285 113.952 64.4285 126.963H74.4285ZM121.129 113.405L121.128 123.405C123.094 123.405 124.686 124.998 124.686 126.963H134.686H144.686C144.686 113.952 134.139 103.406 121.129 103.405L121.129 113.405ZM134.686 126.963L124.686 126.963C124.686 128.928 123.093 130.521 121.128 130.521L121.129 140.521L121.129 150.521C134.139 150.52 144.686 139.973 144.686 126.963L134.686 126.963ZM121.129 140.521V130.521C119.164 130.521 117.571 128.928 117.571 126.963L107.571 126.963L97.571 126.963C97.5714 139.973 108.118 150.521 121.129 150.521V140.521ZM107.571 126.963H117.571C117.571 124.998 119.164 123.405 121.129 123.405V113.405V103.405C108.118 103.405 97.571 113.953 97.571 126.963H107.571ZM128.647 27.0333L138.636 26.5516C139.091 35.9969 126.78 40.0273 121.575 32.1049L129.933 26.6144L138.291 21.1239C132.303 12.0088 118.135 16.6444 118.659 27.5151L128.647 27.0333ZM129.933 26.6144L121.574 32.1034L123.157 34.5126L131.515 29.0236L139.874 23.5346L138.292 21.1254L129.933 26.6144ZM131.515 29.0236L123.157 34.5141C126.99 40.3484 135.313 41.021 140.024 35.8328L132.621 29.1105L125.217 22.3882C129.312 17.8782 136.544 18.4645 139.873 23.5331L131.515 29.0236ZM132.621 29.1105L140.026 35.8312L141.963 33.6964L134.558 26.9757L127.153 20.2551L125.216 22.3898L132.621 29.1105ZM134.558 26.9757L141.961 33.6991C135.596 40.7069 124.052 34.8319 125.971 25.5619L135.763 27.589L145.556 29.6161C147.764 18.9489 134.48 12.1884 127.156 20.2524L134.558 26.9757ZM135.763 27.589L125.971 25.5602L125.386 28.3834L135.178 30.4123L144.97 32.4411L145.555 29.6179L135.763 27.589ZM135.178 30.4123L125.385 28.3891C123.968 35.2481 129.408 41.5787 136.381 41.2424L135.899 31.2541L135.417 21.2657C141.475 20.9735 146.203 26.4733 144.972 32.4354L135.178 30.4123ZM135.899 31.2541L136.38 41.2425L139.259 41.1038L138.778 31.1154L138.297 21.127L135.418 21.2656L135.899 31.2541ZM138.778 31.1154L139.26 41.1038C129.815 41.5593 125.784 29.2481 133.707 24.0436L139.197 32.4015L144.687 40.7594C153.803 34.7714 149.167 20.6027 138.296 21.127L138.778 31.1154ZM139.197 32.4015L133.708 24.0426L131.299 25.6247L136.788 33.9835L142.277 42.3424L144.686 40.7604L139.197 32.4015ZM136.788 33.9835L131.297 25.6256C125.457 29.4621 124.798 37.7807 129.973 42.4864L136.701 35.088L143.429 27.6897C147.926 31.7794 147.353 39.0078 142.278 42.3415L136.788 33.9835ZM136.701 35.088L129.978 42.4913L132.113 44.4297L138.836 37.0265L145.558 29.6233L143.423 27.6848L136.701 35.088ZM138.836 37.0265L132.112 44.4287C125.105 38.0639 130.979 26.5207 140.249 28.4391L138.222 38.2316L136.196 48.0241C146.863 50.2317 153.623 36.9485 145.559 29.6243L138.836 37.0265ZM138.222 38.2316L140.251 28.4396L137.428 27.8546L135.399 37.6466L133.37 47.4387L136.194 48.0236L138.222 38.2316ZM135.399 37.6466L137.423 27.8536C130.563 26.4358 124.233 31.8773 124.569 38.849L134.557 38.3673L144.546 37.8856C144.838 43.9425 139.339 48.6721 133.375 47.4397L135.399 37.6466ZM134.557 38.3673L124.569 38.8485L124.708 41.7274L134.696 41.2462L144.684 40.7651L144.546 37.8862L134.557 38.3673ZM134.696 41.2462L124.708 41.7279C124.252 32.2827 136.563 28.2523 141.768 36.1747L133.41 41.6652L125.052 47.1557C131.04 56.2708 145.209 51.6352 144.684 40.7645L134.696 41.2462ZM133.41 41.6652L141.769 36.1762L140.187 33.767L131.828 39.256L123.469 44.745L125.051 47.1542L133.41 41.6652ZM131.828 39.256L140.186 33.7655C136.353 27.9312 128.03 27.2585 123.319 32.4468L130.722 39.1691L138.126 45.8914C134.031 50.4014 126.8 49.8151 123.47 44.7465L131.828 39.256ZM130.722 39.1691L123.317 32.4484L121.38 34.5832L128.785 41.3039L136.19 48.0245L138.127 45.8897L130.722 39.1691ZM128.785 41.3039L121.383 34.5802C127.749 27.5717 139.29 33.4492 137.372 42.7167L127.58 40.6906L117.787 38.6645C115.581 49.3291 128.862 56.0921 136.187 48.0275L128.785 41.3039ZM127.58 40.6906L137.373 42.7132L137.923 40.0511L128.13 38.0285L118.336 36.0059L117.787 38.668L127.58 40.6906ZM128.13 38.0285L125.461 28.3912C125.287 28.4392 125.155 28.4762 125.009 28.5161L127.645 38.1623L130.282 47.8084C130.471 47.7567 130.661 47.7039 130.799 47.6657L128.13 38.0285ZM127.645 38.1623L125.009 28.5161C122.499 29.2021 118.51 30.3072 112.707 33.3598L117.362 42.2101L122.017 51.0604C126.002 48.9645 128.435 48.3133 130.282 47.8084L127.645 38.1623ZM117.362 42.2101L112.707 33.3598C101.697 39.1512 98.8609 50.9808 98.3174 56.7403L108.273 57.6798L118.229 58.6193C118.36 57.234 118.767 55.4471 119.53 53.8978C120.268 52.398 121.123 51.5311 122.017 51.0604L117.362 42.2101ZM108.273 57.6798L98.3174 56.7404C97.7393 62.8667 102.434 67.7938 108.06 68.1597L108.709 58.1808L109.358 48.2019C114.464 48.534 118.758 53.0117 118.229 58.6193L108.273 57.6798ZM108.709 58.1808L108.068 68.1603C135.625 69.9288 156.468 89.6387 157.991 120.42L167.979 119.926L177.967 119.432C175.944 78.535 147.095 50.6238 109.349 48.2013L108.709 58.1808ZM167.979 119.926L157.991 120.42C157.64 113.316 165.038 108.159 171.671 111.373L167.31 120.372L162.95 129.371C170.221 132.895 178.354 127.244 177.967 119.432L167.979 119.926ZM167.31 120.372L171.671 111.373C152.926 102.29 129.664 97.0334 104.682 97.0333L104.682 107.033L104.682 117.033C126.973 117.033 147.206 121.743 162.95 129.371L167.31 120.372ZM104.682 107.033V97.0333C79.6539 97.0333 56.3501 102.31 37.5864 111.425L41.9558 120.42L46.3252 129.415C62.0816 121.761 82.349 117.033 104.682 117.033V107.033ZM41.9558 120.42L37.5864 111.425C43.9509 108.333 51.2373 112.987 51.2856 119.932L41.2859 120.002L31.2861 120.072C31.3393 127.703 39.3442 132.806 46.3253 129.415L41.9558 120.42ZM41.2859 120.002L51.2856 119.933C51.0831 90.8283 73.0236 68.8433 102.347 68.0522L102.077 58.0558L101.807 48.0594C62.0399 49.1324 31.0048 79.6418 31.2861 120.072L41.2859 120.002ZM102.077 58.0558L102.347 68.0522C107.26 67.9196 111.49 64.367 112.375 59.4315L102.532 57.6662L92.689 55.9008C93.4951 51.4067 97.3426 48.1799 101.807 48.0594L102.077 58.0558ZM102.532 57.6662L112.375 59.4315C112.764 57.2595 113.545 54.3426 114.977 51.2146L105.885 47.0509L96.7935 42.8873C94.569 47.7448 93.334 52.3049 92.689 55.9008L102.532 57.6662ZM105.885 47.0509L114.977 51.2148C115.847 49.3163 117.505 47.6381 120.082 46.1096C122.709 44.5519 125.621 43.5312 128.402 42.6042L125.24 33.1173L122.078 23.6305C119.316 24.5512 114.547 26.1396 109.879 28.9078C105.163 31.7053 99.9157 36.07 96.7936 42.8871L105.885 47.0509ZM125.24 33.1173L128.402 42.6042C128.555 42.5533 128.661 42.5231 128.725 42.5067L126.236 32.8214L123.747 23.1362C123.172 23.284 122.614 23.4518 122.078 23.6305L125.24 33.1173ZM126.236 32.8214L132.956 25.4156L131.227 23.8472L124.508 31.2531L117.788 38.6589L119.516 40.2273L126.236 32.8214ZM124.508 31.2531L131.23 23.8501C138.24 30.2157 132.363 41.7594 123.093 39.8403L125.121 30.048L127.148 20.2557C116.482 18.0473 109.719 31.3312 117.785 38.6561L124.508 31.2531ZM125.121 30.048L123.095 39.8407L125.918 40.4247L127.944 30.632L129.97 20.8393L127.146 20.2553L125.121 30.048ZM127.944 30.632L125.919 40.4247C132.763 41.8405 139.111 36.4197 138.774 29.4305L128.786 29.9123L118.798 30.394C118.505 24.3198 124.022 19.609 129.97 20.8393L127.944 30.632ZM128.786 29.9123L138.774 29.4311L138.636 26.5522L128.647 27.0333L118.659 27.5145L118.797 30.3934L128.786 29.9123Z" fill="white" mask="url(#path-1-outside-1_1829_5715)"/>
<path d="M125.227 33.0487C130.77 31.2012 133.104 33.7296 131.499 36.1122C129.895 38.4948 126.684 37.2304 117.348 42.1414C110.984 45.4887 108.765 52.7449 108.281 57.3961C108.241 57.7744 108.534 58.1006 108.913 58.1261C141.348 60.3059 166.03 83.9385 167.946 119.498C167.974 120.015 167.437 120.374 166.971 120.15C149.779 111.889 128.156 106.967 104.669 106.967C81.1275 106.967 59.4588 111.91 42.2474 120.206C41.7969 120.423 41.2726 120.095 41.2716 119.595C41.203 85.055 67.5403 59.0049 101.887 57.9918C102.215 57.9822 102.493 57.744 102.552 57.4222C103.078 54.563 104.08 50.8951 105.871 46.9832C109.863 38.2672 119.683 34.8964 125.227 33.0487Z" fill="#393939"/>
<path d="M128.687 28.1406C128.637 27.1007 129.992 26.6597 130.563 27.5299L131.271 28.6071C131.638 29.1658 132.433 29.2279 132.883 28.7331L133.749 27.7789C134.449 27.008 135.719 27.6541 135.508 28.6737L135.246 29.9357C135.111 30.5903 135.629 31.1967 136.297 31.1645L137.584 31.1025C138.624 31.0523 139.065 32.407 138.195 32.9786L137.118 33.6863C136.559 34.0532 136.497 34.8488 136.992 35.2981L137.946 36.1645C138.717 36.8644 138.071 38.1341 137.051 37.923L135.789 37.6616C135.135 37.5261 134.528 38.0447 134.56 38.7123L134.623 39.9997C134.673 41.0396 133.318 41.4806 132.746 40.6104L132.039 39.5332C131.672 38.9745 130.876 38.9124 130.427 39.4072L129.56 40.3614C128.861 41.1323 127.591 40.4862 127.802 39.4666L128.063 38.2046C128.199 37.55 127.68 36.9436 127.013 36.9758L125.725 37.0378C124.685 37.088 124.244 35.7333 125.115 35.1617L126.192 34.454C126.75 34.087 126.813 33.2915 126.318 32.8422L125.364 31.9758C124.593 31.2759 125.239 30.0062 126.258 30.2173L127.52 30.4786C128.175 30.6142 128.781 30.0956 128.749 29.428L128.687 28.1406Z" fill="#FBE044"/>
<ellipse cx="2.81636" cy="3.53824" rx="2.81636" ry="3.53824" transform="matrix(0.990615 0.136681 -0.136683 0.990615 97.9441 76.1938)" fill="#FBE044"/>
<ellipse cx="86.7363" cy="88.7886" rx="10.6977" ry="10.6953" fill="#FFFAE0"/>
<ellipse cx="2.81636" cy="3.53824" rx="2.81636" ry="3.53824" transform="matrix(0.982381 -0.186888 0.18689 0.982381 106.339 77.1343)" fill="#FBE044"/>
<ellipse cx="123.283" cy="88.7886" rx="10.6977" ry="10.6953" fill="#FFFAE0"/>
<ellipse cx="54.8248" cy="134.235" rx="13.5577" ry="13.5576" fill="#393939"/>
<ellipse cx="87.97" cy="126.895" rx="13.5577" ry="13.5576" fill="#393939"/>
<ellipse cx="121.113" cy="126.895" rx="13.5577" ry="13.5576" fill="#393939"/>
<ellipse cx="154.256" cy="134.789" rx="13.5577" ry="13.5576" fill="#393939"/>
<path fill-rule="evenodd" clip-rule="evenodd" d="M95.3176 183.753C95.2774 184.411 94.7484 184.933 94.0901 184.964L39.4594 187.576C38.9277 187.602 38.4315 187.3 38.2346 186.805C37.2393 184.307 36.6926 181.585 36.6926 178.737C36.6926 166.566 46.6749 156.7 58.9887 156.7C62.5754 156.7 65.9643 157.537 68.9664 159.024C69.7334 159.404 70.6841 159.018 70.9058 158.192L72.9826 150.445C73.1244 149.916 73.5845 149.534 74.1306 149.492L96.044 147.797C96.8258 147.736 97.4806 148.381 97.4328 149.163L95.3176 183.753Z" fill="#393939"/>
<path fill-rule="evenodd" clip-rule="evenodd" d="M109.295 189.313C109.404 189.963 109.985 190.427 110.643 190.389L165.248 187.291C165.779 187.26 166.241 186.908 166.386 186.396C167.115 183.807 167.375 181.043 167.078 178.21C165.808 166.106 154.852 157.335 142.605 158.619C139.038 158.993 135.755 160.179 132.924 161.971C132.201 162.429 131.215 162.144 130.909 161.345L128.035 153.858C127.839 153.346 127.342 153.014 126.794 153.029L104.823 153.629C104.04 153.65 103.456 154.359 103.585 155.133L109.295 189.313Z" fill="#393939"/>
<path d="M99.4439 91.3182C99.4439 89.8548 99.8681 88.7414 100.716 87.9778C101.586 87.1931 102.88 86.8008 104.598 86.8008C106.316 86.8008 107.599 87.2037 108.447 88.0097C109.317 88.8156 109.751 89.9184 109.751 91.3182C109.751 92.5695 109.348 93.6617 108.542 94.5949H108.892C109.889 94.5949 110.791 94.4676 111.596 94.2131C112.402 93.9586 113.06 93.5769 113.569 93.0679C113.76 92.877 113.961 92.7391 114.173 92.6543C114.385 92.5483 114.64 92.4952 114.937 92.4952C115.488 92.4952 115.891 92.6543 116.146 92.9724C116.421 93.2906 116.559 93.6829 116.559 94.1495C116.559 94.8282 116.315 95.3902 115.828 95.8356C115.361 96.3022 114.767 96.6733 114.046 96.949C113.346 97.2459 112.572 97.458 111.724 97.5853C110.897 97.7125 110.133 97.7761 109.433 97.7761C107.715 97.7761 106.103 97.5322 104.598 97.0445C103.071 97.5322 101.459 97.7761 99.7621 97.7761C99.0622 97.7761 98.2881 97.7125 97.4397 97.5853C96.6126 97.458 95.8385 97.2459 95.1174 96.949C94.4175 96.6733 93.8237 96.3022 93.3359 95.8356C92.8693 95.3902 92.636 94.8282 92.636 94.1495C92.636 93.6829 92.7632 93.2906 93.0177 92.9724C93.2935 92.6543 93.707 92.4952 94.2584 92.4952C94.5554 92.4952 94.8099 92.5483 95.022 92.6543C95.234 92.7391 95.4355 92.877 95.6264 93.0679C96.1354 93.5769 96.7929 93.9692 97.5988 94.2449C98.4047 94.4994 99.3061 94.6161 100.303 94.5949H100.653C100.271 94.1495 99.9742 93.6511 99.7621 93.0997C99.55 92.5483 99.4439 91.9544 99.4439 91.3182ZM103.421 91.4454C103.421 91.912 103.527 92.3256 103.739 92.6861C103.951 93.0255 104.237 93.3118 104.598 93.5451C104.958 93.3118 105.244 93.0255 105.457 92.6861C105.669 92.3256 105.775 91.912 105.775 91.4454C105.775 90.9364 105.669 90.5759 105.457 90.3638C105.244 90.1517 104.958 90.0457 104.598 90.0457C104.237 90.0457 103.951 90.1517 103.739 90.3638C103.527 90.5759 103.421 90.9364 103.421 91.4454Z" fill="#FBE044"/>
<path d="M14.8065 6.28852C26.9569 -0.633673 37.418 5.67271 40.375 13.1638C44.4535 23.4213 37.3151 30.6878 36.6756 31.8113L36.6723 31.8154L37.8067 33.9171L37.8054 33.9168C39.2406 36.4948 38.5342 39.0766 37.4505 40.812C37.3519 40.9699 37.2465 41.1238 37.138 41.2755C37.7553 41.1605 38.3794 41.1089 39.0038 41.1375C41.0792 41.2326 42.9367 42.2112 44.1538 44.0535L44.1546 44.053C45.1175 45.4466 45.9382 47.0411 46.679 48.466L46.6979 48.5013L46.7152 48.5376C47.8632 50.8979 47.4897 53.2507 46.4225 55.0883C45.4126 56.8271 43.793 58.1349 42.1703 58.9641L42.1605 58.9686L42.1512 58.9739C37.9106 61.1028 33.674 59.9906 32.0672 57.1707C31.1644 55.586 30.3984 54.2425 29.8678 53.4267L29.8578 53.4111L29.8482 53.3963C28.45 51.1875 28.6737 48.7835 29.5021 46.9375C29.7592 46.3646 30.0823 45.8217 30.4552 45.3178C29.6396 45.4507 28.7913 45.4875 27.9399 45.3752C25.9297 45.11 24.0673 44.0287 22.8926 41.9668L22.8839 41.9515L22.8761 41.9358L20.254 37.2053L20.2381 37.1773C18.1599 33.3289 19.307 29.346 21.515 26.0433L21.5426 26.0028L21.5718 25.9615C22.932 24.0666 23.9401 22.7511 24.519 21.5152C24.9716 20.549 24.9208 20.1388 24.7894 19.8574C24.7832 19.8566 24.7766 19.8548 24.7695 19.8541C24.5304 19.8306 23.8931 19.8803 22.8792 20.4579C21.121 21.4595 19.8754 22.7459 19.6144 25.0075C19.3505 27.2938 17.8897 29.071 16.2471 30.1426C14.5765 31.2325 12.4157 31.8107 10.2037 31.4919L10.1486 31.4839L10.0947 31.4742C7.98163 31.0896 6.27558 29.8442 5.13109 28.4553C4.00946 27.0941 3.16087 25.27 3.16324 23.3757L3.16345 23.3071L3.16717 23.2386C3.47391 16.7228 6.97331 10.7513 14.8065 6.28852Z" fill="#FBE56A" stroke="white" stroke-width="6"/>
<path d="M68.7551 5.29864C77.3849 7.02299 79.9494 14.4813 78.1687 19.5293C76.9968 22.8755 74.8007 24.7173 72.7068 25.7277C71.6994 26.2137 70.7449 26.4953 70.0168 26.6801C69.8203 26.7299 69.6255 26.7733 69.4555 26.8129L69.3311 27.3706L69.3304 27.3695C69.0316 28.7721 68.2402 29.7341 67.3479 30.3633C68.1057 31.3688 68.4665 32.6239 68.2943 33.9801L68.2962 33.9805C68.1789 35.0379 67.9136 36.1161 67.7044 36.9873L67.6849 37.0651C67.1672 38.9929 65.7633 40.157 64.2788 40.6647C62.9025 41.1354 61.4538 41.069 60.2682 40.7756L60.2579 40.7725L60.2473 40.7704C57.1584 39.9823 55.0957 37.3915 55.63 34.7171C55.8377 33.6778 56.0003 32.857 56.0705 32.3533L56.0758 32.3165C56.3211 30.7026 57.2503 29.5676 58.3014 28.8634C57.4623 27.7537 57.0497 26.3161 57.3678 24.7243L57.3747 24.6898L58.0153 21.6679L58.0186 21.6516L58.0228 21.6355C58.3034 20.3803 58.8841 19.3823 59.6379 18.5962C58.3481 18.3366 57.0663 17.6589 56.1057 16.547L56.0693 16.5048L56.035 16.4621C55.0369 15.2169 54.7101 13.7228 54.7427 12.4634C54.7743 11.2399 55.1573 9.8207 56.1123 8.72378L56.1575 8.67206L56.2052 8.62283C59.1255 5.56328 63.3392 4.21661 68.7551 5.29864Z" fill="#FBE56A" stroke="white" stroke-width="6"/>
</svg>
