<svg width="36" height="36" viewBox="0 0 36 36" fill="none" xmlns="http://www.w3.org/2000/svg">
<rect width="36" height="36" rx="18" fill="#F2F4F8"/>
<ellipse cx="16.8806" cy="15.3027" rx="0.916799" ry="1.1518" transform="rotate(7.85592 16.8806 15.3027)" fill="#393939"/>
<ellipse opacity="0.2" cx="12.4824" cy="18.1362" rx="3.48238" ry="3.48164" fill="#8D8D8D"/>
<ellipse cx="19.9792" cy="15.3029" rx="0.916799" ry="1.1518" transform="rotate(-10.7713 19.9792 15.3029)" fill="#393939"/>
<ellipse opacity="0.2" cx="24.3786" cy="18.1362" rx="3.48238" ry="3.48164" fill="#8D8D8D"/>
<path d="M16.619 18.9598C16.619 18.4834 16.7571 18.121 17.0332 17.8724C17.3163 17.617 17.7374 17.4893 18.2967 17.4893C18.8559 17.4893 19.2736 17.6204 19.5497 17.8828C19.8328 18.1451 19.9743 18.5041 19.9743 18.9598C19.9743 19.3671 19.8432 19.7227 19.5808 20.0265H19.6947C20.0192 20.0265 20.3126 19.985 20.575 19.9022C20.8373 19.8193 21.0513 19.6951 21.217 19.5294C21.2792 19.4672 21.3448 19.4224 21.4138 19.3948C21.4828 19.3602 21.5657 19.343 21.6623 19.343C21.8418 19.343 21.973 19.3948 22.0559 19.4983C22.1456 19.6019 22.1905 19.7296 22.1905 19.8815C22.1905 20.1024 22.1111 20.2854 21.9523 20.4303C21.8004 20.5822 21.6071 20.7031 21.3724 20.7928C21.1445 20.8895 20.8926 20.9585 20.6164 20.9999C20.3471 21.0413 20.0986 21.0621 19.8708 21.0621C19.3115 21.0621 18.7868 20.9827 18.2967 20.8239C17.7996 20.9827 17.2749 21.0621 16.7226 21.0621C16.4947 21.0621 16.2427 21.0413 15.9666 20.9999C15.6973 20.9585 15.4453 20.8895 15.2106 20.7928C14.9828 20.7031 14.7895 20.5822 14.6307 20.4303C14.4788 20.2854 14.4028 20.1024 14.4028 19.8815C14.4028 19.7296 14.4443 19.6019 14.5271 19.4983C14.6169 19.3948 14.7515 19.343 14.931 19.343C15.0276 19.343 15.1105 19.3602 15.1795 19.3948C15.2486 19.4224 15.3142 19.4672 15.3763 19.5294C15.542 19.6951 15.756 19.8228 16.0184 19.9125C16.2807 19.9954 16.5741 20.0334 16.8986 20.0265H17.0125C16.8883 19.8815 16.7916 19.7192 16.7226 19.5397C16.6535 19.3602 16.619 19.1669 16.619 18.9598ZM17.9135 19.0012C17.9135 19.1531 17.948 19.2877 18.0171 19.4051C18.0861 19.5156 18.1793 19.6088 18.2967 19.6847C18.414 19.6088 18.5072 19.5156 18.5763 19.4051C18.6453 19.2877 18.6798 19.1531 18.6798 19.0012C18.6798 18.8355 18.6453 18.7182 18.5763 18.6491C18.5072 18.5801 18.414 18.5456 18.2967 18.5456C18.1793 18.5456 18.0861 18.5801 18.0171 18.6491C17.948 18.7182 17.9135 18.8355 17.9135 19.0012Z" fill="#393939"/>
</svg>
