<svg width="144" height="154" viewBox="0 0 144 154" fill="none" xmlns="http://www.w3.org/2000/svg">
<path d="M50.1694 22.0988C49.6545 11.4171 63.569 6.88755 69.4407 15.8255C71.7748 19.3786 76.8345 19.7745 79.6923 16.6271C86.8813 8.70986 99.9226 15.3456 97.7543 25.8177C96.8924 29.9805 100.19 33.8378 104.436 33.6332C115.118 33.1181 119.648 47.0328 110.71 52.9045C107.157 55.2387 106.762 60.2982 109.909 63.1558C117.826 70.3448 111.19 83.3858 100.718 81.2178C96.5555 80.3559 92.6982 83.6537 92.9027 87.8998C93.4178 98.5817 79.5031 103.111 73.6314 94.173C71.2972 90.6202 66.2378 90.225 63.3801 93.3723C56.1912 101.29 43.15 94.6538 45.3181 84.1817C46.1801 80.0188 42.8815 76.1617 38.6353 76.3665C27.9536 76.8815 23.4241 62.967 32.362 57.0953C35.915 54.7612 36.3109 49.7014 33.1636 46.8436C25.2461 39.6546 31.882 26.6133 42.3542 28.7816C46.5171 29.6435 50.3742 26.345 50.1694 22.0988Z" fill="#FBE044" stroke="#FFFAE0" stroke-width="4"/>
<path d="M68.856 56.2805H71.946V63.4805C71.946 64.5405 73.266 65.0405 73.966 64.2405L81.536 55.6405C82.196 54.8905 81.666 53.7205 80.666 53.7205H77.576V46.5205C77.576 45.4605 76.256 44.9605 75.556 45.7605L67.986 54.3605C67.336 55.1105 67.866 56.2805 68.856 56.2805Z" fill="#FBE044" stroke="#FFFAE0" stroke-width="1.5" stroke-miterlimit="10" stroke-linecap="round" stroke-linejoin="round"/>
<path d="M68.036 47H61.036" stroke="#FFFAE0" stroke-width="1.5" stroke-miterlimit="10" stroke-linecap="round" stroke-linejoin="round"/>
<path d="M67.036 63H61.036" stroke="#FFFAE0" stroke-width="1.5" stroke-miterlimit="10" stroke-linecap="round" stroke-linejoin="round"/>
<path d="M64.036 55H61.036" stroke="#FFFAE0" stroke-width="1.5" stroke-miterlimit="10" stroke-linecap="round" stroke-linejoin="round"/>
<path d="M24.7872 122.21C24.7872 123.666 24.3236 124.905 23.3962 125.928C22.4776 126.951 21.1732 127.7 19.4832 128.177L18.9762 127.176C20.2849 126.812 21.3206 126.292 22.0832 125.616C22.8546 124.931 23.3009 124.138 23.4222 123.237H19.5872V122.21H24.7872ZM28.4142 121.508V128.021H27.1402V125.434H24.8262V124.381H27.1402V121.508H28.4142ZM28.4142 128.489V132.857H20.9262V128.489H28.4142ZM22.1872 129.516V131.843H27.1532V129.516H22.1872ZM33.4976 122.184V123.653C33.4976 124.32 33.6926 124.944 34.0826 125.525C34.4726 126.106 35.0316 126.543 35.7596 126.838L35.0706 127.813C34.5592 127.605 34.1216 127.315 33.7576 126.942C33.3936 126.569 33.1076 126.14 32.8996 125.655C32.6742 126.201 32.3666 126.686 31.9766 127.111C31.5952 127.536 31.1402 127.869 30.6116 128.112L29.9226 127.124C30.6592 126.795 31.2312 126.305 31.6386 125.655C32.0546 125.005 32.2626 124.338 32.2626 123.653V122.184H33.4976ZM39.7246 121.521V128.476H38.5026V125.473H37.2546V128.411H36.0456V121.703H37.2546V124.433H38.5026V121.521H39.7246ZM39.7246 129.061V133.013H38.4506V130.088H31.9246V129.061H39.7246ZM50.6189 121.508V127.345H49.3449V126.279H46.4979V125.291H49.3449V124.069H46.6539C46.3072 124.953 45.7135 125.69 44.8729 126.279C44.0409 126.868 42.9835 127.31 41.7009 127.605L41.2719 126.578C42.6065 126.275 43.6379 125.82 44.3659 125.213C45.0939 124.606 45.5055 123.887 45.6009 123.055H41.8829V122.028H47.0179C47.0179 122.427 46.9875 122.782 46.9269 123.094H49.3449V121.508H50.6189ZM50.6189 127.826V130.79H44.4309V131.882H50.9439V132.896H43.1699V129.815H49.3449V128.84H43.1439V127.826H50.6189ZM58.5622 122.717V123.458C58.5622 124.203 58.5405 124.918 58.4972 125.603C58.4625 126.288 58.3758 127.076 58.2372 127.969L56.9762 127.865C57.1062 127.059 57.1928 126.331 57.2362 125.681C57.2795 125.031 57.3012 124.385 57.3012 123.744H52.7122V122.717H58.5622ZM55.6372 126.019V129.464C56.9805 129.421 58.1678 129.334 59.1992 129.204L59.2642 130.127C57.4788 130.422 55.1345 130.569 52.2312 130.569L52.0882 129.516L54.3892 129.503V126.019H55.6372ZM61.0972 121.508V126.253H62.8392V127.319H61.0972V133.013H59.8362V121.508H61.0972ZM72.2125 121.495V126.071H73.9675V127.124H72.2125V133.013H70.9255V121.495H72.2125ZM69.2095 122.717C69.2095 124.476 68.7935 126.054 67.9615 127.449C67.1381 128.844 65.8251 129.993 64.0225 130.894L63.3075 129.919C66.1328 128.48 67.6711 126.426 67.9225 123.757H63.8795V122.717H69.2095ZM79.6419 128.255V129.568H81.3189V128.255H82.5149V132.87H78.4459V128.255H79.6419ZM79.6419 131.895H81.3189V130.517H79.6419V131.895ZM85.8169 128.177V129.1C85.8169 129.733 85.9902 130.318 86.3369 130.855C86.6922 131.384 87.2035 131.769 87.8709 132.012L87.2339 132.974C86.2632 132.593 85.5829 131.917 85.1929 130.946C84.9935 131.405 84.7249 131.808 84.3869 132.155C84.0489 132.502 83.6415 132.775 83.1649 132.974L82.5409 132.012C83.1909 131.735 83.6892 131.332 84.0359 130.803C84.3912 130.266 84.5689 129.698 84.5689 129.1V128.177H85.8169ZM80.3049 121.989C81.0675 121.989 81.7175 122.184 82.2549 122.574C82.7922 122.964 83.1215 123.48 83.2429 124.121H85.4009V121.508H86.6749V127.592H85.4009V125.161H83.2429C83.1302 125.811 82.8009 126.335 82.2549 126.734C81.7175 127.133 81.0675 127.332 80.3049 127.332C79.7329 127.332 79.2172 127.219 78.7579 126.994C78.3072 126.76 77.9519 126.444 77.6919 126.045C77.4405 125.638 77.3149 125.174 77.3149 124.654C77.3149 124.134 77.4405 123.675 77.6919 123.276C77.9519 122.869 78.3072 122.552 78.7579 122.327C79.2172 122.102 79.7329 121.989 80.3049 121.989ZM80.3049 123.042C79.7849 123.042 79.3602 123.194 79.0309 123.497C78.7102 123.792 78.5499 124.177 78.5499 124.654C78.5499 125.139 78.7102 125.534 79.0309 125.837C79.3602 126.132 79.7849 126.279 80.3049 126.279C80.8249 126.279 81.2495 126.132 81.5789 125.837C81.9082 125.534 82.0729 125.139 82.0729 124.654C82.0729 124.177 81.9082 123.792 81.5789 123.497C81.2495 123.194 80.8249 123.042 80.3049 123.042ZM90.7832 128.398V129.594H96.0352V128.398H97.2962V132.87H89.5222V128.398H90.7832ZM90.7832 131.856H96.0352V130.582H90.7832V131.856ZM98.6352 126.669V127.696H88.2482V126.669H98.6352ZM94.0982 121.638V122.08C94.0982 122.513 94.2715 122.938 94.6182 123.354C94.9735 123.761 95.4545 124.112 96.0612 124.407C96.6678 124.693 97.3395 124.879 98.0762 124.966L97.6212 125.967C96.6852 125.837 95.8488 125.568 95.1122 125.161C94.3755 124.745 93.8208 124.234 93.4482 123.627C93.0842 124.234 92.5295 124.745 91.7842 125.161C91.0475 125.568 90.2112 125.837 89.2752 125.967L88.8072 124.966C89.5525 124.871 90.2285 124.68 90.8352 124.394C91.4418 124.108 91.9185 123.761 92.2652 123.354C92.6118 122.947 92.7852 122.522 92.7852 122.08V121.638H94.0982ZM108.827 121.508V133.013H107.566V121.508H108.827ZM101.3 122.626V128.996C103.155 128.979 104.884 128.805 106.487 128.476L106.643 129.555C104.875 129.91 102.995 130.088 101.001 130.088H100.026V122.626H101.3ZM119.371 121.495V125.928H121.165V126.994H119.371V133.026H118.084V121.495H119.371ZM116.29 122.613V123.64H112.208V129.126C113.248 129.117 114.136 129.087 114.873 129.035C115.618 128.983 116.368 128.888 117.122 128.749L117.252 129.815C116.42 129.971 115.596 130.075 114.782 130.127C113.976 130.179 113.001 130.205 111.857 130.205H110.934V122.613H116.29ZM122.582 130.751C122.799 130.751 122.976 130.82 123.115 130.959C123.254 131.098 123.323 131.275 123.323 131.492C123.323 131.717 123.254 131.899 123.115 132.038C122.976 132.185 122.799 132.259 122.582 132.259C122.357 132.259 122.17 132.185 122.023 132.038C121.884 131.899 121.815 131.717 121.815 131.492C121.815 131.275 121.884 131.098 122.023 130.959C122.17 130.82 122.357 130.751 122.582 130.751ZM6.76575 140.21C6.76575 141.666 6.30208 142.905 5.37475 143.928C4.45608 144.951 3.15175 145.7 1.46174 146.177L0.954745 145.176C2.26341 144.812 3.29908 144.292 4.06175 143.616C4.83308 142.931 5.27941 142.138 5.40074 141.237H1.56574V140.21H6.76575ZM10.3927 139.508V146.021H9.11875V143.434H6.80474V142.381H9.11875V139.508H10.3927ZM10.3927 146.489V150.857H2.90474V146.489H10.3927ZM4.16574 147.516V149.843H9.13174V147.516H4.16574ZM15.476 140.184V141.653C15.476 142.32 15.671 142.944 16.061 143.525C16.451 144.106 17.01 144.543 17.738 144.838L17.049 145.813C16.5377 145.605 16.1 145.315 15.736 144.942C15.372 144.569 15.086 144.14 14.878 143.655C14.6527 144.201 14.345 144.686 13.955 145.111C13.5737 145.536 13.1187 145.869 12.59 146.112L11.901 145.124C12.6377 144.795 13.2097 144.305 13.617 143.655C14.033 143.005 14.241 142.338 14.241 141.653V140.184H15.476ZM21.703 139.521V146.476H20.4811V143.473H19.233V146.411H18.024V139.703H19.233V142.433H20.4811V139.521H21.703ZM21.703 147.061V151.013H20.429V148.088H13.903V147.061H21.703ZM26.1624 140.353C26.6824 140.353 27.146 140.496 27.5534 140.782C27.9694 141.059 28.3074 141.458 28.5674 141.978C28.8274 142.489 28.9877 143.096 29.0484 143.798H31.3364V139.495H32.6104V151.026H31.3364V144.825H29.0614C29.018 145.562 28.8664 146.207 28.6064 146.762C28.355 147.308 28.017 147.728 27.5924 148.023C27.1677 148.318 26.691 148.465 26.1624 148.465C25.6077 148.465 25.1094 148.3 24.6674 147.971C24.2254 147.633 23.8787 147.156 23.6274 146.541C23.3847 145.926 23.2634 145.211 23.2634 144.396C23.2634 143.59 23.3847 142.884 23.6274 142.277C23.8787 141.662 24.2254 141.189 24.6674 140.86C25.1094 140.522 25.6077 140.353 26.1624 140.353ZM26.1624 141.51C25.6597 141.51 25.2524 141.77 24.9404 142.29C24.6284 142.81 24.4724 143.512 24.4724 144.396C24.4724 144.985 24.5417 145.501 24.6804 145.943C24.8277 146.385 25.027 146.723 25.2784 146.957C25.5384 147.191 25.833 147.308 26.1624 147.308C26.6824 147.308 27.094 147.048 27.3974 146.528C27.7094 146.008 27.8654 145.297 27.8654 144.396C27.8654 143.503 27.7094 142.801 27.3974 142.29C27.094 141.77 26.6824 141.51 26.1624 141.51ZM44.6097 144.799V145.735H34.1837V144.799H44.6097ZM43.3227 146.528V149.089H36.6797V149.986H43.6737V150.896H35.4187V148.244H42.0747V147.425H35.3927V146.528H43.3227ZM43.2837 139.794V142.316H36.7577V143.148H43.5047V144.058H35.5097V141.471H42.0227V140.691H35.4837V139.794H43.2837ZM56.9401 139.495V143.928H58.7341V144.994H56.9401V151.026H55.6531V139.495H56.9401ZM53.8591 140.613V141.64H49.7771V147.126C50.8171 147.117 51.7054 147.087 52.4421 147.035C53.1874 146.983 53.9371 146.888 54.6911 146.749L54.8211 147.815C53.9891 147.971 53.1657 148.075 52.3511 148.127C51.5451 148.179 50.5701 148.205 49.4261 148.205H48.5031V140.613H53.8591ZM63.3364 140.47V142.368C63.3364 143.07 63.462 143.759 63.7134 144.435C63.9647 145.111 64.3157 145.713 64.7664 146.242C65.217 146.762 65.737 147.152 66.3264 147.412L65.5724 148.439C64.9224 148.127 64.3504 147.668 63.8564 147.061C63.3624 146.454 62.981 145.757 62.7124 144.968C62.4437 145.826 62.058 146.576 61.5554 147.217C61.0527 147.858 60.4634 148.344 59.7874 148.673L59.0204 147.62C59.6097 147.351 60.134 146.944 60.5934 146.398C61.0527 145.852 61.408 145.228 61.6594 144.526C61.9194 143.815 62.0494 143.096 62.0494 142.368V140.47H63.3364ZM68.5624 139.495V151.026H67.2884V139.495H68.5624ZM81.9458 139.521V142.927H83.5578V143.967H81.9458V147.269H80.6718V139.521H81.9458ZM72.8718 145.969C74.1371 145.969 75.1208 145.96 75.8228 145.943V145.163C75.1728 145.094 74.6614 144.916 74.2888 144.63C73.9161 144.335 73.7298 143.958 73.7298 143.499C73.7298 142.979 73.9768 142.567 74.4708 142.264C74.9648 141.952 75.6234 141.796 76.4468 141.796C77.2788 141.796 77.9418 141.952 78.4358 142.264C78.9298 142.567 79.1768 142.979 79.1768 143.499C79.1768 143.958 78.9904 144.335 78.6178 144.63C78.2451 144.916 77.7381 145.094 77.0968 145.163V145.891C78.2408 145.83 79.2288 145.744 80.0608 145.631L80.1648 146.528C79.0901 146.719 77.9981 146.84 76.8888 146.892C75.7794 146.944 74.4924 146.974 73.0278 146.983L72.8718 145.969ZM81.9458 147.802V151.013H80.6718V148.803H74.3018V147.802H81.9458ZM75.8228 140.47V139.417H77.0968V140.47H79.7358V141.419H73.1578V140.47H75.8228ZM76.4468 142.641C75.9788 142.641 75.6104 142.719 75.3418 142.875C75.0731 143.022 74.9388 143.23 74.9388 143.499C74.9388 143.759 75.0731 143.967 75.3418 144.123C75.6104 144.279 75.9788 144.357 76.4468 144.357C76.9148 144.357 77.2831 144.279 77.5518 144.123C77.8291 143.967 77.9678 143.759 77.9678 143.499C77.9678 143.23 77.8291 143.022 77.5518 142.875C77.2831 142.719 76.9148 142.641 76.4468 142.641ZM93.5421 139.521V147.854H92.2551V139.521H93.5421ZM87.3151 147.022V149.739H93.8671V150.779H86.0541V147.022H87.3151ZM87.3281 140.288C87.9001 140.288 88.4157 140.409 88.8751 140.652C89.3431 140.895 89.7071 141.237 89.9671 141.679C90.2357 142.112 90.3701 142.606 90.3701 143.161C90.3701 143.698 90.2357 144.188 89.9671 144.63C89.7071 145.063 89.3431 145.406 88.8751 145.657C88.4157 145.9 87.9001 146.021 87.3281 146.021C86.7647 146.021 86.2491 145.9 85.7811 145.657C85.3217 145.406 84.9577 145.063 84.6891 144.63C84.4204 144.188 84.2861 143.698 84.2861 143.161C84.2861 142.606 84.4204 142.112 84.6891 141.679C84.9577 141.237 85.3217 140.895 85.7811 140.652C86.2404 140.409 86.7561 140.288 87.3281 140.288ZM87.3281 141.393C86.8081 141.393 86.3747 141.558 86.0281 141.887C85.6901 142.208 85.5211 142.632 85.5211 143.161C85.5211 143.672 85.6944 144.093 86.0411 144.422C86.3877 144.743 86.8167 144.903 87.3281 144.903C87.8481 144.903 88.2771 144.743 88.6151 144.422C88.9617 144.093 89.1351 143.672 89.1351 143.161C89.1351 142.632 88.9617 142.208 88.6151 141.887C88.2771 141.558 87.8481 141.393 87.3281 141.393ZM97.3384 141.393V139.82H98.5994V141.393H100.77V142.407H95.1414V141.393H97.3384ZM97.9624 143.096C98.439 143.096 98.868 143.209 99.2494 143.434C99.6307 143.659 99.9254 143.976 100.133 144.383C100.35 144.782 100.458 145.237 100.458 145.748C100.458 146.268 100.35 146.732 100.133 147.139C99.9254 147.546 99.6307 147.863 99.2494 148.088C98.868 148.313 98.439 148.426 97.9624 148.426C97.4857 148.426 97.0567 148.313 96.6754 148.088C96.3027 147.863 96.008 147.546 95.7914 147.139C95.5834 146.732 95.4794 146.268 95.4794 145.748C95.4794 145.237 95.5834 144.782 95.7914 144.383C96.008 143.976 96.3027 143.659 96.6754 143.434C97.0567 143.209 97.4857 143.096 97.9624 143.096ZM97.9624 144.149C97.5724 144.149 97.2474 144.301 96.9874 144.604C96.736 144.899 96.6104 145.28 96.6104 145.748C96.6104 146.233 96.736 146.623 96.9874 146.918C97.2387 147.204 97.5637 147.347 97.9624 147.347C98.361 147.347 98.686 147.204 98.9374 146.918C99.1974 146.623 99.3274 146.233 99.3274 145.748C99.3274 145.28 99.1974 144.899 98.9374 144.604C98.686 144.301 98.361 144.149 97.9624 144.149ZM104.943 139.508V151.013H103.734V145.332H102.486V150.467H101.277V139.755H102.486V144.292H103.734V139.508H104.943ZM116.67 145.995V147.035H112.081V151.026H110.807V147.035H106.27V145.995H116.67ZM115.695 140.184V141.211H112.198C112.215 141.662 112.397 142.091 112.744 142.498C113.09 142.905 113.558 143.256 114.148 143.551C114.737 143.837 115.387 144.028 116.098 144.123L115.617 145.15C114.672 145.003 113.831 144.708 113.095 144.266C112.358 143.815 111.816 143.269 111.47 142.628C111.132 143.269 110.594 143.815 109.858 144.266C109.121 144.708 108.276 145.003 107.323 145.15L106.842 144.123C107.552 144.028 108.202 143.837 108.792 143.551C109.381 143.256 109.849 142.905 110.196 142.498C110.551 142.091 110.737 141.662 110.755 141.211H107.232V140.184H115.695ZM123.612 143.525V139.742H124.808V150.454H123.612V144.578H121.896V143.525H123.612ZM120.869 140.574V142.602C120.869 143.59 121.06 144.517 121.441 145.384C121.831 146.242 122.394 146.901 123.131 147.36L122.403 148.348C121.9 148.036 121.467 147.616 121.103 147.087C120.748 146.558 120.47 145.952 120.271 145.267C120.054 146.012 119.751 146.675 119.361 147.256C118.98 147.828 118.52 148.279 117.983 148.608L117.19 147.646C117.97 147.187 118.572 146.498 118.997 145.579C119.422 144.66 119.634 143.685 119.634 142.654V140.574H120.869ZM127.174 139.508V151.013H125.952V139.508H127.174ZM130.931 148.543V145.54C130.463 145.28 130.099 144.946 129.839 144.539C129.579 144.132 129.449 143.677 129.449 143.174C129.449 142.576 129.631 142.047 129.995 141.588C130.359 141.129 130.858 140.778 131.49 140.535C132.132 140.284 132.86 140.158 133.674 140.158C134.489 140.158 135.217 140.284 135.858 140.535C136.5 140.778 136.998 141.129 137.353 141.588C137.717 142.047 137.899 142.576 137.899 143.174C137.899 143.677 137.769 144.132 137.509 144.539C137.258 144.938 136.898 145.271 136.43 145.54V148.543H138.9V149.583H128.474V148.543H130.931ZM133.674 141.172C132.79 141.172 132.071 141.354 131.516 141.718C130.97 142.073 130.697 142.559 130.697 143.174C130.697 143.789 130.97 144.279 131.516 144.643C132.071 144.998 132.79 145.176 133.674 145.176C134.558 145.176 135.273 144.994 135.819 144.63C136.374 144.266 136.651 143.781 136.651 143.174C136.651 142.567 136.374 142.082 135.819 141.718C135.273 141.354 134.558 141.172 133.674 141.172ZM135.156 148.543V146.021C134.706 146.125 134.212 146.177 133.674 146.177C133.154 146.177 132.665 146.125 132.205 146.021V148.543H135.156ZM140.604 148.751C140.82 148.751 140.998 148.82 141.137 148.959C141.275 149.098 141.345 149.275 141.345 149.492C141.345 149.717 141.275 149.899 141.137 150.038C140.998 150.185 140.82 150.259 140.604 150.259C140.378 150.259 140.192 150.185 140.045 150.038C139.906 149.899 139.837 149.717 139.837 149.492C139.837 149.275 139.906 149.098 140.045 148.959C140.192 148.82 140.378 148.751 140.604 148.751Z" fill="#4D5358"/>
</svg>
