<svg width="169" height="92" viewBox="0 0 169 92" fill="none" xmlns="http://www.w3.org/2000/svg">
<ellipse cx="84.364" cy="84.0421" rx="42.7198" ry="7.15683" fill="url(#paint0_linear_1681_5580)"/>
<path fill-rule="evenodd" clip-rule="evenodd" d="M87.7119 18.0197C87.449 18.001 87.2462 17.774 87.2768 17.5122C87.543 15.2375 88.6454 11.8044 91.6896 10.2031C94.0797 8.94589 95.6476 8.51733 96.7115 8.22654C97.6773 7.96257 98.2276 7.81214 98.6005 7.25847C99.3842 6.09485 98.2443 4.85996 95.5371 5.76235C92.83 6.66475 88.0341 8.31086 86.0848 12.5676C85.2332 14.4271 84.7461 16.1736 84.4837 17.553C84.4413 17.7758 84.2487 17.9405 84.0221 17.948C67.3789 18.496 54.6154 31.0894 54.5365 47.8084C54.5349 48.1549 54.8988 48.3808 55.2116 48.2316C63.5849 44.2377 74.0911 41.861 85.4978 41.861C96.8721 41.861 107.351 44.2242 115.713 48.1976C116.036 48.3514 116.409 48.1038 116.388 47.7461C115.359 30.5629 103.411 19.138 87.7119 18.0197Z" fill="#69CAF3"/>
<path d="M97.254 3.82984C97.2232 3.19273 98.0531 2.92257 98.4034 3.45568C98.6282 3.79793 99.1155 3.83601 99.3908 3.53285C99.8196 3.06062 100.597 3.45642 100.468 4.08102C100.385 4.48201 100.703 4.85355 101.112 4.83383C101.749 4.8031 102.019 5.63301 101.486 5.98322C101.144 6.20806 101.106 6.69541 101.409 6.97068C101.881 7.39946 101.485 8.17732 100.861 8.04799C100.46 7.96497 100.088 8.28264 100.108 8.69166C100.139 9.32877 99.3086 9.59893 98.9584 9.06582C98.7336 8.72357 98.2462 8.68548 97.9709 8.98865C97.5422 9.46088 96.7643 9.06507 96.8936 8.44047C96.9767 8.03949 96.659 7.66795 96.25 7.68767C95.6129 7.7184 95.3427 6.88848 95.8758 6.53827C96.2181 6.31344 96.2561 5.82609 95.953 5.55082C95.4807 5.12204 95.8766 4.34417 96.5012 4.4735C96.9021 4.55653 97.2737 4.23885 97.254 3.82984Z" fill="#69CAF3"/>
<ellipse cx="83.3419" cy="28.7322" rx="1.37542" ry="1.72798" transform="rotate(7.85593 83.3419 28.7322)" fill="#262626"/>
<ellipse opacity="0.2" cx="76.7436" cy="32.9827" rx="5.22441" ry="5.22332" fill="#F4F4F4"/>
<ellipse cx="87.9892" cy="28.7322" rx="1.37542" ry="1.72798" transform="rotate(-10.7713 87.9892 28.7322)" fill="#262626"/>
<ellipse opacity="0.2" cx="94.5911" cy="32.9827" rx="5.22441" ry="5.22332" fill="#F4F4F4"/>
<ellipse cx="61.1594" cy="55.1778" rx="6.62116" ry="6.62117" fill="#69CAF3"/>
<ellipse cx="77.3426" cy="51.5933" rx="6.62116" ry="6.62117" fill="#69CAF3"/>
<ellipse cx="93.5299" cy="51.5933" rx="6.62116" ry="6.62117" fill="#69CAF3"/>
<ellipse cx="109.717" cy="55.4486" rx="6.62116" ry="6.62117" fill="#69CAF3"/>
<path fill-rule="evenodd" clip-rule="evenodd" d="M80.9337 79.3617C80.9141 79.6829 80.6557 79.9379 80.3342 79.9532L53.6543 81.229C53.3947 81.2414 53.1523 81.0939 53.0561 80.8525C52.5701 79.6321 52.3031 78.3028 52.3031 76.9119C52.3031 70.968 57.1781 66.1496 63.1918 66.1496C64.9434 66.1496 66.5985 66.5584 68.0646 67.2848C68.4392 67.4704 68.9035 67.282 69.0117 66.8782L70.026 63.095C70.0953 62.8367 70.3199 62.6501 70.5866 62.6295L81.2885 61.8017C81.6703 61.7722 81.9901 62.0869 81.9667 62.4691L80.9337 79.3617Z" fill="#69CAF3"/>
<path fill-rule="evenodd" clip-rule="evenodd" d="M87.7597 82.0767C87.8127 82.3942 88.0962 82.6208 88.4176 82.6026L115.085 81.0892C115.345 81.0744 115.57 80.9025 115.641 80.6523C115.997 79.3879 116.124 78.038 115.979 76.6547C115.359 70.7432 110.008 66.4595 104.027 67.0866C102.285 67.2692 100.682 67.8484 99.2992 68.7237C98.946 68.9473 98.4646 68.8084 98.3149 68.4181L96.9116 64.7613C96.8158 64.5116 96.5729 64.3495 96.3055 64.3568L85.5757 64.6495C85.1929 64.66 84.9077 65.0063 84.9708 65.384L87.7597 82.0767Z" fill="#69CAF3"/>
<path d="M82.9511 34.2186C82.9511 33.504 83.1583 32.9602 83.5726 32.5873C83.9973 32.2041 84.6291 32.0125 85.468 32.0125C86.307 32.0125 86.9336 32.2092 87.3479 32.6028C87.7726 32.9964 87.9849 33.535 87.9849 34.2186C87.9849 34.8297 87.7881 35.3631 87.3946 35.8189H87.5655C88.0523 35.8189 88.4925 35.7567 88.8861 35.6324C89.2796 35.5082 89.6007 35.3217 89.8493 35.0731C89.9425 34.9799 90.0409 34.9126 90.1445 34.8712C90.2481 34.8194 90.3724 34.7935 90.5174 34.7935C90.7867 34.7935 90.9835 34.8712 91.1078 35.0265C91.2424 35.1819 91.3097 35.3735 91.3097 35.6014C91.3097 35.9328 91.1906 36.2073 90.9524 36.4248C90.7245 36.6527 90.4345 36.8339 90.0824 36.9686C89.7406 37.1136 89.3625 37.2172 88.9482 37.2793C88.5442 37.3415 88.1714 37.3725 87.8296 37.3725C86.9906 37.3725 86.2034 37.2534 85.468 37.0152C84.7223 37.2534 83.9351 37.3725 83.1065 37.3725C82.7647 37.3725 82.3866 37.3415 81.9723 37.2793C81.5684 37.2172 81.1903 37.1136 80.8382 36.9686C80.4964 36.8339 80.2064 36.6527 79.9681 36.4248C79.7403 36.2073 79.6263 35.9328 79.6263 35.6014C79.6263 35.3735 79.6885 35.1819 79.8128 35.0265C79.9474 34.8712 80.1494 34.7935 80.4187 34.7935C80.5637 34.7935 80.688 34.8194 80.7916 34.8712C80.8952 34.9126 80.9935 34.9799 81.0868 35.0731C81.3353 35.3217 81.6564 35.5133 82.05 35.648C82.4436 35.7723 82.8838 35.8292 83.3706 35.8189H83.5415C83.3551 35.6014 83.2101 35.358 83.1065 35.0887C83.0029 34.8194 82.9511 34.5294 82.9511 34.2186ZM84.8932 34.2808C84.8932 34.5086 84.945 34.7106 85.0486 34.8867C85.1521 35.0524 85.292 35.1922 85.468 35.3062C85.6441 35.1922 85.7839 35.0524 85.8875 34.8867C85.9911 34.7106 86.0429 34.5086 86.0429 34.2808C86.0429 34.0322 85.9911 33.8561 85.8875 33.7525C85.7839 33.649 85.6441 33.5972 85.468 33.5972C85.292 33.5972 85.1521 33.649 85.0486 33.7525C84.945 33.8561 84.8932 34.0322 84.8932 34.2808Z" fill="#262626"/>
<g opacity="0.6">
<path d="M26.0263 66.4952C26.0263 70.1471 23.0658 73.1076 19.4139 73.1076C15.762 73.1076 12.8015 70.1471 12.8015 66.4952C12.8015 62.8433 15.762 59.8828 19.4139 59.8828C23.0658 59.8828 26.0263 62.8433 26.0263 66.4952Z" fill="#69CAF3"/>
<path d="M168.729 23.3931C168.729 25.3544 167.139 26.9443 165.178 26.9443C163.217 26.9443 161.627 25.3544 161.627 23.3931C161.627 21.4318 163.217 19.8419 165.178 19.8419C167.139 19.8419 168.729 21.4318 168.729 23.3931Z" fill="#69CAF3"/>
<path d="M32.9992 9.87796C33.8965 10.0274 34.5956 10.7377 34.7307 11.6373L35.6473 17.7389C35.7824 18.6385 35.3229 19.5228 34.5091 19.9293L28.9895 22.6865C28.1757 23.093 27.1926 22.9293 26.5545 22.2809L22.2266 17.8834C21.5885 17.2351 21.4405 16.2496 21.8599 15.4423L24.7047 9.96731C25.1242 9.16008 26.0157 8.71475 26.9131 8.86421L32.9992 9.87796Z" fill="#FE9641"/>
<path d="M141.14 39.9198C141.864 40.0321 142.434 40.5979 142.551 41.3215L143.345 46.2289C143.463 46.9525 143.1 47.6691 142.449 48.0041L138.027 50.2759C137.375 50.6109 136.581 50.4879 136.061 49.9714L132.534 46.468C132.014 45.9515 131.886 45.1588 132.216 44.5047L134.458 40.0676C134.789 39.4134 135.503 39.0465 136.227 39.1587L141.14 39.9198Z" fill="#FE9641"/>
<path d="M137.457 71.1698C137.744 71.7279 137.638 72.4069 137.196 72.8517L134.196 75.8687C133.754 76.3136 133.076 76.423 132.516 76.1399L128.72 74.2195C128.16 73.9363 127.846 73.325 127.943 72.7051L128.596 68.5012C128.692 67.8814 129.177 67.3941 129.796 67.2942L133.996 66.6165C134.615 66.5166 135.229 66.8267 135.515 67.3848L137.457 71.1698Z" fill="#FE9641"/>
<path d="M165.195 37.7105C165.859 38.6613 165.627 39.9703 164.676 40.6344L159.024 44.5816C158.074 45.2456 156.765 45.0132 156.101 44.0624L152.153 38.4108C151.489 37.4601 151.722 36.151 152.673 35.487L158.324 31.5398C159.275 30.8757 160.584 31.1082 161.248 32.0589L165.195 37.7105Z" fill="#71CC63"/>
<path d="M5.95589 40.0203C5.68243 40.5297 5.0478 40.7209 4.53841 40.4474L1.51048 38.8219C1.00108 38.5484 0.809829 37.9138 1.08329 37.4044L2.70883 34.3765C2.9823 33.8671 3.61693 33.6758 4.12632 33.9493L7.15425 35.5748C7.66365 35.8483 7.8549 36.4829 7.58143 36.9923L5.95589 40.0203Z" fill="#71CC63"/>
<path d="M44.9759 31.8476C44.4174 31.9972 43.8434 31.6658 43.6938 31.1073L42.8043 27.7877C42.6546 27.2293 42.9861 26.6553 43.5445 26.5056L46.8641 25.6161C47.4225 25.4665 47.9966 25.7979 48.1462 26.3564L49.0357 29.676C49.1853 30.2344 48.8539 30.8084 48.2954 30.9581L44.9759 31.8476Z" fill="#71CC63"/>
<path d="M132.555 4.21856C132.981 3.58124 133.969 3.80241 134.083 4.56089L134.609 8.05432C134.658 8.38041 134.893 8.64761 135.211 8.73745L138.61 9.69993C139.348 9.90889 139.443 10.9164 138.757 11.2594L135.597 12.839C135.302 12.9865 135.12 13.2929 135.133 13.6224L135.268 17.1526C135.297 17.9191 134.368 18.3206 133.83 17.7741L131.351 15.257C131.12 15.022 130.773 14.9442 130.463 15.058L127.147 16.2773C126.427 16.542 125.759 15.7827 126.112 15.1019L127.74 11.9666C127.892 11.6739 127.859 11.3194 127.655 11.0602L125.47 8.2836C124.996 7.68075 125.512 6.80994 126.268 6.93574L129.753 7.51512C130.079 7.5692 130.405 7.42792 130.589 7.15393L132.555 4.21856Z" fill="#FBE56A"/>
<path d="M33.9896 36.972C34.5774 36.4793 35.4638 36.9676 35.3615 37.7277L34.8906 41.229C34.8466 41.5558 34.998 41.8781 35.2775 42.053L38.2725 43.9268C38.9227 44.3336 38.7323 45.3274 37.9778 45.4651L34.5023 46.0991C34.1779 46.1583 33.9182 46.4019 33.8382 46.7218L32.9817 50.1492C32.7957 50.8933 31.7917 51.0194 31.4276 50.3442L29.7506 47.2348C29.594 46.9446 29.2822 46.7728 28.9532 46.7956L25.4289 47.0402C24.6637 47.0932 24.2336 46.1773 24.7631 45.6224L27.2021 43.0666C27.4298 42.828 27.4968 42.4783 27.3734 42.1725L26.0518 38.8962C25.7648 38.1849 26.5031 37.4928 27.1944 37.8249L30.3788 39.3548C30.676 39.4976 31.0293 39.4532 31.2821 39.2414L33.9896 36.972Z" fill="#FBE56A"/>
<path d="M40.8636 63.9612C40.9216 63.5433 41.4634 63.4156 41.7021 63.7634L42.8014 65.3657C42.904 65.5152 43.0847 65.5909 43.2632 65.5591L45.1763 65.2189C45.5917 65.145 45.8806 65.6207 45.6235 65.9552L44.4394 67.4959C44.3289 67.6397 44.3128 67.8349 44.3982 67.9949L45.3129 69.7092C45.5116 70.0814 45.1484 70.5032 44.7508 70.3621L42.9196 69.712C42.7487 69.6514 42.5581 69.6963 42.4323 69.827L41.0846 71.2268C40.792 71.5307 40.2786 71.3156 40.29 70.8939L40.3423 68.9515C40.3472 68.7701 40.2456 68.6027 40.0824 68.5235L38.3347 67.6743C37.9552 67.4899 38.0011 66.9352 38.4057 66.8157L40.2693 66.2652C40.4432 66.2139 40.571 66.0655 40.596 65.8858L40.8636 63.9612Z" fill="#FBE56A"/>
<path d="M157.462 59.9915C157.52 59.5736 158.062 59.4458 158.3 59.7937L159.4 61.3959C159.502 61.5455 159.683 61.6212 159.862 61.5894L161.775 61.2492C162.19 61.1753 162.479 61.651 162.222 61.9855L161.038 63.5262C160.927 63.67 160.911 63.8652 160.997 64.0252L161.911 65.7395C162.11 66.1117 161.747 66.5335 161.349 66.3924L159.518 65.7423C159.347 65.6816 159.156 65.7266 159.031 65.8573L157.683 67.257C157.39 67.5609 156.877 67.3459 156.888 66.9241L156.941 64.9817C156.946 64.8004 156.844 64.633 156.681 64.5537L154.933 63.7045C154.554 63.5202 154.6 62.9655 155.004 62.8459L156.868 62.2955C157.042 62.2441 157.169 62.0957 157.194 61.9161L157.462 59.9915Z" fill="#FBE56A"/>
</g>
<defs>
<linearGradient id="paint0_linear_1681_5580" x1="84.364" y1="89.5564" x2="84.364" y2="75.4451" gradientUnits="userSpaceOnUse">
<stop stop-color="#4D5358"/>
<stop offset="1" stop-color="#393939"/>
</linearGradient>
</defs>
</svg>
