<svg width="19" height="18" viewBox="0 0 19 18" fill="none" xmlns="http://www.w3.org/2000/svg">
<path d="M16.4655 5.07001L13.938 15.2175C13.758 15.975 13.083 16.5 12.303 16.5H2.44798C1.31548 16.5 0.505492 15.39 0.842992 14.3025L4.00049 4.16254C4.21799 3.45754 4.8705 2.96997 5.6055 2.96997H14.8305C15.543 2.96997 16.1355 3.40497 16.383 4.00497C16.5255 4.32747 16.5555 4.69501 16.4655 5.07001Z" stroke="#4D5358" stroke-width="1.2" stroke-miterlimit="10"/>
<path d="M12.018 16.5H15.603C16.5705 16.5 17.328 15.6825 17.2605 14.715L16.518 4.5" stroke="#4D5358" stroke-width="1.2" stroke-miterlimit="10" stroke-linecap="round" stroke-linejoin="round"/>
<path d="M7.27777 4.78488L8.05778 1.54492" stroke="#4D5358" stroke-width="1.2" stroke-miterlimit="10" stroke-linecap="round" stroke-linejoin="round"/>
<path d="M12.3029 4.79233L13.0079 1.53735" stroke="#4D5358" stroke-width="1.2" stroke-miterlimit="10" stroke-linecap="round" stroke-linejoin="round"/>
<path d="M5.79303 9H11.793" stroke="#4D5358" stroke-width="1.2" stroke-miterlimit="10" stroke-linecap="round" stroke-linejoin="round"/>
<path d="M5.04303 12H11.043" stroke="#4D5358" stroke-width="1.2" stroke-miterlimit="10" stroke-linecap="round" stroke-linejoin="round"/>
</svg>
