<svg width="16" height="16" viewBox="0 0 16 16" fill="none" xmlns="http://www.w3.org/2000/svg">
<path d="M10.6666 1.33325H5.33325C2.66659 1.33325 1.33325 2.66659 1.33325 5.33325V13.9999C1.33325 14.3666 1.63325 14.6666 1.99992 14.6666H10.6666C13.3333 14.6666 14.6666 13.3333 14.6666 10.6666V5.33325C14.6666 2.66659 13.3333 1.33325 10.6666 1.33325Z" stroke="#878D96" stroke-linecap="round" stroke-linejoin="round"/>
<path d="M8.60661 5.22652L5.14661 8.68652C5.01328 8.81986 4.88661 9.07986 4.85995 9.26653L4.67328 10.5865C4.60661 11.0665 4.93994 11.3999 5.41994 11.3332L6.73993 11.1465C6.9266 11.1199 7.18662 10.9932 7.31995 10.8599L10.78 7.39986C11.3733 6.80652 11.66 6.11319 10.78 5.23319C9.89995 4.34652 9.20661 4.62652 8.60661 5.22652Z" stroke="#878D96" stroke-miterlimit="10" stroke-linecap="round" stroke-linejoin="round"/>
<path d="M8.11328 5.71997C8.40661 6.76664 9.22661 7.5933 10.2799 7.88664" stroke="#878D96" stroke-miterlimit="10" stroke-linecap="round" stroke-linejoin="round"/>
</svg>
