<svg width="57" height="58" viewBox="0 0 57 58" fill="none" xmlns="http://www.w3.org/2000/svg">
<path d="M18.541 11.8337C18.3261 7.37908 24.1288 5.49017 26.5774 9.21759C28.1494 11.6106 31.5569 11.8769 33.4815 9.75715C36.4795 6.45538 41.9182 9.22281 41.014 13.5899C40.4335 16.3936 42.6546 18.9913 45.5144 18.8534C49.969 18.6386 51.8579 24.4412 48.1305 26.8899C45.7375 28.4619 45.4712 31.8693 47.5909 33.794C50.8927 36.7919 48.1253 42.2307 43.7582 41.3264C40.9545 40.7459 38.3567 42.9671 38.4947 45.8269C38.7095 50.2815 32.9068 52.1704 30.4582 48.4429C28.8862 46.05 25.4788 45.7837 23.5541 47.9034C20.5561 51.2052 15.1174 48.4377 16.0216 44.0706C16.6022 41.2669 14.381 38.6692 11.5212 38.8071C7.06663 39.0219 5.17772 33.2193 8.90514 30.7707C11.2981 29.1987 11.5644 25.7912 9.4447 23.8665C6.14293 20.8686 8.91036 15.4298 13.2775 16.3341C16.0811 16.9146 18.6789 14.6935 18.541 11.8337Z" fill="#C6EEFF"/>
<path d="M28.7335 33.2918C28.7335 33.5812 28.6355 33.8192 28.4395 34.0058C28.2529 34.1925 28.0102 34.2858 27.7115 34.2858C27.4129 34.2858 27.1655 34.1925 26.9695 34.0058C26.7829 33.8192 26.6895 33.5812 26.6895 33.2918C26.6895 33.0025 26.7829 32.7645 26.9695 32.5778C27.1655 32.3912 27.4129 32.2978 27.7115 32.2978C28.0102 32.2978 28.2529 32.3912 28.4395 32.5778C28.6355 32.7645 28.7335 33.0025 28.7335 33.2918ZM28.6355 30.3098C28.6355 30.5338 28.5562 30.7158 28.3975 30.8558C28.2482 30.9958 28.0195 31.0658 27.7115 31.0658C27.4035 31.0658 27.1702 30.9958 27.0115 30.8558C26.8622 30.7158 26.7875 30.5338 26.7875 30.3098V29.4278C26.7875 29.0638 26.8249 28.7698 26.8995 28.5458C26.9835 28.3125 27.1282 28.1445 27.3335 28.0418C28.0149 27.7152 28.5049 27.3978 28.8035 27.0898C29.1022 26.7818 29.2515 26.4412 29.2515 26.0678C29.2515 25.9278 29.2329 25.7878 29.1955 25.6478C29.1582 25.5078 29.0929 25.3818 28.9995 25.2698C28.9155 25.1578 28.7942 25.0692 28.6355 25.0038C28.4769 24.9385 28.2762 24.9058 28.0335 24.9058C27.7349 24.9058 27.4642 24.9898 27.2215 25.1578C26.9789 25.3165 26.8015 25.6152 26.6895 26.0538C26.6429 26.2498 26.5402 26.3992 26.3815 26.5018C26.2322 26.6045 26.0549 26.6558 25.8495 26.6558C25.6442 26.6558 25.4622 26.5952 25.3035 26.4738C25.1449 26.3525 25.0655 26.1658 25.0655 25.9138C25.0655 25.5125 25.1449 25.1532 25.3035 24.8358C25.4622 24.5185 25.6815 24.2525 25.9615 24.0378C26.2415 23.8138 26.5682 23.6458 26.9415 23.5338C27.3242 23.4125 27.7349 23.3518 28.1735 23.3518C29.1535 23.3518 29.8862 23.5852 30.3715 24.0518C30.8569 24.5185 31.0995 25.1905 31.0995 26.0678C31.0995 27.1972 30.4089 28.1445 29.0275 28.9098C28.9529 28.9565 28.8875 29.0032 28.8315 29.0498C28.7849 29.0872 28.7475 29.1385 28.7195 29.2038C28.6915 29.2598 28.6682 29.3345 28.6495 29.4278C28.6402 29.5212 28.6355 29.6425 28.6355 29.7918V30.3098Z" fill="#393939"/>
</svg>
