<svg width="73" height="25" viewBox="0 0 73 25" fill="none" xmlns="http://www.w3.org/2000/svg">
<path d="M15.3677 16.9546C15.1564 16.8545 14.9132 16.8286 14.644 16.8862C14.3447 16.9504 14.0916 17.0833 13.9272 17.3179C13.7815 17.5261 13.7518 17.7926 13.7974 18.0972H13.769L13.8071 18.2603C13.8807 18.5728 14.0042 18.841 14.1919 19.0757L14.2759 19.1743L14.2798 19.1792C14.5104 19.4098 14.7849 19.5994 15.1226 19.7261L15.1987 19.7554L15.2583 19.7007C15.5116 19.4685 15.7028 19.1926 15.8296 18.8755C15.9597 18.5501 15.9792 18.2265 15.9165 17.8501L15.9155 17.8442L15.8823 17.7036C15.7995 17.3872 15.6746 17.1547 15.4644 17.0073V17.0063L15.4565 17.0015L15.3677 16.9546ZM13.8003 4.28955C14.2199 4.2133 14.5714 4.23363 14.8608 4.34131H14.8618C15.1012 4.43709 15.2825 4.68419 15.3579 5.11768L15.3628 5.1167C15.4089 5.41345 15.3692 5.62549 15.2749 5.78271C15.1703 5.9571 15.0113 6.10055 14.7915 6.21045L14.7036 6.25439L14.7212 6.35205C14.9301 7.516 15.0845 8.3867 15.2388 9.25732L15.7554 12.1636C15.809 12.5076 15.7365 12.8048 15.5269 13.0493C15.3151 13.2963 14.9496 13.4855 14.3862 13.6021C13.6874 13.7377 13.2019 13.6524 12.8892 13.3745L12.8208 13.314L12.7407 13.356C12.2229 13.6222 11.6933 13.8553 11.1685 14.064L10.647 14.2642C9.93718 14.5205 9.14616 14.7381 8.25244 14.9565L8.25146 14.9575C7.46155 15.155 6.77823 15.2512 6.21826 15.2319H6.21338C5.65499 15.2319 5.17704 15.1164 4.77783 14.9263C4.4278 14.7596 4.15186 14.5503 3.92334 14.2974L3.82861 14.186C3.58247 13.8633 3.41056 13.5012 3.29541 13.0981L3.29443 13.0952C3.11899 12.5297 3.00152 11.8653 2.98193 11.1812C2.96239 10.4774 3.04146 9.81326 3.21729 9.14893L3.27588 8.92432L3.05322 8.98779C2.70419 9.08752 2.40742 9.09729 2.15967 9.03857L2.05615 9.00928L2.0542 9.0083L1.9585 8.97119C1.74425 8.86989 1.5826 8.66234 1.48486 8.3042C1.37103 7.88679 1.4195 7.58381 1.59424 7.39307C1.76781 7.20371 2.03045 7.03607 2.37451 6.92041L2.52686 6.87354C7.00107 5.64064 9.24668 5.12471 13.8003 4.28955ZM19.0269 2.91748C19.6353 2.83897 20.0769 2.88284 20.3765 3.05908C20.6835 3.23973 20.8543 3.48387 20.8892 3.81494V3.81787L21.2876 6.9624L21.3901 6.94873L21.3989 7.07764H21.5688L21.5659 7.05811C21.8913 7.01809 22.1547 6.98779 22.4185 6.95752C22.7206 6.92285 23.0234 6.88688 23.4194 6.8374L23.4204 6.83838C23.8453 6.79975 24.1744 6.83988 24.4409 6.98193V6.98291L24.4478 6.98584C24.6833 7.09597 24.8315 7.35507 24.8696 7.79248C24.9076 8.2294 24.8091 8.51194 24.6021 8.67139C24.3675 8.85178 24.074 8.96516 23.6538 9.02295C22.856 9.10273 22.4739 9.16311 21.6812 9.26221L21.5503 9.27881L21.5659 9.40967C21.7251 10.723 21.8046 11.3807 21.9839 12.6753C22.0186 13.0143 21.9308 13.2939 21.7192 13.5425C21.4906 13.7886 21.1281 13.9412 20.5835 14.019C20.0443 14.096 19.6399 14.0354 19.356 13.8765C19.0734 13.6988 18.9156 13.4545 18.8618 13.1138C18.5833 11.353 18.3793 10.0347 18.1753 8.71631C17.9713 7.39789 17.7674 6.07927 17.4888 4.31787C17.4353 3.97955 17.523 3.6842 17.77 3.43701C18.0215 3.18557 18.4285 2.99476 19.0269 2.91748ZM11.2427 6.95557C9.36944 7.3342 8.45177 7.55329 6.6001 8.01123L6.52783 8.02881L6.50537 8.1001C6.32422 8.68379 6.20196 9.27187 6.18115 9.88232C6.14069 10.4895 6.18091 11.0224 6.30518 11.478C6.43157 11.9414 6.66826 12.2921 7.04248 12.5122V12.5112C7.42171 12.7542 7.93434 12.7672 8.53271 12.6304H8.55811L8.57373 12.6265C9.23633 12.4658 9.85882 12.2645 10.4214 12.0435C10.9849 11.8221 11.5668 11.541 12.1665 11.2212L12.2544 11.1743L12.2339 11.0776C12.0648 10.2719 11.9403 9.66986 11.8159 9.06787C11.6915 8.46591 11.5671 7.86327 11.3979 7.05713L11.3706 6.9292L11.2427 6.95557ZM10.9429 18.7915L10.939 18.7759C10.6877 17.7323 10.8451 16.8801 11.3726 16.2017C11.9027 15.5201 12.843 15.0128 14.1987 14.7573H14.2007C15.5557 14.4824 16.6131 14.6046 17.3706 15.0591C18.0789 15.4841 18.5109 16.1595 18.7056 17.0718L18.7407 17.2573C18.8745 18.1602 18.7022 18.9831 18.2222 19.7515L18.0952 19.9536H18.3335C18.4501 19.9536 18.5314 19.9279 18.6177 19.9106C19.3807 19.7898 20.0676 19.5879 20.6772 19.2837L20.6782 19.2847C21.2917 18.9984 21.7636 18.6281 22.1343 18.1958L22.1353 18.1968C22.2734 18.039 22.3985 17.9172 22.5327 17.8501V17.8511L22.5435 17.8442C22.6812 17.7581 22.8589 17.7026 23.062 17.6841V17.6851L23.0679 17.6841C23.4803 17.6278 23.7554 17.7048 23.9565 17.8892C24.1706 18.0855 24.2962 18.3345 24.3325 18.6431C24.3878 19.104 24.2594 19.5261 23.9644 19.8765C23.6577 20.2405 23.2527 20.5689 22.7485 20.8403C22.2386 21.1149 21.6902 21.3497 21.0835 21.5259C20.4711 21.7037 19.8985 21.8413 19.3862 21.9399C18.1053 22.1567 16.8831 22.1774 15.6997 22.0591L15.6597 22.0542L15.6245 22.0737C14.5603 22.6452 13.4166 23.0786 12.1538 23.3745C11.6419 23.4926 11.0706 23.5918 10.4204 23.6509C9.79145 23.7098 9.18332 23.7096 8.61572 23.6509C8.05485 23.5929 7.55196 23.4379 7.10693 23.2251C6.68864 23.025 6.43093 22.6807 6.30029 22.2329V22.2319C6.20898 21.9211 6.22982 21.6375 6.35205 21.3931C6.47075 21.156 6.71282 20.9579 7.1001 20.8657L7.104 20.8647C7.30981 20.8086 7.51179 20.7914 7.67139 20.8091C7.8298 20.8267 7.98901 20.8787 8.1499 20.9858V20.9868L8.16064 20.9927C8.65755 21.2618 9.25409 21.4255 9.92725 21.4663C10.5998 21.5071 11.3296 21.4251 12.0757 21.2437L12.0747 21.2427C12.1259 21.2323 12.1678 21.2231 12.2065 21.2134C12.2462 21.2035 12.2834 21.1943 12.3296 21.1851L12.6265 21.1255L12.3813 20.9487C12.0346 20.6983 11.7256 20.3893 11.4751 20.0425C11.2307 19.7039 11.0591 19.3066 10.9429 18.8472V18.7915Z" fill="#393939" stroke="#FBE56A" stroke-width="0.264194"/>
<path d="M34.9163 13.7451C36.6557 13.7056 38.1539 13.9038 39.4124 14.2773C40.6763 14.6526 41.7188 15.1246 42.5413 15.6729L42.6438 15.7412L42.719 15.6445C42.9951 15.2895 43.2513 14.9933 43.4485 14.7764L43.4524 14.7725C43.6164 14.5756 43.8682 14.4827 44.219 14.501C44.5505 14.5194 44.8438 14.6291 45.1008 14.8311C45.3437 15.0219 45.4456 15.2588 45.428 15.5762V15.583C45.428 15.8269 45.3237 16.0789 45.1633 16.4199C45.0106 16.7252 44.7795 17.0529 44.4885 17.3633L44.4163 17.4414L44.4758 17.5283C44.7275 17.8961 44.9019 18.2643 45.0178 18.5928C45.1318 18.9159 45.168 19.216 45.1497 19.4541V19.457C45.1318 19.7759 44.9934 20.0092 44.7415 20.1436L44.7327 20.1484C44.5454 20.2688 44.3358 20.3312 44.1086 20.3467H43.8362C43.5207 20.3292 43.3002 20.1933 43.1438 19.9502C42.9645 19.6713 42.7466 19.3344 42.509 18.9385L42.4446 18.8311L42.3342 18.8887C41.4699 19.3405 40.4454 19.7162 39.2395 20.0127H39.2375C38.037 20.3276 36.6353 20.486 35.0305 20.5059C33.8199 20.5257 32.7719 20.4863 31.9055 20.3682C31.0395 20.2501 30.3359 20.0533 29.7727 19.8008C29.2141 19.5504 28.8156 19.2264 28.5325 18.8301C28.2499 18.4345 28.0973 18.0004 28.0393 17.4844C28.0012 16.9703 28.0958 16.4949 28.3049 16.0576C28.5088 15.6316 28.9038 15.2507 29.4485 14.9199C29.9914 14.5903 30.714 14.297 31.6174 14.1006L31.6204 14.0996C32.5235 13.8837 33.6281 13.7649 34.9153 13.7451H34.9163ZM34.9504 15.8887C34.4074 15.8888 33.9051 15.9291 33.4241 15.9893H33.4231C32.9608 16.0496 32.5381 16.1303 32.1956 16.2109L32.1887 16.2129C31.8432 16.3145 31.563 16.441 31.3625 16.6191C31.1698 16.7905 31.0397 17.0031 31.0598 17.2549H31.0588C31.0588 17.5116 31.2138 17.7284 31.4417 17.8652C31.6559 17.9938 31.9287 18.0981 32.2756 18.1797C32.5382 18.2414 32.833 18.2791 33.1584 18.3027L33.4944 18.3223H33.5002C33.9333 18.3223 34.4189 18.3396 34.9182 18.3232L34.9387 18.3428L34.9944 18.3418C36.3712 18.3218 37.5159 18.2224 38.4045 18.0205C39.2827 17.8209 40.0328 17.5993 40.6252 17.293L40.8342 17.1846L40.6331 17.0625C40.0609 16.7152 39.3311 16.4319 38.427 16.2109C37.5177 15.9887 36.3514 15.8687 34.9504 15.8887ZM28.1155 2.45996C34.5977 2.00262 37.8564 1.98352 44.3586 2.36133H44.3606C44.799 2.38043 45.129 2.49372 45.3606 2.67188L45.3635 2.6748C45.5883 2.83534 45.6852 3.09654 45.6672 3.53125C45.6339 3.91502 45.5161 4.16294 45.3411 4.29199L45.262 4.33984L45.2561 4.34375C45.0081 4.48544 44.6583 4.54376 44.2327 4.52441C39.1545 4.24564 36.6028 4.22623 31.5042 4.44531L31.4465 4.44824L31.4094 4.49121C31.1614 4.78054 30.9906 5.07587 30.9045 5.37695C30.8245 5.65711 30.7815 5.91039 30.801 6.14941H30.8C30.8 6.38602 30.8967 6.58777 31.0745 6.71484C31.1677 6.78143 31.2904 6.82127 31.4329 6.84277C31.5759 6.86434 31.7487 6.86842 31.9514 6.8584L31.9524 6.85938C33.0465 6.81959 34.1027 6.77856 35.0598 6.71875C36.0361 6.67887 36.9729 6.61974 37.9094 6.54004L37.9084 6.53906C38.8446 6.47928 39.8006 6.4008 40.7747 6.32129C41.2621 6.2815 41.7694 6.24194 42.2942 6.20215L43.9182 6.08301H44.6125C44.8345 6.12068 45.0168 6.17498 45.1975 6.26465V6.26562C45.3595 6.35564 45.5012 6.47996 45.5881 6.59961C45.6727 6.73556 45.7246 6.90594 45.7073 7.11426V7.11523C45.6895 7.36343 45.5806 7.61873 45.4133 7.8418C45.2428 8.04292 44.9827 8.16983 44.592 8.20703C43.4372 8.30659 42.3455 8.40628 41.3333 8.46582C40.8151 8.49571 40.3021 8.53061 39.7922 8.56543C39.2822 8.60026 38.7754 8.63523 38.2688 8.66504L38.1438 8.67188V10.1621L38.2756 10.1631C41.1781 10.183 42.6285 10.2426 45.5315 10.4414H45.5344C45.9275 10.4602 46.2368 10.5713 46.47 10.749H46.4709C46.6667 10.9123 46.7797 11.1824 46.7424 11.6113C46.709 11.9959 46.5899 12.2452 46.426 12.374L46.3538 12.4219L46.3508 12.4238C46.1019 12.5661 45.7923 12.6239 45.3938 12.5859H45.3899C38.3384 12.088 34.7694 12.1073 27.718 12.665H27.7161C27.3175 12.703 27.008 12.6452 26.759 12.5029C26.5317 12.373 26.3846 12.1234 26.3469 11.6904C26.309 11.2533 26.4077 10.9679 26.5989 10.8086C26.8106 10.6322 27.1203 10.5187 27.5217 10.4805L27.5208 10.4795C30.4227 10.241 31.8733 10.1827 34.7766 10.123L34.9055 10.1201V9.99121C34.9055 9.55284 34.906 9.351 34.886 8.91016L34.8792 8.77539L34.7444 8.78418C34.4557 8.80409 34.1678 8.82444 33.8801 8.8418L33.0178 8.88379C32.4369 8.88399 31.8169 8.92422 31.2024 8.96387L31.1018 8.96973L31.0813 9.06543C29.974 9.11004 29.1398 8.95368 28.5315 8.62305H28.5325C27.9273 8.26372 27.5954 7.78145 27.5208 7.15137H27.5217C27.4828 6.76188 27.4836 6.37737 27.5598 5.99609C27.6353 5.61888 27.8058 5.2365 28.0579 4.84863L28.1907 4.64453H27.9475C27.5956 4.64453 27.3448 4.55288 27.1506 4.41211C26.9722 4.26373 26.8622 4.02605 26.8245 3.65039H26.8254C26.788 3.2197 26.9018 2.93357 27.1125 2.77148C27.3442 2.5934 27.6742 2.48 28.1125 2.46094L28.1155 2.45996Z" fill="#393939" stroke="#FBE56A" stroke-width="0.264194"/>
<path d="M53.262 14.2197V14.2207C53.6556 14.2769 53.99 14.4255 54.2883 14.6865C54.5717 14.9345 54.6737 15.2256 54.6243 15.5537C54.5859 15.7263 54.5308 15.8849 54.4465 16.0029C54.3484 16.1403 54.2321 16.2956 54.0969 16.4502L54.092 16.457C53.946 16.6449 53.8215 16.8517 53.6995 17.0957C53.6031 17.2885 53.5333 17.5249 53.4788 17.792L53.429 18.0693C53.3859 18.3388 53.4119 18.5846 53.509 18.7988C53.6062 19.0132 53.7703 19.1864 53.9885 19.3174C54.4073 19.5686 55.1399 19.7692 56.1633 19.9473V19.9512C57.5414 20.1908 58.9192 20.3514 60.2961 20.4512C61.6706 20.5508 63.0649 20.6303 64.5178 20.71H64.5247C64.7278 20.71 64.9303 20.7465 65.1125 20.8193C65.3016 20.895 65.4711 20.9896 65.6204 21.1016C65.7538 21.2018 65.8399 21.3363 65.8928 21.4951C65.9422 21.6432 65.9452 21.8145 65.8909 22.0342C65.8174 22.2913 65.6905 22.5085 65.4915 22.6895C65.3074 22.8568 65.0475 22.9324 64.6663 22.9326C61.9384 22.8456 59.1494 22.592 56.2727 22.1572L55.0344 21.96C54.3411 21.8411 53.6883 21.7029 53.0959 21.5449C52.5096 21.3886 52.0048 21.1744 51.5803 20.9043C51.1583 20.6357 50.8371 20.3127 50.6106 19.8975C50.3862 19.4861 50.2889 18.9949 50.3274 18.3975V18.3965C50.3664 17.7133 50.5034 17.0898 50.7366 16.5068L50.7356 16.5059C50.9699 15.9403 51.2836 15.3937 51.675 14.8652L51.676 14.8643C51.8795 14.5869 52.1355 14.4049 52.4065 14.3145C52.6887 14.2204 52.9868 14.1833 53.262 14.2197ZM66.5491 5.35449C66.8704 5.21168 67.315 5.18688 67.9153 5.3418L67.9192 5.34277C68.5194 5.47832 68.9036 5.70542 69.1165 5.98926C69.3344 6.27982 69.4006 6.57664 69.3137 6.88965L69.3127 6.8916C69.0938 7.71781 68.9348 8.33525 68.7756 8.95215C68.6165 9.56897 68.4573 10.1855 68.2385 11.0107L68.1946 11.1768H68.3674C68.7474 11.2743 69.0366 11.3521 69.3264 11.4307C69.6191 11.51 69.9128 11.5892 70.3 11.6885V11.6895C70.7022 11.8044 70.9969 11.9728 71.1946 12.1885C71.3686 12.3783 71.4173 12.6802 71.2854 13.0947L71.2834 13.0996C71.17 13.5155 70.9739 13.7388 70.7219 13.8018L70.7122 13.8057C70.4819 13.8823 70.2017 13.8815 69.8645 13.8027L69.7161 13.7637C68.9581 13.5443 68.5581 13.4438 67.803 13.2451L67.675 13.2119L67.6409 13.3398C67.4219 14.166 67.2629 14.7835 67.1038 15.4004L66.5667 17.459C66.4768 17.8005 66.2807 18.0287 65.9963 18.1709C65.6957 18.3107 65.2938 18.3349 64.7776 18.2012C64.2489 18.0641 63.8879 17.8749 63.6965 17.6143C63.502 17.349 63.4481 17.0502 63.5198 16.7266C64.4948 12.4683 64.9919 10.3373 65.967 6.05859L65.968 6.05664C66.0384 5.72258 66.2273 5.4975 66.5491 5.35449ZM59.3801 8.40137C59.5741 8.51936 59.7402 8.66508 59.8596 8.83203V8.83301L59.8635 8.83789C60.4995 9.65269 60.7957 10.0676 61.4143 10.8857L61.4543 10.9385H61.468C61.726 11.3265 61.7144 11.7348 61.554 12.0928C61.3835 12.4728 61.0494 12.7873 60.7112 12.9336C60.3595 13.0869 59.9201 13.0818 59.51 12.9609C59.0993 12.8399 58.7387 12.609 58.5413 12.3398L58.5403 12.3379L57.7415 11.293C57.5822 11.0861 57.4205 10.8804 57.2356 10.6436C58.0837 10.0102 58.8046 9.25256 59.3801 8.40137ZM57.5374 3.4707C57.8962 3.34879 58.3804 3.32686 58.9348 3.48926C59.4543 3.64318 59.9116 3.91211 60.2092 4.2168C60.51 4.5248 60.6257 4.84323 60.5383 5.11328C60.4784 5.29326 60.4384 5.42358 60.3987 5.55273C60.3589 5.68196 60.3192 5.81072 60.26 5.98828V5.98926C60.0276 6.72082 59.7015 7.4139 59.2922 8.05566C59.1558 7.99208 59.013 7.93918 58.8665 7.90137C58.3804 7.77594 57.843 7.79441 57.3997 8.02148C56.5235 8.47026 56.1644 9.6322 56.7151 10.4043V10.4053L56.719 10.4102C56.7674 10.4718 56.8136 10.5315 56.8586 10.5889C55.6416 11.4447 54.1737 12.0491 52.51 12.3125L52.1301 12.3662C51.7698 12.4025 51.3092 12.3188 50.9133 12.1162C50.5167 11.9131 50.2033 11.6011 50.1057 11.1934H50.1018C49.9784 10.661 50.0906 10.2361 50.3235 9.92773C50.5615 9.61269 50.9325 9.40974 51.3313 9.34473L51.3303 9.34375C52.5576 9.1626 53.6808 8.78955 54.6047 8.08008C55.5307 7.369 56.2465 6.32808 56.6711 4.83203H56.6721L56.6731 4.82812C56.7122 4.67161 56.7457 4.55386 56.7805 4.43457C56.8151 4.31612 56.8508 4.19587 56.8909 4.03613C56.9547 3.81262 57.175 3.59381 57.5374 3.4707ZM57.5198 8.25684C57.8923 8.06601 58.3607 8.0439 58.8 8.15723C58.9192 8.18798 59.0348 8.22951 59.1448 8.27832C58.5879 9.09592 57.892 9.82495 57.0735 10.4355C57.0274 10.3767 56.9806 10.3152 56.9309 10.252C56.4874 9.63105 56.7646 8.64392 57.5198 8.25684Z" fill="#393939" stroke="#FBE56A" stroke-width="0.264194"/>
<path d="M13.6821 3.63916C14.1225 3.55914 14.5446 3.56056 14.9321 3.67041L15.0962 3.72412L15.1069 3.72803L15.2046 3.77197C15.6628 3.99999 15.9036 4.45964 15.9995 4.96338H16.0083C16.0828 5.38608 16.0447 5.78357 15.8413 6.12256C15.7332 6.30273 15.5943 6.4549 15.4321 6.58252C15.6104 7.57773 15.7506 8.36006 15.8892 9.14209C16.0434 10.0127 16.1969 10.8829 16.4058 12.0464L16.4077 12.0571C16.4881 12.5665 16.3809 13.0671 16.0278 13.479C15.8602 13.6745 15.6494 13.829 15.4058 13.9526C16.2894 13.9336 17.0674 14.1068 17.7104 14.4927C18.6086 15.0317 19.1263 15.8823 19.3511 16.9321L19.3921 17.144L19.394 17.1567C19.4958 17.8398 19.4446 18.4905 19.2456 19.1089C19.6618 19.0022 20.0415 18.8652 20.3862 18.6929L20.3921 18.689L20.3989 18.686C20.9294 18.4385 21.3262 18.1256 21.6343 17.7661L21.6382 17.7622C21.7733 17.6078 21.956 17.4138 22.1929 17.2837C22.4332 17.1335 22.7112 17.0558 22.9878 17.0288C23.524 16.9574 24.0155 17.0468 24.4028 17.4019C24.7399 17.7108 24.9338 18.1083 24.9878 18.5649L25.0044 18.8042C25.0153 19.3577 24.8298 19.8731 24.4692 20.3013C24.1038 20.7352 23.6322 21.1144 23.062 21.4214C22.5156 21.7156 21.9237 21.97 21.2671 22.1606C20.6364 22.3437 20.0434 22.4865 19.5083 22.5894L19.4966 22.5913C18.21 22.809 16.981 22.8355 15.7935 22.729C14.7176 23.2914 13.5667 23.7224 12.3052 24.0181H12.3032C11.7641 24.1425 11.163 24.2451 10.481 24.3071L10.4819 24.3081C9.81411 24.3707 9.16222 24.3717 8.54736 24.3081C7.90568 24.2417 7.33001 24.0639 6.82178 23.8208C6.20665 23.5266 5.84064 23.0149 5.6665 22.4185C5.53502 21.9711 5.55391 21.5128 5.76123 21.0981C5.98097 20.6587 6.39845 20.3578 6.93018 20.2271C6.93502 20.2257 6.93997 20.2244 6.94482 20.2231H6.94678C7.21267 20.1525 7.49285 20.1249 7.74463 20.1528C7.99128 20.1802 8.23599 20.2617 8.47412 20.4116H8.4751C8.87567 20.6286 9.37617 20.7713 9.96729 20.8071C10.349 20.8303 10.7591 20.8069 11.189 20.7437C11.1016 20.6423 11.0181 20.5374 10.9399 20.4292C10.6339 20.0053 10.4303 19.5225 10.2983 18.9946L10.2827 18.9312V18.8628C10.0166 17.6923 10.1896 16.6471 10.8521 15.7954C11.3973 15.0946 12.2442 14.5919 13.3257 14.2837C13.1234 14.246 12.9321 14.1814 12.7554 14.0835C12.1266 14.391 11.4913 14.6555 10.8755 14.8843L10.8706 14.8853C10.1286 15.1532 9.31205 15.3768 8.41064 15.5972C7.5906 15.8021 6.84133 15.9143 6.1958 15.8921V15.8911C5.55153 15.8887 4.98169 15.7544 4.49365 15.522C4.00443 15.2889 3.6237 14.9809 3.31592 14.6021L3.30615 14.5903C3.00423 14.1955 2.79866 13.7592 2.66357 13.2905C2.47049 12.668 2.34306 11.9441 2.32178 11.1997V11.1987C2.30785 10.6963 2.33982 10.2109 2.41748 9.73193C2.22336 9.72631 2.03603 9.69683 1.85693 9.63818V9.63916C1.85592 9.63884 1.85502 9.63753 1.854 9.63721C1.85186 9.6365 1.84931 9.63694 1.84717 9.63623V9.63525C1.30994 9.46326 0.997386 9.02483 0.848145 8.47803C0.706551 7.95885 0.712675 7.37794 1.10791 6.94678C1.40885 6.61854 1.84206 6.37606 2.35205 6.23682L3.94092 5.8042C7.44625 4.86375 9.67995 4.373 13.6812 3.63916H13.6821ZM14.7827 17.5327C14.588 17.5744 14.5074 17.641 14.4683 17.6968C14.4553 17.7152 14.4038 17.8114 14.4712 18.1147L14.5181 18.3267C14.5774 18.4811 14.6557 18.6089 14.7583 18.7222C14.8458 18.8083 14.9397 18.8846 15.0425 18.9507C15.1119 18.8516 15.1703 18.7454 15.2163 18.6304C15.2916 18.442 15.3116 18.2469 15.2661 17.9673C15.2031 17.6753 15.1323 17.5882 15.0952 17.5571C15.0253 17.5212 14.9301 17.5011 14.7827 17.5327ZM18.9429 2.26221C19.5936 2.17824 20.2182 2.19963 20.7114 2.48975C21.1745 2.76219 21.4868 3.17945 21.5464 3.74561H21.5454C21.6243 4.36718 21.6843 4.83725 21.7437 5.30713C21.7856 5.639 21.8277 5.97078 21.8765 6.35596C22.0403 6.33665 22.192 6.31863 22.3433 6.30127C22.6466 6.26645 22.9481 6.23152 23.3433 6.18213L23.3608 6.18018C23.8401 6.13661 24.3064 6.17178 24.7261 6.38721H24.7271C25.2762 6.64371 25.4801 7.19854 25.5269 7.73584C25.5738 8.27591 25.4689 8.83744 25.0044 9.19482C24.652 9.46588 24.2381 9.61013 23.7388 9.67822L23.729 9.6792L23.7202 9.68018C23.1239 9.7398 22.7712 9.78671 22.2847 9.8501C22.405 10.8397 22.4849 11.4777 22.6382 12.5845L22.6401 12.6021C22.6948 13.122 22.5523 13.5852 22.2173 13.9761L22.2036 13.9917C21.8246 14.3998 21.2842 14.5866 20.6772 14.6733C20.0538 14.7624 19.4855 14.707 19.0298 14.4507L19.019 14.4448L19.0093 14.439C18.6121 14.1907 18.3613 13.8413 18.2495 13.4077L18.2095 13.2173C17.9307 11.4551 17.7269 10.1354 17.5229 8.81689C17.319 7.49862 17.1149 6.18054 16.8364 4.42041C16.7518 3.88384 16.8993 3.37321 17.3032 2.96924C17.6903 2.58225 18.2526 2.35127 18.9429 2.26221ZM10.8589 7.70947C9.42206 8.00553 8.53902 8.21349 7.05518 8.57959C6.93365 9.02634 6.85611 9.46459 6.84131 9.90869V9.91748L6.84033 9.92627C6.8033 10.4821 6.84202 10.9379 6.94189 11.3042C7.02191 11.5976 7.14619 11.7785 7.30615 11.896L7.37744 11.9429L7.38721 11.9487L7.396 11.9546C7.55268 12.056 7.85284 12.1119 8.40186 11.9839L8.46143 11.9692H8.47705C9.08751 11.8184 9.66151 11.633 10.1802 11.4292C10.6053 11.2622 11.0459 11.0551 11.5054 10.8198C11.3763 10.2022 11.2728 9.70173 11.1694 9.20166C11.0731 8.73546 10.9759 8.26986 10.8589 7.70947Z" fill="#393939" stroke="#FBE56A" stroke-width="1.05678"/>
<path d="M35.5637 13.0811C37.0865 13.0981 38.4333 13.297 39.6008 13.6436C40.7188 13.9755 41.6861 14.3872 42.4983 14.8682C42.671 14.6596 42.8275 14.4781 42.9602 14.332L42.9612 14.333C43.2987 13.9408 43.7755 13.8167 44.2542 13.8418H44.2561C44.7209 13.8676 45.1432 14.025 45.5081 14.3115C45.9293 14.6425 46.117 15.091 46.0881 15.6123L46.0862 15.6113C46.0784 16.0155 45.9083 16.3891 45.76 16.7041L45.7542 16.7148C45.6225 16.9782 45.4464 17.2452 45.2385 17.5039C45.4121 17.8051 45.5445 18.1 45.6409 18.373C45.7814 18.7715 45.8351 19.164 45.8088 19.5049L45.8069 19.5039C45.7763 20.001 45.5451 20.4432 45.0891 20.7031L45.0901 20.7041C45.085 20.7074 45.0786 20.7097 45.0735 20.7129C45.0663 20.7168 45.0602 20.7227 45.053 20.7266L45.052 20.7256C44.6766 20.955 44.2665 21.0257 43.8684 21.0068V21.0078H43.8137L43.7991 21.0068C43.2705 20.9774 42.858 20.7265 42.5881 20.3066C42.474 20.1291 42.3422 19.923 42.1975 19.6914C41.381 20.0732 40.4532 20.3921 39.4045 20.6504L39.4055 20.6514C38.138 20.9838 36.6791 21.1467 35.0383 21.167L35.0374 21.166C33.8115 21.186 32.7285 21.1468 31.8167 21.0225C30.9027 20.8978 30.135 20.688 29.5022 20.4043C28.8512 20.1125 28.3553 19.7177 27.9954 19.2139C27.6369 18.712 27.4502 18.165 27.3821 17.5518L27.3811 17.542L27.3801 17.5332C27.3334 16.9029 27.4512 16.3131 27.7092 15.7734C27.9885 15.1895 28.4992 14.7237 29.1057 14.3555C29.7179 13.9838 30.5072 13.6666 31.4661 13.457C32.4295 13.2267 33.5837 13.1054 34.9006 13.085L35.5637 13.0811ZM34.9602 16.5498H34.9524C34.4423 16.5498 33.9676 16.586 33.5071 16.6436L33.5081 16.6445C33.0778 16.7007 32.6851 16.7746 32.3674 16.8486C32.0633 16.9388 31.8938 17.0299 31.801 17.1123C31.7467 17.1606 31.7259 17.1942 31.719 17.208L31.717 17.209L31.72 17.2285V17.2471C31.7254 17.2552 31.7422 17.2762 31.7815 17.2998C31.9197 17.3827 32.1233 17.4647 32.427 17.5361C32.718 17.6046 33.0779 17.6428 33.5227 17.6621H33.5217C34.001 17.6627 34.4542 17.6813 34.9524 17.6621L35.1829 17.6533L35.2063 17.6768C36.4618 17.6499 37.4807 17.5538 38.259 17.377C38.6046 17.2984 38.9199 17.214 39.2083 17.1289C38.9258 17.0293 38.6135 16.9366 38.2698 16.8525C37.4292 16.6471 36.3218 16.5304 34.9602 16.5498ZM31.4631 6.17383C31.4764 6.1777 31.4982 6.18442 31.5315 6.18945C31.6161 6.2022 31.7421 6.20817 31.9211 6.19922H31.928C33.0234 6.15939 34.0716 6.11974 35.0188 6.06055L35.0305 6.05957L35.7493 6.02637C36.4615 5.98937 37.1571 5.94104 37.8528 5.88184L37.8645 5.88086C38.7941 5.82152 39.744 5.74284 40.7209 5.66309C41.6983 5.58331 42.7548 5.50352 43.8704 5.42383L43.8899 5.42285H44.6682L44.7112 5.42969C44.9214 5.46473 45.1156 5.51519 45.3069 5.5918L45.4983 5.67676L45.5081 5.68262L45.5178 5.6875C45.7558 5.81972 45.9781 6.00928 46.1292 6.2207L46.1389 6.23438L46.1477 6.24805C46.3047 6.49929 46.3953 6.8113 46.3655 7.16895L46.3645 7.16797C46.3348 7.56626 46.168 7.93783 45.9426 8.23828L45.9348 8.24902L45.926 8.25977C45.6127 8.63547 45.1664 8.81649 44.6545 8.86523H44.6506C43.5008 8.96436 42.3964 9.06475 41.3723 9.125H41.3713C40.8571 9.15467 40.3474 9.18977 39.8372 9.22461C39.4934 9.24808 39.1492 9.26894 38.8049 9.29102V9.50781C41.38 9.53154 42.8369 9.59451 45.5647 9.78125C46.0708 9.80535 46.5187 9.95281 46.8772 10.2285L46.886 10.2354L46.8938 10.2412C47.3044 10.5834 47.4494 11.0965 47.3997 11.6689C47.3534 12.1996 47.1556 12.7404 46.6663 13.0039L46.6653 13.0029C46.2744 13.2224 45.8292 13.2875 45.344 13.2432V13.2441C38.328 12.7487 34.7918 12.7677 27.7776 13.3223C27.2826 13.3693 26.828 13.3031 26.4309 13.0762C25.9476 12.7998 25.7381 12.3046 25.6897 11.748C25.6428 11.2091 25.7472 10.6593 26.176 10.3018C26.523 10.0126 26.9758 9.8693 27.4592 9.82324L27.4661 9.82227C28.2912 9.75444 29.0002 9.70134 29.6584 9.6582C29.1107 9.57613 28.6272 9.42811 28.2112 9.20117L28.2034 9.19629L28.1946 9.19141C27.4337 8.73957 26.9666 8.08556 26.8655 7.22656L26.8645 7.21777C26.8213 6.78591 26.8185 6.33189 26.9114 5.86719C26.9598 5.62484 27.037 5.38704 27.1389 5.15527C27.0028 5.09947 26.8769 5.02958 26.761 4.94531L26.7483 4.93652L26.7366 4.92676C26.3673 4.62445 26.2144 4.18652 26.1672 3.71484V3.70801C26.1181 3.14261 26.2587 2.59469 26.7092 2.24805C27.073 1.96821 27.5407 1.82783 28.0696 1.80273V1.80176C28.0709 1.80167 28.0722 1.80185 28.0735 1.80176C28.0767 1.80161 28.08 1.80092 28.0833 1.80078V1.80176C34.5817 1.34358 37.868 1.3235 44.3879 1.70215L44.3889 1.70117C44.9162 1.7241 45.3825 1.86307 45.7473 2.1377H45.7483C45.7506 2.13933 45.7529 2.14094 45.7551 2.14258C45.7577 2.14455 45.7604 2.14645 45.7629 2.14844H45.762C46.2399 2.49881 46.3495 3.03459 46.3264 3.56543V3.57715L46.3254 3.58887C46.2797 4.11363 46.0836 4.65092 45.5823 4.91602L45.5833 4.91699C45.5809 4.91836 45.5778 4.91857 45.5754 4.91992C45.5694 4.92308 45.564 4.92759 45.5579 4.93066L45.5569 4.92969C45.1604 5.14713 44.6788 5.20622 44.2024 5.18457H44.1975C39.2204 4.91132 36.6909 4.88851 31.7737 5.0957C31.6544 5.26307 31.5806 5.41762 31.5403 5.55859C31.468 5.81165 31.4471 5.97747 31.4583 6.10156L31.4612 6.12598V6.14941C31.4612 6.15989 31.4622 6.16809 31.4631 6.17383Z" fill="#393939" stroke="#FBE56A" stroke-width="1.05678"/>
<path d="M52.1985 13.6885C52.5605 13.5678 52.9604 13.5144 53.3508 13.5664H53.3557C53.8705 13.64 54.3244 13.8409 54.7229 14.1895C55.1721 14.5825 55.3648 15.1002 55.2756 15.665L55.2727 15.6807L55.2688 15.6973C55.2232 15.9024 55.1448 16.1624 54.9846 16.3867C54.8845 16.527 54.7589 16.692 54.6125 16.8613C54.5006 17.0053 54.3991 17.1729 54.2903 17.3906C54.2077 17.5558 54.1385 17.8105 54.0813 18.1729V18.1738C54.0548 18.3395 54.0763 18.4507 54.1106 18.5264C54.1445 18.6009 54.2076 18.6784 54.3284 18.751C54.6324 18.9334 55.2585 19.1212 56.2961 19.3008L56.2952 19.3037C57.6427 19.5374 58.9921 19.694 60.344 19.792C61.7122 19.8911 63.1015 19.9702 64.554 20.0498H64.553C64.8255 20.0531 65.1018 20.1033 65.3586 20.2061C65.5973 20.3015 65.8169 20.424 66.0159 20.5732C66.2774 20.7694 66.4322 21.0265 66.5188 21.2861C66.6186 21.5854 66.6073 21.8911 66.5305 22.1982L66.5286 22.207L66.5256 22.2158C66.4215 22.5801 66.2328 22.9068 65.9348 23.1777C65.5778 23.5022 65.1253 23.5938 64.6643 23.5938H64.6477C61.4987 23.4935 58.2709 23.1723 54.925 22.6113H54.9231C54.2143 22.4898 53.5414 22.3467 52.926 22.1826C52.2864 22.0121 51.717 21.7735 51.2258 21.4609C50.7249 21.1421 50.3186 20.7419 50.0305 20.2139C49.7341 19.6704 49.6234 19.0487 49.6682 18.3545C49.7114 17.6061 49.8624 16.9139 50.1233 16.2617L50.1252 16.2559C50.3814 15.6368 50.7215 15.0427 51.1428 14.4736C51.4231 14.0915 51.7909 13.8243 52.1985 13.6885ZM66.2805 4.75098C66.7823 4.52796 67.3868 4.52607 68.0637 4.69824H68.0647C68.7482 4.8526 69.3023 5.13625 69.6448 5.59277C69.9656 6.02059 70.0972 6.52331 69.9504 7.05957L69.9514 7.06055C69.733 7.88466 69.5745 8.50034 69.4153 9.11719C69.2909 9.59914 69.1641 10.0814 69.011 10.6641C69.1839 10.7101 69.3422 10.7513 69.4993 10.7939L70.468 11.0508L70.4749 11.0518L70.4817 11.0547C70.9621 11.192 71.3773 11.4111 71.6809 11.7422C72.0739 12.1709 72.0822 12.7471 71.9202 13.2725L71.9211 13.2734C71.7778 13.7989 71.4662 14.2973 70.8821 14.4434L70.8811 14.4424C70.4528 14.5734 69.9911 14.5289 69.5344 14.3984H69.5325C68.971 14.2359 68.6113 14.1405 68.1458 14.0186C67.9928 14.6004 67.868 15.0826 67.7434 15.5654C67.5842 16.1823 67.4246 16.8005 67.2053 17.6279C67.0672 18.1522 66.7487 18.5344 66.2942 18.7617L66.2825 18.7676C65.7959 18.9965 65.222 18.9981 64.6116 18.8398C64.0407 18.6918 63.4928 18.454 63.1633 18.0049C62.8474 17.5741 62.7652 17.0771 62.8752 16.582V16.5791C63.8511 12.3174 64.3482 10.1915 65.3235 5.91211C65.4418 5.36286 65.7795 4.97375 66.2805 4.75098ZM57.3245 2.84473C57.766 2.69472 58.3 2.66592 58.8733 2.79199L59.1213 2.85547L59.1223 2.85645C59.731 3.0368 60.2928 3.35663 60.6819 3.75488C61.0574 4.13935 61.3647 4.70565 61.1672 5.31641L61.1653 5.32129C61.1077 5.49406 61.0692 5.61831 61.0295 5.74707C60.9896 5.87687 60.9487 6.01119 60.887 6.19629C60.6768 6.85635 60.3957 7.48546 60.052 8.07715C60.1751 8.18311 60.2874 8.30012 60.3831 8.43066H60.384C60.9662 9.17654 61.2743 9.59935 61.7844 10.2773H61.8079L61.9661 10.4932C62.4244 11.1181 62.4055 11.8081 62.1565 12.3633C61.9177 12.8956 61.4616 13.329 60.9739 13.54L60.9729 13.5391C60.4398 13.7709 59.8344 13.7443 59.3235 13.5938C58.8174 13.4446 58.3203 13.1494 58.0149 12.7373V12.7383C57.5754 12.1614 57.2867 11.786 56.9358 11.334C55.5969 12.205 54.0008 12.7978 52.2122 13.0215L52.2004 13.0234C51.7034 13.0744 51.1135 12.961 50.6116 12.7041C50.1142 12.4494 49.6313 12.0129 49.469 11.3672L49.4631 11.3682C49.2894 10.6482 49.4339 10.0101 49.7971 9.5293C50.1509 9.06123 50.6825 8.78084 51.2258 8.69238L51.2336 8.69141C52.3928 8.52034 53.3966 8.17445 54.2024 7.55566C55.0011 6.9423 55.6451 6.03 56.0364 4.65137C56.0772 4.48954 56.1129 4.36594 56.1467 4.25C56.1814 4.13105 56.2141 4.01952 56.2512 3.87109L56.2532 3.86328L56.2551 3.85449C56.3977 3.35556 56.8335 3.01159 57.3245 2.84473Z" fill="#393939" stroke="#FBE56A" stroke-width="1.05678"/>
</svg>
