<svg width="186" height="83" viewBox="0 0 186 83" fill="none" xmlns="http://www.w3.org/2000/svg">
<g opacity="0.6">
<path d="M28.7831 70.7202C28.7831 74.7431 25.5219 78.0043 21.499 78.0043C17.4761 78.0043 14.2148 74.7431 14.2148 70.7202C14.2148 66.6973 17.4761 63.436 21.499 63.436C25.5219 63.436 28.7831 66.6973 28.7831 70.7202Z" fill="#69CAF3"/>
<path d="M185.98 23.2396C185.98 25.4001 184.229 27.1516 182.068 27.1516C179.908 27.1516 178.156 25.4001 178.156 23.2396C178.156 21.0791 179.908 19.3276 182.068 19.3276C184.229 19.3276 185.98 21.0791 185.98 23.2396Z" fill="#69CAF3"/>
<path d="M36.4612 8.3515C37.4496 8.51615 38.2197 9.29858 38.3686 10.2896L39.3783 17.011C39.5271 18.0019 39.021 18.9761 38.1245 19.4239L32.0441 22.4612C31.1476 22.909 30.0647 22.7287 29.3618 22.0144L24.5942 17.1702C23.8913 16.456 23.7282 15.3704 24.1902 14.4811L27.3241 8.44993C27.7861 7.5607 28.7682 7.07012 29.7567 7.23477L36.4612 8.3515Z" fill="#FE9641"/>
<path d="M151.533 75.87C151.849 76.4848 151.733 77.2328 151.245 77.7228L147.941 81.0463C147.454 81.5363 146.707 81.6569 146.09 81.345L141.908 79.2294C141.292 78.9175 140.946 78.2441 141.052 77.5613L141.772 72.9303C141.878 72.2475 142.412 71.7107 143.094 71.6007L147.721 70.8541C148.403 70.744 149.078 71.0857 149.394 71.7005L151.533 75.87Z" fill="#FE9641"/>
<path d="M178.325 44.2828C179.056 45.3302 178.8 46.7722 177.753 47.5037L171.527 51.8519C170.48 52.5834 169.038 52.3273 168.306 51.28L163.958 45.0543C163.226 44.007 163.482 42.5649 164.53 41.8334L170.755 37.4852C171.803 36.7537 173.245 37.0098 173.976 38.0571L178.325 44.2828Z" fill="#71CC63"/>
<path d="M6.67229 41.5558C6.37104 42.1169 5.67194 42.3276 5.1108 42.0263L1.77527 40.2357C1.21413 39.9344 1.00344 39.2353 1.30469 38.6742L3.09537 35.3386C3.39661 34.7775 4.09572 34.5668 4.65686 34.8681L7.99239 36.6587C8.55353 36.96 8.76421 37.6591 8.46297 38.2202L6.67229 41.5558Z" fill="#71CC63"/>
<path d="M146.13 2.11698C146.6 1.41492 147.688 1.65855 147.814 2.49409L148.393 6.3424C148.447 6.70162 148.706 6.99596 149.056 7.09493L152.8 8.15518C153.613 8.38537 153.718 9.49522 152.962 9.87304L149.481 11.6132C149.156 11.7756 148.956 12.1132 148.97 12.4762L149.119 16.365C149.151 17.2093 148.128 17.6516 147.535 17.0496L144.804 14.2767C144.55 14.0179 144.167 13.9322 143.826 14.0576L140.173 15.4007C139.38 15.6924 138.643 14.8559 139.033 14.106L140.826 10.6521C140.994 10.3297 140.957 9.93919 140.732 9.65368L138.326 6.59497C137.804 5.93088 138.372 4.97161 139.205 5.11018L143.044 5.74842C143.402 5.808 143.762 5.65237 143.965 5.35054L146.13 2.11698Z" fill="#FBE56A"/>
<path d="M45.125 67.9289C45.189 67.4686 45.7858 67.3278 46.0487 67.711L47.2597 69.476C47.3728 69.6408 47.5718 69.7241 47.7685 69.6892L49.8759 69.3143C50.3335 69.233 50.6517 69.757 50.3685 70.1255L49.0642 71.8227C48.9424 71.9811 48.9246 72.1961 49.0187 72.3724L50.0264 74.2609C50.2452 74.6709 49.8451 75.1355 49.4071 74.98L47.39 74.2639C47.2017 74.1971 46.9917 74.2466 46.8531 74.3906L45.3685 75.9325C45.0461 76.2673 44.4806 76.0304 44.4931 75.5658L44.5508 73.4261C44.5562 73.2264 44.4442 73.042 44.2645 72.9546L42.3392 72.0192C41.9212 71.816 41.9718 71.205 42.4175 71.0733L44.4703 70.467C44.662 70.4104 44.8027 70.2469 44.8302 70.049L45.125 67.9289Z" fill="#FBE56A"/>
<path d="M173.57 63.5558C173.634 63.0955 174.231 62.9548 174.494 63.338L175.705 65.103C175.818 65.2677 176.017 65.3511 176.214 65.3161L178.321 64.9413C178.779 64.8599 179.097 65.384 178.814 65.7525L177.509 67.4496C177.388 67.6081 177.37 67.8231 177.464 67.9993L178.472 69.8878C178.69 70.2978 178.29 70.7625 177.852 70.607L175.835 69.8909C175.647 69.8241 175.437 69.8736 175.298 70.0175L173.814 71.5595C173.491 71.8943 172.926 71.6574 172.938 71.1928L172.996 69.053C173.002 68.8533 172.89 68.6689 172.71 68.5816L170.785 67.6461C170.367 67.443 170.417 66.8319 170.863 66.7003L172.916 66.094C173.107 66.0374 173.248 65.8739 173.276 65.676L173.57 63.5558Z" fill="#FBE56A"/>
</g>
<path d="M53.1869 25.3938C53.3007 26.0388 53.2248 26.5321 52.9971 26.9116C52.7695 27.291 52.4279 27.5946 51.9726 27.8223C52.7695 32.262 53.1489 34.4628 53.9458 38.9025C54.0596 39.6235 53.9078 40.2685 53.4525 40.7998C52.9971 41.331 52.2382 41.7105 51.1378 41.9382C49.7717 42.2038 48.7472 42.052 48.0642 41.4449C46.7361 42.1279 45.37 42.6971 44.0419 43.1904C42.6758 43.6837 41.158 44.1011 39.4504 44.5185C37.9326 44.8979 36.6045 45.0877 35.5041 45.0497C34.4036 45.0497 33.455 44.822 32.6581 44.4426C31.8613 44.0631 31.2541 43.5698 30.7608 42.9627C30.2675 42.3176 29.926 41.5966 29.6984 40.7998C29.3568 39.6994 29.1292 38.4092 29.0912 37.0811C29.0533 35.715 29.2051 34.4249 29.5466 33.1347C28.7497 33.3624 28.0667 33.3624 27.4975 33.1727C26.8904 32.9829 26.4729 32.4896 26.2453 31.6548C26.0176 30.82 26.0935 30.137 26.5109 29.6816C26.9283 29.2263 27.5734 28.8468 28.4082 28.6192C36.946 26.2665 41.2339 25.2799 49.9235 23.6862C50.7583 23.5344 51.4793 23.5723 52.0864 23.8C52.6556 24.0277 53.0351 24.5969 53.1869 25.4696V25.3938ZM44.2696 51.6144C43.7763 49.5653 44.0798 47.8577 45.1423 46.4917C46.2048 45.1256 48.0642 44.139 50.6824 43.6457C53.3007 43.1145 55.3877 43.3422 56.9056 44.2529C58.4234 45.1636 59.2961 46.6434 59.6377 48.6166C59.9033 50.4001 59.5618 52.0318 58.6131 53.5496C58.8029 53.5496 58.9167 53.5117 59.1064 53.4737C60.5484 53.246 61.8385 52.8666 62.9769 52.2974C64.1153 51.7661 64.988 51.0831 65.6711 50.2863C65.9367 49.9827 66.2023 49.7171 66.5059 49.5653C66.8094 49.3756 67.1889 49.2617 67.6063 49.2238C68.4411 49.1099 69.0482 49.2617 69.5036 49.6791C69.9589 50.0965 70.2246 50.6278 70.3005 51.2729C70.4143 52.2215 70.1487 53.0943 69.5415 53.8152C68.9344 54.5362 68.1375 55.1813 67.1509 55.7125C66.1644 56.2438 65.1019 56.6991 63.9255 57.0406C62.7492 57.3821 61.6488 57.6478 60.6622 57.8375C58.1957 58.2549 55.8431 58.2928 53.5663 58.0652C51.5172 59.1656 49.3164 60.0004 46.8878 60.5696C45.9012 60.7973 44.8008 60.987 43.5486 61.1008C42.3343 61.2147 41.158 61.2147 40.0576 61.1008C38.9571 60.987 37.9706 60.6834 37.0978 60.266C36.225 59.8486 35.6938 59.1276 35.4282 58.2169C35.2385 57.5719 35.2764 56.9647 35.542 56.4335C35.8076 55.9022 36.3389 55.4848 37.1357 55.2951C37.5532 55.1813 37.9706 55.1433 38.3121 55.1813C38.6536 55.2192 38.9951 55.3331 39.3366 55.5607C40.2473 56.054 41.3477 56.3576 42.6 56.4335C43.8522 56.5094 45.2182 56.3576 46.6222 56.0161C46.8119 55.9781 46.9258 55.9402 47.1155 55.9022C46.4325 55.409 45.8254 54.8018 45.3321 54.1188C44.8388 53.4358 44.4972 52.6389 44.2696 51.7282V51.6144ZM39.9437 39.5855C41.196 39.2819 42.3723 38.9025 43.4348 38.4851C44.4972 38.0677 45.5977 37.5364 46.7361 36.9293C46.091 33.8557 45.7874 32.3379 45.1423 29.2642C41.5754 29.9852 39.8299 30.4026 36.3009 31.2754C35.9594 32.3758 35.7317 33.4762 35.6938 34.6146C35.6179 35.753 35.6938 36.7396 35.9215 37.5744C36.1492 38.4092 36.5666 39.0163 37.2116 39.3958C37.8567 39.8132 38.7674 39.8511 39.9058 39.5855H39.9437ZM50.2271 50.5139C50.3789 51.159 50.6445 51.6903 51.0619 52.1456C51.4793 52.563 51.9726 52.9045 52.5797 53.1322C53.0351 52.7148 53.3766 52.2215 53.6043 51.6523C53.8319 51.0831 53.8699 50.5139 53.756 49.8309C53.6043 49.1099 53.3766 48.6546 52.9971 48.389C52.6177 48.1613 52.1623 48.0854 51.6311 48.1992C51.0998 48.3131 50.6824 48.5407 50.4168 48.9202C50.1512 49.2997 50.1132 49.8309 50.265 50.5139H50.2271ZM64.4568 28.9986C65.9746 28.8089 66.7715 28.733 68.2893 28.5433C69.1241 28.4674 69.8072 28.5433 70.3763 28.8468C70.9455 29.1124 71.2491 29.7196 71.325 30.5923C71.4009 31.4651 71.2112 32.1102 70.7179 32.4896C70.2246 32.8691 69.6174 33.0968 68.7826 33.2106C67.2648 33.3624 66.5438 33.4762 65.026 33.666C65.3295 36.1704 65.4813 37.4226 65.8228 39.8891C65.8987 40.6101 65.709 41.2172 65.2537 41.7484C64.7604 42.2797 64.0014 42.5832 62.939 42.735C61.8765 42.8868 61.0417 42.773 60.4345 42.4315C59.8274 42.052 59.4859 41.5208 59.372 40.7998C58.3096 34.0834 57.8163 30.7441 56.7538 24.0277C56.6399 23.3067 56.8297 22.6616 57.3609 22.1304C57.8921 21.5992 58.727 21.2197 59.9033 21.0679C61.0796 20.9161 61.9903 20.992 62.6354 21.3715C63.2805 21.7509 63.6599 22.2822 63.7358 23.0032C64.0394 25.3938 64.1912 26.608 64.4947 28.9986H64.4568Z" fill="#393939"/>
<path d="M83.1277 33.2859C80.8889 33.3998 79.1814 33.0962 77.9291 32.4132C76.7149 31.6922 76.0319 30.7056 75.8801 29.4154C75.8042 28.6565 75.8042 27.8976 75.956 27.1387C76.1077 26.3798 76.4493 25.6209 76.9426 24.8619C76.2216 24.8619 75.6903 24.6722 75.2729 24.3686C74.8555 24.0271 74.6279 23.4959 74.552 22.737C74.4761 21.8642 74.7037 21.2191 75.197 20.8397C75.6903 20.4602 76.3734 20.2325 77.2461 20.1946C89.6165 19.3218 95.8396 19.2839 108.248 20.0049C109.121 20.0428 109.804 20.2705 110.297 20.6499C110.828 21.0294 111.018 21.6365 110.98 22.5093C110.904 23.382 110.601 23.9892 110.069 24.2548C109.538 24.5584 108.817 24.6722 107.982 24.6343C98.3061 24.103 93.449 24.0651 83.7349 24.4825C83.2795 25.0137 82.9759 25.545 82.8242 26.0762C82.6724 26.6074 82.5965 27.0628 82.6344 27.4802C82.6344 27.8597 82.7862 28.1632 83.0518 28.353C83.3175 28.5427 83.8108 28.6186 84.5697 28.5806C86.6567 28.5047 88.6678 28.4288 90.4892 28.315C92.3486 28.2391 94.132 28.1253 95.9155 27.9735C97.699 27.8597 99.5204 27.7079 101.38 27.5561C103.239 27.4043 105.25 27.2525 107.375 27.1007C107.831 27.1007 108.286 27.1007 108.741 27.1007C109.197 27.1766 109.576 27.2905 109.955 27.4802C110.297 27.6699 110.601 27.9356 110.79 28.2012C110.98 28.5047 111.094 28.8842 111.056 29.3395C111.018 29.8708 110.79 30.402 110.449 30.8574C110.069 31.3127 109.5 31.5784 108.703 31.6542C106.502 31.844 104.415 32.0337 102.48 32.1475C100.507 32.2614 98.5717 32.4132 96.6365 32.527C96.6365 33.4757 96.6365 33.931 96.6365 34.8796C102.177 34.9176 104.947 35.0314 110.487 35.4109C111.284 35.4488 111.929 35.6765 112.422 36.056C112.877 36.4354 113.105 37.0426 113.029 37.9153C112.953 38.7881 112.65 39.3952 112.156 39.6608C111.625 39.9644 110.98 40.0782 110.183 40.0023C96.7503 39.0537 89.958 39.0916 76.5251 40.1541C75.7283 40.23 75.0832 40.1162 74.552 39.8126C74.0207 39.509 73.7172 38.9399 73.6413 38.0671C73.5654 37.1943 73.7551 36.5493 74.2104 36.1698C74.6658 35.7904 75.3109 35.5627 76.1077 35.4868C81.6478 35.0314 84.4179 34.9176 89.958 34.8038C89.958 33.9689 89.958 33.5895 89.92 32.7547C88.8196 32.8306 87.7192 32.9065 86.6188 32.9444C85.5183 32.9444 84.342 33.0203 83.1657 33.0962L83.1277 33.2859ZM107.223 54.8012C106.54 54.7633 106.047 54.4597 105.706 53.9285C105.364 53.3972 104.947 52.7522 104.491 51.9932C102.822 52.866 100.848 53.587 98.5338 54.1562C96.2191 54.7633 93.5249 55.0669 90.4513 55.1048C88.1366 55.1428 86.1255 55.0669 84.4558 54.8392C82.7862 54.6115 81.4202 54.2321 80.3197 53.7388C79.2193 53.2455 78.4224 52.6004 77.8533 51.8035C77.2841 51.0067 76.9805 50.1339 76.8667 49.1094C76.7908 48.0848 76.9805 47.1362 77.3979 46.2634C77.8153 45.3907 78.6122 44.6317 79.6747 43.9867C80.7371 43.3416 82.1411 42.7724 83.8867 42.3929C85.6322 41.9755 87.7571 41.7479 90.2236 41.7099C93.5629 41.634 96.4467 42.0135 98.8753 42.7344C101.304 43.4554 103.315 44.3661 104.909 45.4286C105.44 44.7456 105.933 44.1764 106.313 43.759C106.692 43.3036 107.261 43.1139 107.982 43.1519C108.665 43.1898 109.272 43.4175 109.804 43.8349C110.335 44.2523 110.563 44.7835 110.525 45.4666C110.525 45.9978 110.297 46.529 109.993 47.1741C109.69 47.7813 109.235 48.4263 108.665 49.0335C109.159 49.7544 109.5 50.4754 109.728 51.1205C109.955 51.7656 110.031 52.3727 109.993 52.866C109.955 53.549 109.652 54.0803 109.083 54.3838C108.551 54.7254 107.944 54.8392 107.299 54.8012H107.223ZM90.3754 50.4754C92.9937 50.4375 95.1566 50.2477 96.8262 49.8683C98.4958 49.4888 99.8998 49.0714 101 48.5022C99.9378 47.8571 98.5717 47.3259 96.8641 46.9085C95.1566 46.4911 92.9557 46.2634 90.2995 46.3014C89.275 46.3014 88.3263 46.3773 87.4156 46.4911C86.5429 46.6049 85.746 46.7567 85.1009 46.9085C84.4558 47.0982 83.9625 47.3259 83.621 47.6295C83.2795 47.933 83.0898 48.2746 83.1277 48.654C83.1277 49.0335 83.3554 49.375 83.7349 49.6027C84.1143 49.8303 84.6076 50.0201 85.2527 50.1718C85.8978 50.3236 86.6567 50.3995 87.5295 50.4375C88.4022 50.4375 89.3509 50.4754 90.3375 50.4375L90.3754 50.4754Z" fill="#393939"/>
<path d="M130.785 53.5486C133.403 54.004 136.022 54.3075 138.64 54.4973C141.258 54.687 143.914 54.8388 146.685 54.9906C147.102 54.9906 147.519 55.0665 147.899 55.2183C148.278 55.37 148.62 55.5598 148.923 55.7874C149.227 56.0151 149.417 56.3187 149.53 56.6602C149.644 57.0017 149.644 57.3812 149.53 57.8365C149.379 58.3678 149.113 58.8231 148.696 59.2026C148.278 59.582 147.709 59.7338 146.95 59.7338C140.993 59.5441 134.883 58.9369 128.546 57.8745C127.218 57.6468 125.966 57.3812 124.828 57.0776C123.689 56.774 122.703 56.3566 121.868 55.8254C121.033 55.2941 120.388 54.6491 119.933 53.8143C119.477 52.9794 119.288 51.9928 119.363 50.8165C119.439 49.4884 119.705 48.2742 120.16 47.1358C120.616 46.0353 121.223 44.9729 121.982 43.9483C122.399 43.3791 122.93 42.9997 123.5 42.8099C124.069 42.6202 124.676 42.5443 125.245 42.6202C126.042 42.734 126.725 43.0376 127.332 43.5689C127.939 44.1001 128.167 44.7452 128.053 45.4662C127.977 45.8077 127.863 46.1492 127.674 46.4148C127.484 46.6804 127.256 46.984 126.991 47.2876C126.725 47.6291 126.497 48.0085 126.27 48.4639C126.042 48.9192 125.89 49.5264 125.776 50.2473C125.625 51.196 125.966 51.917 126.725 52.3723C127.484 52.8277 128.85 53.2071 130.823 53.5486H130.785ZM154.046 36.8145C155.526 37.194 156.285 37.4216 157.765 37.8011C158.562 38.0288 159.169 38.3703 159.586 38.8256C160.004 39.281 160.079 39.964 159.814 40.7988C159.586 41.6336 159.169 42.1649 158.562 42.3166C157.992 42.5064 157.309 42.4684 156.513 42.2408C155.071 41.8233 154.312 41.6336 152.87 41.2542C152.035 44.4037 151.655 45.9595 150.821 49.109C150.631 49.8299 150.213 50.3232 149.606 50.6268C148.961 50.9304 148.126 50.9683 147.102 50.7027C146.077 50.4371 145.318 50.0576 144.901 49.4884C144.484 48.9192 144.37 48.2742 144.522 47.5911C146.381 39.4707 147.33 35.4105 149.189 27.2521C149.341 26.5312 149.758 26.0379 150.441 25.7343C151.124 25.4307 152.035 25.3928 153.211 25.6963C154.388 25.962 155.184 26.4173 155.64 27.0245C156.095 27.6316 156.247 28.2767 156.057 28.9597C155.222 32.1092 154.843 33.665 154.008 36.8145H154.046ZM118.946 37.1939C118.415 34.9931 119.857 33.5891 121.488 33.3235C126.118 32.6404 129.874 30.5155 131.468 24.8995C131.62 24.2923 131.734 23.9888 131.886 23.3816C132.189 22.3192 133.897 21.5223 136.098 22.1674C138.147 22.7745 139.74 24.2923 139.323 25.5825C139.095 26.2655 139.019 26.5691 138.792 27.2521C136.743 33.7029 130.975 38.5979 123.082 39.5845C121.602 39.7363 119.363 38.9015 118.946 37.156V37.1939ZM140.993 36.3591C142.245 38.0667 140.917 40.0399 139.513 40.647C138.033 41.2921 135.908 40.5711 135.073 39.4328C133.859 37.839 133.252 37.0422 131.999 35.4484C131.051 34.1203 131.658 32.0713 133.214 31.2744C134.769 30.4775 137.046 31.1226 137.995 32.4507C139.209 34.0065 139.778 34.8034 140.955 36.3591H140.993Z" fill="#393939"/>
<path d="M53.8246 25.2812L53.811 25.2824C53.6282 24.3252 53.1639 23.5335 52.3269 23.1988L52.327 23.1986L52.3138 23.1937C51.5683 22.9141 50.7229 22.8826 49.8077 23.049L49.8067 23.0492C41.0985 24.6464 36.7922 25.6372 28.2371 27.9946C27.3136 28.2466 26.5516 28.6789 26.0335 29.2441C25.4 29.9351 25.3656 30.8907 25.6205 31.8252C25.8852 32.7957 26.4191 33.5116 27.2984 33.7889C27.7312 33.9323 28.1994 33.9835 28.6967 33.9466C28.4981 34.9752 28.4138 36.0153 28.4439 37.0991L28.4439 37.0996C28.4835 38.4841 28.7201 39.83 29.0777 40.9848C29.3246 41.846 29.6989 42.6401 30.2464 43.3561L30.2522 43.3637L30.2582 43.3711C30.8118 44.0523 31.4953 44.6061 32.3797 45.0273C33.2652 45.4489 34.3059 45.6958 35.4929 45.6973C36.6747 45.7365 38.0637 45.5326 39.6061 45.1471C41.3211 44.7278 42.8642 44.3042 44.2618 43.7995L44.2619 43.7995L44.2674 43.7974C45.4919 43.3426 46.7558 42.8213 47.9979 42.204C48.8669 42.7577 49.9986 42.8194 51.2614 42.5738L51.2614 42.5739L51.269 42.5723C52.4362 42.3308 53.3562 41.9072 53.9442 41.2212C54.5395 40.5266 54.7247 39.6833 54.5854 38.8015L54.5856 38.8015L54.5832 38.7881C54.1849 36.569 53.8909 34.9095 53.5968 33.2494L53.5968 33.2491C53.3226 31.7012 53.0483 30.1529 52.6894 28.1508C53.0427 27.9083 53.3348 27.6075 53.5524 27.2448C53.8831 26.6936 53.9567 26.0299 53.8246 25.2812ZM44.8071 54.4979C45.0777 54.8727 45.3799 55.2262 45.7084 55.5532C44.6275 55.7625 43.5919 55.8448 42.6391 55.7871C41.4788 55.7168 40.481 55.439 39.669 55.0042C39.2478 54.7293 38.8163 54.5857 38.3836 54.5377C37.9497 54.4894 37.4534 54.5385 36.9756 54.6676C36.0345 54.8941 35.3285 55.4125 34.9628 56.1439C34.6138 56.8418 34.5779 57.6204 34.8067 58.399C35.115 59.4553 35.7527 60.3405 36.8184 60.8502C37.7531 61.2973 38.8113 61.623 39.9909 61.745C41.1374 61.8636 42.3562 61.863 43.6081 61.7457C44.8912 61.629 46.0204 61.4344 47.0335 61.2006L47.0356 61.2001C49.4493 60.6344 51.6475 59.8107 53.6983 58.7285C55.9665 58.94 58.3129 58.8919 60.7703 58.476L60.7774 58.4748L60.7845 58.4734C61.7928 58.2795 62.9128 58.009 64.1061 57.6625C65.3311 57.3069 66.4358 56.8331 67.458 56.2827C68.5092 55.7167 69.3721 55.0218 70.0369 54.2324C70.7588 53.3751 71.0788 52.3236 70.9434 51.1957C70.8502 50.4057 70.5169 49.7295 69.9412 49.2018C69.3044 48.618 68.4865 48.4529 67.5331 48.5802C67.0544 48.6255 66.587 48.7578 66.1884 49.0003C65.776 49.2143 65.4486 49.5571 65.1837 49.8598L65.1837 49.8598L65.1794 49.8648C64.5578 50.59 63.7599 51.2174 62.703 51.7106L62.6951 51.7143L62.6873 51.7182C61.8252 52.1492 60.8602 52.4691 59.7864 52.6919C60.3331 51.385 60.4979 49.9962 60.2782 48.5212L60.2771 48.5137L60.2758 48.5062C59.9103 46.3948 58.9552 44.7274 57.2387 43.6976C55.5326 42.6739 53.2637 42.4619 50.5581 43.0102C47.8563 43.5199 45.826 44.5579 44.6312 46.0941C43.4381 47.628 43.1177 49.5218 43.622 51.6899V51.7282V51.8079L43.6413 51.8853C43.8844 52.8576 44.2556 53.7344 44.8071 54.4979ZM36.3399 34.6577L36.3407 34.6469L36.341 34.6362C36.3727 33.6874 36.5453 32.7574 36.8155 31.8153C39.8953 31.0546 41.6138 30.646 44.6405 30.0271C44.8979 31.2573 45.1013 32.2418 45.3048 33.2268L45.305 33.2278C45.5169 34.2536 45.729 35.28 46.002 36.5841C45.0315 37.0889 44.0976 37.5289 43.198 37.8823C42.1833 38.281 41.0607 38.6446 39.8659 38.9379H39.8312L39.7586 38.9549C38.6788 39.2068 37.986 39.1255 37.5634 38.8521L37.5519 38.8446L37.54 38.8376C37.0709 38.5617 36.7397 38.1134 36.5462 37.404C36.3425 36.6568 36.2674 35.7457 36.3399 34.6577ZM51.5299 51.6978C51.3009 51.4454 51.1264 51.1621 50.9982 50.8281L50.8972 50.3735C50.7603 49.7575 50.8366 49.4497 50.9473 49.2916C51.0901 49.0876 51.338 48.9243 51.7668 48.8324C52.144 48.7516 52.4231 48.8067 52.6432 48.9321C52.8125 49.0591 52.9841 49.3156 53.1195 49.9508C53.2155 50.5367 53.1763 50.9785 53.003 51.4118C52.8629 51.762 52.6724 52.0769 52.4296 52.3588C52.089 52.1834 51.794 51.9601 51.5299 51.6978ZM66.2986 28.1277C65.9042 28.1729 65.5086 28.2183 65.0554 28.2728C64.9435 27.3902 64.8516 26.6627 64.7598 25.9363L64.7578 25.9197C64.6441 25.0201 64.5305 24.1203 64.3791 22.928C64.277 21.9802 63.7597 21.2816 62.9637 20.8133C62.1288 20.3222 61.0382 20.2685 59.8204 20.4257C58.5541 20.5891 57.5671 21.0084 56.903 21.6725C56.218 22.3575 55.9696 23.2134 56.1141 24.1287L56.1141 24.1289C56.6452 27.4859 57.034 29.9989 57.4229 32.5128C57.8119 35.0267 58.201 37.5415 58.7324 40.9008C58.8742 41.7988 59.3182 42.4974 60.0913 42.9806L60.104 42.9885L60.117 42.9959C60.8924 43.432 61.8868 43.5395 63.0305 43.3761C64.1539 43.2156 65.0875 42.879 65.7282 42.1891L65.737 42.1796L65.7453 42.1699C66.3186 41.501 66.5611 40.7162 66.4669 39.8213L66.4658 39.8108L66.4643 39.8003C66.1538 37.558 66.0007 36.3229 65.7464 34.2272C65.9444 34.2017 66.1293 34.1775 66.3066 34.1544C67.1325 34.0466 67.7925 33.9604 68.8471 33.855L68.8586 33.8538L68.8701 33.8523C69.7803 33.7281 70.5046 33.4707 71.1127 33.0029C71.8584 32.4293 72.0548 31.5101 71.9701 30.5362C71.8863 29.5718 71.5314 28.6802 70.6663 28.2676C69.9442 27.8874 69.1221 27.8173 68.2307 27.8983L68.2198 27.8993L68.209 27.9007C67.4536 27.9951 66.8778 28.0612 66.2992 28.1276L66.2986 28.1277Z" fill="#393939" stroke="#FBE56A" stroke-width="1.29517"/>
<path d="M83.1606 33.9327L83.6639 33.9071L83.7032 33.7106C84.711 33.6469 85.6941 33.592 86.6188 33.592H86.6299L86.6411 33.5916C87.5299 33.561 88.4175 33.5059 89.2982 33.4464C89.3052 33.6946 89.3082 33.9168 89.3095 34.1696C84.1737 34.2798 81.3947 34.4025 76.0547 34.8414L76.0547 34.8413L76.0463 34.8421C75.1691 34.9257 74.3838 35.1824 73.7959 35.6723L74.2104 36.1698L73.7959 35.6723C73.1074 36.246 72.9116 37.1508 72.9961 38.1232C73.0826 39.1173 73.4482 39.9278 74.2307 40.3749C74.906 40.7608 75.6917 40.8832 76.5812 40.7993C89.9764 39.7399 96.7364 39.7021 110.13 40.6478C111.015 40.7309 111.798 40.6094 112.471 40.2269C113.242 39.8074 113.591 38.9306 113.674 37.9714C113.762 36.9581 113.502 36.1134 112.837 35.5585L112.827 35.5504L112.817 35.5427C112.203 35.0703 111.427 34.8085 110.524 34.7644C105.195 34.3994 102.417 34.2795 97.2841 34.2369V34.2363V34.2318V34.2274V34.2229V34.2185V34.2141V34.2096V34.2052V34.2008V34.1964V34.1919V34.1875V34.1831V34.1787V34.1743V34.17V34.1656V34.1612V34.1568V34.1525V34.1481V34.1437V34.1394V34.135V34.1307V34.1263V34.122V34.1177V34.1133V34.109V34.1047V34.1004V34.0961V34.0918V34.0875V34.0832V34.0789V34.0746V34.0703V34.066V34.0617V34.0575V34.0532V34.0489V34.0447V34.0404V34.0362V34.0319V34.0277V34.0234V34.0192V34.0149V34.0107V34.0065V34.0022V33.998V33.9938V33.9896V33.9853V33.9811V33.9769V33.9727V33.9685V33.9643V33.9601V33.9559V33.9517V33.9475V33.9433V33.9391V33.935V33.9308V33.9266V33.9224V33.9183V33.9141V33.9099V33.9057V33.9016V33.8974V33.8933V33.8891V33.8849V33.8808V33.8766V33.8725V33.8683V33.8642V33.86V33.8559V33.8517V33.8476V33.8435V33.8393V33.8352V33.8311V33.8269V33.8228V33.8187V33.8145V33.8104V33.8063V33.8021V33.798V33.7939V33.7898V33.7857V33.7815V33.7774V33.7733V33.7692V33.7651V33.7609V33.7568V33.7527V33.7486V33.7445V33.7404V33.7362V33.7321V33.728V33.7239V33.7198V33.7157V33.7116V33.7074V33.7033V33.6992V33.6951V33.691V33.6869V33.6828V33.6786V33.6745V33.6704V33.6663V33.6622V33.6581V33.654V33.6498V33.6457V33.6416V33.6375V33.6334V33.6292V33.6251V33.621V33.6169V33.6128V33.6086V33.6045V33.6004V33.5963V33.5921V33.588V33.5839V33.5797V33.5756V33.5715V33.5673V33.5632V33.559V33.5549V33.5508V33.5466V33.5425V33.5383V33.5342V33.53V33.5259V33.5217V33.5176V33.5134V33.5092V33.5051V33.5009V33.4967V33.4926V33.4884V33.4842V33.4801V33.4759V33.4717V33.4675V33.4633V33.4591V33.4549V33.4507V33.4466V33.4424V33.4382V33.4339V33.4297V33.4255V33.4213V33.4171V33.4129V33.4087V33.4044V33.4002V33.396V33.3917V33.3875V33.3832V33.379V33.3748V33.3705V33.3662V33.362V33.3577V33.3535V33.3492V33.3449V33.3406V33.3364V33.3321V33.3278V33.3235V33.3192V33.3149V33.3106V33.3063V33.3019V33.2976V33.2933V33.289V33.2846V33.2803V33.276V33.2716V33.2673V33.2629V33.2586V33.2542V33.2498V33.2455V33.2411V33.2367V33.2323V33.2279V33.2235V33.2191V33.2147V33.2103V33.2059V33.2015V33.197V33.1926V33.1882V33.1837V33.1793V33.1748V33.1704V33.1659V33.1614V33.1569V33.1525V33.148V33.1435V33.139V33.1365C98.0195 33.0905 98.7549 33.0403 99.4908 32.99L99.5882 32.9834C100.561 32.9169 101.535 32.8507 102.517 32.7941L102.518 32.794C104.2 32.6951 105.995 32.5392 107.868 32.3766C108.163 32.351 108.46 32.3252 108.759 32.2995L108.765 32.2989C109.677 32.212 110.427 31.8954 110.946 31.272L110.957 31.2592L110.967 31.2459C111.366 30.7143 111.652 30.0683 111.702 29.3891C111.751 28.7898 111.599 28.2734 111.339 27.858L111.329 27.841L111.317 27.8248C111.064 27.4707 110.684 27.144 110.27 26.9141L110.258 26.9073L110.245 26.901C109.797 26.6771 109.354 26.5463 108.848 26.462L108.795 26.4532H108.741H108.739H108.736H108.733H108.731H108.728H108.725H108.723H108.72H108.717H108.715H108.712H108.709H108.707H108.704H108.701H108.699H108.696H108.693H108.691H108.688H108.685H108.683H108.68H108.677H108.675H108.672H108.669H108.667H108.664H108.661H108.659H108.656H108.653H108.65H108.648H108.645H108.642H108.64H108.637H108.634H108.632H108.629H108.626H108.624H108.621H108.618H108.616H108.613H108.61H108.608H108.605H108.602H108.6H108.597H108.594H108.592H108.589H108.586H108.584H108.581H108.578H108.576H108.573H108.57H108.568H108.565H108.562H108.56H108.557H108.554H108.552H108.549H108.546H108.544H108.541H108.538H108.536H108.533H108.53H108.528H108.525H108.522H108.52H108.517H108.514H108.512H108.509H108.506H108.504H108.501H108.498H108.496H108.493H108.49H108.488H108.485H108.482H108.48H108.477H108.474H108.472H108.469H108.466H108.464H108.461H108.458H108.456H108.453H108.45H108.448H108.445H108.442H108.44H108.437H108.434H108.432H108.429H108.426H108.424H108.421H108.418H108.416H108.413H108.41H108.408H108.405H108.402H108.4H108.397H108.394H108.392H108.389H108.386H108.384H108.381H108.378H108.376H108.373H108.37H108.368H108.365H108.362H108.36H108.357H108.354H108.352H108.349H108.346H108.344H108.341H108.338H108.336H108.333H108.33H108.328H108.325H108.322H108.32H108.317H108.314H108.312H108.309H108.306H108.304H108.301H108.298H108.296H108.293H108.29H108.288H108.285H108.282H108.28H108.277H108.274H108.272H108.269H108.266H108.264H108.261H108.258H108.256H108.253H108.25H108.248H108.245H108.242H108.24H108.237H108.234H108.232H108.229H108.226H108.224H108.221H108.218H108.216H108.213H108.21H108.208H108.205H108.202H108.2H108.197H108.194H108.192H108.189H108.186H108.184H108.181H108.178H108.176H108.173H108.17H108.168H108.165H108.162H108.16H108.157H108.154H108.152H108.149H108.146H108.144H108.141H108.138H108.136H108.133H108.13H108.128H108.125H108.122H108.12H108.117H108.114H108.112H108.109H108.106H108.104H108.101H108.098H108.096H108.093H108.09H108.088H108.085H108.082H108.08H108.077H108.074H108.072H108.069H108.066H108.064H108.061H108.058H108.056H108.053H108.05H108.048H108.045H108.042H108.04H108.037H108.034H108.032H108.029H108.026H108.023H108.021H108.018H108.015H108.013H108.01H108.007H108.005H108.002H107.999H107.997H107.994H107.991H107.989H107.986H107.983H107.981H107.978H107.975H107.973H107.97H107.967H107.965H107.962H107.959H107.957H107.954H107.951H107.949H107.946H107.943H107.941H107.938H107.935H107.933H107.93H107.927H107.925H107.922H107.919H107.917H107.914H107.911H107.909H107.906H107.903H107.901H107.898H107.895H107.893H107.89H107.887H107.885H107.882H107.879H107.877H107.874H107.871H107.869H107.866H107.863H107.861H107.858H107.855H107.853H107.85H107.847H107.845H107.842H107.839H107.837H107.834H107.831H107.829H107.826H107.823H107.821H107.818H107.815H107.813H107.81H107.807H107.805H107.802H107.799H107.797H107.794H107.791H107.789H107.786H107.783H107.781H107.778H107.775H107.773H107.77H107.767H107.765H107.762H107.759H107.757H107.754H107.751H107.749H107.746H107.743H107.741H107.738H107.735H107.733H107.73H107.727H107.725H107.722H107.719H107.717H107.714H107.711H107.709H107.706H107.703H107.701H107.698H107.695H107.693H107.69H107.687H107.685H107.682H107.679H107.677H107.674H107.671H107.669H107.666H107.663H107.661H107.658H107.655H107.653H107.65H107.647H107.645H107.642H107.639H107.637H107.634H107.631H107.629H107.626H107.623H107.621H107.618H107.615H107.613H107.61H107.607H107.605H107.602H107.599H107.597H107.594H107.591H107.589H107.586H107.583H107.581H107.578H107.575H107.573H107.57H107.567H107.565H107.562H107.559H107.557H107.554H107.551H107.549H107.546H107.543H107.541H107.538H107.535H107.533H107.53H107.527H107.525H107.522H107.519H107.517H107.514H107.511H107.509H107.506H107.503H107.501H107.498H107.495H107.493H107.49H107.487H107.485H107.482H107.479H107.477H107.474H107.471H107.469H107.466H107.463H107.461H107.458H107.455H107.453H107.45H107.447H107.445H107.442H107.439H107.437H107.434H107.431H107.429H107.426H107.423H107.421H107.418H107.415H107.413H107.41H107.407H107.405H107.402H107.399H107.396H107.394H107.391H107.388H107.386H107.383H107.38H107.378H107.375H107.352L107.329 26.4548C105.203 26.6067 103.189 26.7586 101.327 26.9107C101.175 26.923 101.024 26.9354 100.873 26.9478C99.1698 27.087 97.5058 27.2231 95.8742 27.3272L95.8742 27.3271L95.8606 27.3282C94.0864 27.4792 92.3125 27.5925 90.4628 27.668L90.4628 27.6678L90.4488 27.6687C88.6372 27.7819 86.6344 27.8575 84.5461 27.9335L84.5461 27.9334L84.5373 27.9339C84.1822 27.9516 83.9159 27.941 83.7224 27.9118C83.5231 27.8818 83.4455 27.8383 83.4282 27.826C83.3518 27.7714 83.282 27.675 83.282 27.4802V27.4508L83.2794 27.4216C83.252 27.1203 83.3039 26.7544 83.4468 26.2541C83.5491 25.8961 83.7445 25.5169 84.053 25.1171C93.5528 24.7138 98.3881 24.7561 107.947 25.2809L107.953 25.2812C108.841 25.3215 109.696 25.2082 110.375 24.8256C111.191 24.4083 111.542 23.5248 111.625 22.5654L111.626 22.5514L111.627 22.5374C111.669 21.5724 111.466 20.6947 110.683 20.1298C110.059 19.6535 109.241 19.4006 108.281 19.3581C95.8508 18.636 89.6 18.674 77.209 19.548C76.2459 19.5912 75.4263 19.8463 74.8022 20.3264C74.0737 20.8868 73.8194 21.7883 73.9068 22.7931L73.9068 22.7931L73.9076 22.8014C73.9925 23.6508 74.2609 24.3773 74.8629 24.8698L74.8771 24.8815L74.892 24.8924C75.1863 25.1064 75.5194 25.271 75.8993 25.3762C75.6309 25.9105 75.4321 26.4559 75.321 27.0117C75.1528 27.8524 75.1557 28.6794 75.2357 29.4799L75.2356 29.4799L75.2369 29.4911C75.415 31.0049 76.2321 32.1587 77.5985 32.97L77.6087 32.976L77.619 32.9817C79.0156 33.7434 80.8571 34.0498 83.1606 33.9327ZM107.187 55.4478L107.205 55.4488H107.223H107.281C108.012 55.4888 108.749 55.3607 109.411 54.9425C110.19 54.5163 110.59 53.7724 110.64 52.9088C110.684 52.3161 110.591 51.6212 110.338 50.905C110.139 50.3401 109.859 49.7228 109.477 49.096C109.929 48.5619 110.302 48.0047 110.573 47.4637L110.576 47.4568L110.579 47.4499C110.871 46.8299 111.167 46.1765 111.172 45.485C111.216 44.6098 110.905 43.8767 110.204 43.3257C109.567 42.8251 108.832 42.5505 108.018 42.5053L108.016 42.5052C107.168 42.4605 106.375 42.6815 105.825 43.3329C105.527 43.6604 105.163 44.0777 104.765 44.5678C103.196 43.6013 101.291 42.7762 99.0596 42.1136C96.5576 41.3709 93.6062 40.9855 90.2114 41.0624C87.7182 41.1009 85.5462 41.3309 83.7426 41.7616C81.9408 42.1539 80.4698 42.7463 79.3386 43.4331C78.2156 44.1149 77.3051 44.9565 76.8137 45.984C76.3482 46.9573 76.1365 48.0186 76.2208 49.1572L76.2217 49.1691L76.223 49.1809C76.3472 50.2985 76.6836 51.2802 77.3263 52.1799C77.9708 53.0822 78.8638 53.7958 80.0548 54.3297C81.2235 54.8536 82.6518 55.2468 84.3683 55.4808C86.083 55.7147 88.1299 55.7905 90.4605 55.7523C93.5667 55.7139 96.3143 55.4072 98.6931 54.7839C100.803 54.2648 102.647 53.6184 104.249 52.8405C104.557 53.34 104.842 53.7823 105.087 54.1644C105.112 54.2031 105.137 54.2412 105.161 54.2787C105.614 54.9831 106.295 55.3983 107.187 55.4478ZM90.2995 46.9489V46.949L90.3088 46.9489C92.9266 46.9115 95.0701 47.1366 96.7104 47.5376C97.7833 47.7998 98.7043 48.105 99.4883 48.4496C98.6841 48.7409 97.7493 48.9944 96.6827 49.2368C95.1335 49.5889 93.1136 49.7767 90.6392 49.8233L90.5953 49.7795L90.3126 49.7904C89.6635 49.8153 89.0459 49.8067 88.4366 49.7983C88.1379 49.7941 87.8411 49.79 87.5437 49.7899C86.6928 49.7524 85.985 49.6789 85.401 49.5415C84.7982 49.3996 84.373 49.2303 84.068 49.0474C83.8308 48.905 83.7753 48.7504 83.7753 48.654V48.6217L83.7721 48.5896C83.7628 48.4968 83.7929 48.3432 84.0513 48.1135C84.2857 47.9051 84.6672 47.7126 85.2668 47.5347C85.8875 47.3893 86.6557 47.2433 87.4977 47.1335C88.3876 47.0223 89.3082 46.9489 90.2995 46.9489Z" fill="#393939" stroke="#FBE56A" stroke-width="1.29517"/>
<path d="M158.562 42.3166C157.992 42.5064 157.309 42.4684 156.513 42.2408C155.334 41.8996 154.612 41.7106 153.6 41.4458C153.374 41.3865 153.133 41.3235 152.87 41.2542M158.562 42.3166L158.719 42.9449C158.727 42.9428 158.735 42.9407 158.743 42.9386M158.562 42.3166L158.766 42.931C158.759 42.9336 158.751 42.9361 158.743 42.9386M158.562 42.3166C159.169 42.1649 159.586 41.6336 159.814 40.7988C160.079 39.964 160.004 39.281 159.586 38.8256C159.169 38.3703 158.562 38.0288 157.765 37.8011L153.211 25.6963M158.743 42.9386C158.007 43.1768 157.187 43.1071 156.335 42.8634L156.332 42.8628C155.163 42.5242 154.449 42.3372 153.438 42.0727C153.403 42.0634 153.367 42.0541 153.331 42.0446M158.743 42.9386C159.656 42.6987 160.179 41.9105 160.435 40.9823C160.733 40.0372 160.698 39.0803 160.063 38.388C159.542 37.8193 158.816 37.4281 157.943 37.1784L157.934 37.176L157.926 37.1738C157.19 36.9853 156.634 36.8345 156.075 36.6828L156.074 36.6825C155.674 36.574 155.272 36.4649 154.803 36.3418C155.137 35.0745 155.398 34.0613 155.66 33.0493L155.66 33.0489C155.963 31.8736 156.266 30.7 156.682 29.1293C156.932 28.2264 156.715 27.3783 156.158 26.6359C155.577 25.8614 154.617 25.3514 153.363 25.0668M153.331 42.0446C153.384 41.8432 153.439 41.6354 153.496 41.4201L152.87 41.2542M153.331 42.0446C153.135 41.9934 152.928 41.9392 152.705 41.8804L152.87 41.2542M153.331 42.0446C152.996 43.3142 152.734 44.3282 152.472 45.3434L152.472 45.3438C152.169 46.5201 151.865 47.6981 151.447 49.2749M152.87 41.2542C152.452 42.8289 152.149 44.0052 151.845 45.1815C151.542 46.3578 151.238 47.5342 150.821 49.109M150.821 49.109L151.447 49.2738C151.447 49.2741 151.447 49.2745 151.447 49.2749M150.821 49.109C150.631 49.8299 150.213 50.3232 149.606 50.6268C148.961 50.9304 148.126 50.9683 147.102 50.7027C146.077 50.4371 145.318 50.0576 144.901 49.4884C144.484 48.9192 144.37 48.2742 144.522 47.5911C145.308 44.1547 145.932 41.4454 146.531 38.8449C147.347 35.3004 148.116 31.958 149.189 27.2521M150.821 49.109L151.447 49.2749M151.447 49.2749C151.209 50.1748 150.67 50.819 149.896 51.206L149.889 51.2095L149.882 51.2127C149.055 51.6019 148.054 51.6184 146.939 51.3295C145.874 51.0532 144.932 50.6253 144.379 49.8714C143.843 49.1401 143.7 48.3014 143.889 47.4506L143.89 47.4466C144.678 44.0083 145.301 41.2988 145.9 38.6985C146.716 35.1561 147.485 31.8164 148.556 27.1131M148.556 27.1131C148.556 27.115 148.556 27.1168 148.555 27.1187L149.189 27.2521M148.556 27.1131C148.557 27.1115 148.557 27.1099 148.558 27.1082L149.189 27.2521M148.556 27.1131C148.755 26.1797 149.318 25.5246 150.178 25.1425C151.04 24.7595 152.11 24.7448 153.363 25.0668M149.189 27.2521C149.341 26.5312 149.758 26.0379 150.441 25.7343C151.124 25.4307 152.035 25.3928 153.211 25.6963M153.211 25.6963L153.354 25.0647C153.357 25.0654 153.36 25.0661 153.363 25.0668M153.211 25.6963L153.373 25.0693C153.37 25.0685 153.367 25.0677 153.363 25.0668M138.687 53.8514C136.099 53.6639 133.515 53.3647 130.933 52.917L130.934 52.9105C128.957 52.5684 127.702 52.2033 127.058 51.817C126.774 51.6465 126.598 51.4461 126.499 51.2274C126.399 51.0075 126.356 50.7223 126.416 50.3496L126.416 50.3483C126.527 49.6467 126.666 49.1185 126.849 48.7535C127.06 48.3307 127.263 47.9943 127.491 47.6992C127.77 47.3784 128.007 47.0616 128.201 46.7912C128.465 46.4211 128.602 45.9802 128.685 45.6066L128.69 45.587L128.693 45.5672C128.843 44.6173 128.526 43.753 127.759 43.0815C127.053 42.4643 126.252 42.11 125.337 41.9791L125.337 41.9791L125.331 41.9783C124.649 41.8874 123.942 41.9799 123.295 42.1956C122.592 42.4297 121.953 42.893 121.461 43.5639C120.673 44.6277 120.039 45.7358 119.562 46.8882L119.562 46.8882L119.559 46.8953C119.076 48.102 118.797 49.3847 118.717 50.7772C118.635 52.0473 118.839 53.1607 119.364 54.1243C119.88 55.0698 120.608 55.7912 121.52 56.3717C122.42 56.9445 123.47 57.3858 124.661 57.7033C125.822 58.0129 127.094 58.2825 128.437 58.5127L128.439 58.5131C134.804 59.5802 140.942 60.1904 146.93 60.3811L146.94 60.3814H146.95C147.786 60.3814 148.545 60.2151 149.131 59.6817C149.646 59.214 149.971 58.6508 150.153 58.0144L150.156 58.004L150.159 57.9936C150.293 57.4544 150.308 56.9443 150.145 56.4554C149.998 56.0151 149.741 55.5911 149.312 55.2694C148.959 55.0051 148.567 54.7883 148.139 54.617C147.684 54.4349 147.191 54.3452 146.703 54.343C143.939 54.1916 141.294 54.0403 138.687 53.8514ZM118.317 37.3459L118.326 37.3448C118.603 38.4415 119.43 39.2024 120.321 39.6582C121.22 40.1188 122.275 40.3183 123.148 40.2287L123.155 40.228L123.162 40.2271C126.646 39.7917 129.736 38.6141 132.299 36.8821C133.066 37.8664 133.635 38.6144 134.555 39.8207C135.078 40.5312 135.953 41.0602 136.868 41.3298C137.788 41.601 138.853 41.6409 139.771 41.241C140.619 40.8739 141.422 40.1126 141.84 39.1807C142.27 38.2208 142.3 37.0471 141.515 35.9762L141.321 35.7116H141.277C140.967 35.3002 140.698 34.94 140.442 34.5981C139.841 33.7936 139.316 33.0906 138.513 32.0626C138.288 31.7497 138.008 31.4739 137.691 31.2386C138.407 30.0545 138.984 28.7863 139.408 27.4526C139.523 27.1061 139.6 26.8546 139.676 26.6086L139.676 26.6078C139.752 26.3618 139.826 26.1212 139.937 25.7873L139.937 25.7873L139.939 25.7818C140.256 24.8026 139.774 23.8578 139.098 23.1663C138.406 22.4579 137.394 21.876 136.282 21.5465L136.28 21.5459C135.069 21.1911 133.955 21.2211 133.072 21.521C132.206 21.8153 131.492 22.4024 131.263 23.2037L131.26 23.2141L131.257 23.2246C131.185 23.5149 131.121 23.7321 131.055 23.9592L131.055 23.9615C130.989 24.1866 130.92 24.4216 130.842 24.7323C130.078 27.4197 128.813 29.2264 127.222 30.4477C125.621 31.6772 123.642 32.3512 121.394 32.6828L121.394 32.6828L121.384 32.6843C120.427 32.8402 119.501 33.3331 118.889 34.1427C118.266 34.9675 118.009 36.0704 118.317 37.3459Z" fill="#393939" stroke="#FBE56A" stroke-width="1.29517"/>
</svg>
