<svg width="21" height="20" viewBox="0 0 21 20" fill="none" xmlns="http://www.w3.org/2000/svg">
<path d="M9.08748 2.04209C9.66082 1.55042 10.5998 1.55042 11.1814 2.04209L12.4942 3.17542C12.7435 3.39209 13.2088 3.56709 13.5412 3.56709H14.9538C15.8345 3.56709 16.5574 4.29209 16.5574 5.17542V6.59209C16.5574 6.91709 16.7319 7.39209 16.948 7.64209L18.078 8.95876C18.5683 9.53376 18.5683 10.4754 18.078 11.0588L16.948 12.3754C16.7319 12.6254 16.5574 13.0921 16.5574 13.4254V14.8421C16.5574 15.7254 15.8345 16.4504 14.9538 16.4504H13.5412C13.2171 16.4504 12.7435 16.6254 12.4942 16.8421L11.1814 17.9754C10.6081 18.4671 9.66913 18.4671 9.08748 17.9754L7.77463 16.8421C7.52536 16.6254 7.06004 16.4504 6.72768 16.4504H5.29019C4.40942 16.4504 3.68652 15.7254 3.68652 14.8421V13.4171C3.68652 13.0921 3.51202 12.6254 3.30429 12.3754L2.18256 11.0504C1.70062 10.4754 1.70062 9.54209 2.18256 8.96709L3.30429 7.64209C3.51202 7.39209 3.68652 6.92542 3.68652 6.60042V5.16709C3.68652 4.28376 4.40942 3.55876 5.29019 3.55876H6.72768C7.05173 3.55876 7.52536 3.38376 7.77463 3.16709L9.08748 2.04209Z" fill="#DDE1E6" stroke="#697077" stroke-width="1.5" stroke-linecap="round" stroke-linejoin="round"/>
<path d="M7.11829 10.0001L9.1208 12.0167L13.1341 7.9834" stroke="#697077" stroke-width="1.5" stroke-linecap="round" stroke-linejoin="round"/>
</svg>
