<svg width="97" height="96" viewBox="0 0 97 96" fill="none" xmlns="http://www.w3.org/2000/svg">
<mask id="mask0_1210_1339" style="mask-type:alpha" maskUnits="userSpaceOnUse" x="0" y="0" width="97" height="96">
<circle cx="48.4992" cy="47.5949" r="47.5949" fill="#DDE1E6"/>
</mask>
<g mask="url(#mask0_1210_1339)">
<circle cx="48.4992" cy="47.5949" r="47.5949" fill="#F2F4F8"/>
<path fill-rule="evenodd" clip-rule="evenodd" d="M48.4997 50.264C58.4244 50.264 66.4701 42.2184 66.4701 32.2936C66.4701 22.3689 58.4244 14.3232 48.4997 14.3232C38.5749 14.3232 30.5293 22.3689 30.5293 32.2936C30.5293 42.2184 38.5749 50.264 48.4997 50.264ZM48.4989 95.1898C65.8673 95.1898 79.9471 87.1442 79.9471 77.2194C79.9471 67.2947 65.8673 59.2491 48.4989 59.2491C31.1306 59.2491 17.0508 67.2947 17.0508 77.2194C17.0508 87.1442 31.1306 95.1898 48.4989 95.1898Z" fill="#DDE1E6"/>
</g>
</svg>
