<svg width="110" height="110" viewBox="0 0 110 110" fill="none" xmlns="http://www.w3.org/2000/svg">
<path d="M33.6334 22.099C33.1185 11.4173 47.0329 6.8878 52.9047 15.8257C55.2388 19.3788 60.2985 19.7747 63.1563 16.6274C70.3453 8.71011 83.3865 15.3459 81.2183 25.818C80.3563 29.9807 83.6542 33.838 87.9002 33.6335C98.5821 33.1183 103.112 47.033 94.1735 52.9047C90.6208 55.239 90.2255 60.2984 93.3728 63.1561C101.29 70.345 94.6541 83.386 84.1822 81.2181C80.0195 80.3561 76.1622 83.654 76.3667 87.9C76.8818 98.5819 62.9671 103.111 57.0954 94.1733C54.7612 90.6205 49.7018 90.2253 46.8441 93.3726C39.6551 101.29 26.614 94.654 28.7821 84.182C29.6441 80.0191 26.3455 76.162 22.0992 76.3668C11.4176 76.8817 6.88808 62.9673 15.826 57.0955C19.379 54.7614 19.7749 49.7016 16.6276 46.8439C8.71009 39.6549 15.346 26.6135 25.8182 28.7819C29.981 29.6438 33.8382 26.3452 33.6334 22.099Z" fill="#FBE044" stroke="#FFFAE0" stroke-width="4"/>
<path d="M52.3199 56.28H55.4099V63.48C55.4099 64.54 56.7299 65.04 57.4299 64.24L64.9999 55.64C65.6599 54.89 65.1299 53.72 64.1299 53.72H61.0399V46.52C61.0399 45.46 59.7199 44.96 59.0199 45.76L51.4499 54.36C50.7999 55.11 51.3299 56.28 52.3199 56.28Z" fill="#FBE044" stroke="#FFFAE0" stroke-width="1.5" stroke-miterlimit="10" stroke-linecap="round" stroke-linejoin="round"/>
<path d="M51.5 47H44.5" stroke="#FFFAE0" stroke-width="1.5" stroke-miterlimit="10" stroke-linecap="round" stroke-linejoin="round"/>
<path d="M50.5 63H44.5" stroke="#FFFAE0" stroke-width="1.5" stroke-miterlimit="10" stroke-linecap="round" stroke-linejoin="round"/>
<path d="M47.5 55H44.5" stroke="#FFFAE0" stroke-width="1.5" stroke-miterlimit="10" stroke-linecap="round" stroke-linejoin="round"/>
</svg>
