<svg width="133" height="133" viewBox="0 0 133 133" fill="none" xmlns="http://www.w3.org/2000/svg">
<mask id="mask0_1261_115" style="mask-type:alpha" maskUnits="userSpaceOnUse" x="0" y="0" width="133" height="133">
<path fill-rule="evenodd" clip-rule="evenodd" d="M66.8125 60.6621C78.9628 60.6621 88.8125 50.8124 88.8125 38.6621C88.8125 26.5118 78.9628 16.6621 66.8125 16.6621C54.6622 16.6621 44.8125 26.5118 44.8125 38.6621C44.8125 50.8124 54.6622 60.6621 66.8125 60.6621ZM66.8125 115.662C88.0755 115.662 105.312 105.812 105.312 93.6621C105.312 81.5118 88.0755 71.6621 66.8125 71.6621C45.5495 71.6621 28.3125 81.5118 28.3125 93.6621C28.3125 105.812 45.5495 115.662 66.8125 115.662Z" fill="#C1C7CD"/>
</mask>
<g mask="url(#mask0_1261_115)">
<circle cx="66.8125" cy="61.6436" r="53" fill="#F2F4F8"/>
</g>
</svg>
