<svg width="19" height="19" viewBox="0 0 19 19" fill="none" xmlns="http://www.w3.org/2000/svg">
<g clip-path="url(#clip0_1261_88)">
<path fill-rule="evenodd" clip-rule="evenodd" d="M3.03125 4.66309C3.03125 3.31689 4.12256 2.22559 5.46875 2.22559H9.96875C10.2794 2.22559 10.5312 1.97375 10.5312 1.66309C10.5312 1.35243 10.2794 1.10059 9.96875 1.10059H5.46875C3.50124 1.10059 1.90625 2.69557 1.90625 4.66309V13.6631C1.90625 15.6306 3.50124 17.2256 5.46875 17.2256H14.4688C16.4363 17.2256 18.0312 15.6306 18.0312 13.6631V9.16309C18.0312 8.85243 17.7794 8.60059 17.4688 8.60059C17.1581 8.60059 16.9062 8.85243 16.9062 9.16309V13.6631C16.9062 15.0093 15.8149 16.1006 14.4688 16.1006H5.46875C4.12256 16.1006 3.03125 15.0093 3.03125 13.6631V4.66309ZM13.283 2.1709C13.9601 1.49381 15.0579 1.49382 15.735 2.1709L16.9609 3.39687C17.638 4.07395 17.638 5.17172 16.9609 5.84881L15.8739 6.93579C15.7886 6.89354 15.6988 6.84785 15.6058 6.79884C14.9792 6.46898 14.2357 6.00601 13.6808 5.45111C13.1259 4.8962 12.6629 4.15267 12.333 3.52611C12.284 3.43301 12.2383 3.34322 12.1961 3.25788L13.283 2.1709ZM12.8853 6.2466C13.5419 6.90324 14.377 7.42004 15.0383 7.7714L10.7638 12.046C10.4985 12.3112 10.1544 12.4833 9.783 12.5364L7.20847 12.9041C6.63635 12.9859 6.14596 12.4955 6.22769 11.9234L6.59549 9.34883C6.64854 8.97746 6.82061 8.63332 7.08587 8.36806L11.3604 4.09348C11.7118 4.75484 12.2286 5.58995 12.8853 6.2466Z" fill="#C1C7CD"/>
</g>
<defs>
<clipPath id="clip0_1261_88">
<rect width="18" height="18" fill="white" transform="translate(0.96875 0.163086)"/>
</clipPath>
</defs>
</svg>
