<svg width="43" height="42" viewBox="0 0 43 42" fill="none" xmlns="http://www.w3.org/2000/svg">
<path d="M11.4453 5.0766C11.1622 0.95194 16.8183 -0.710392 19.2788 2.77433C20.8584 5.0115 24.2023 5.308 26.054 3.37509C28.9384 0.364289 34.3137 3.00478 33.4987 7.03206C32.9754 9.61755 35.1945 12.0537 37.995 11.9682C42.3573 11.8349 44.303 17.2315 40.6898 19.4422C38.3702 20.8614 38.1647 24.0102 40.2735 25.8221C43.5582 28.6445 40.9346 33.6359 36.6399 32.735C33.8827 32.1567 31.3729 34.1735 31.5547 36.8215C31.8378 40.9462 26.1817 42.6085 23.7212 39.1238C22.1416 36.8866 18.7977 36.5901 16.946 38.5231C14.0616 41.5339 8.68628 38.8934 9.50135 34.8661C10.0246 32.2806 7.80547 29.8444 5.00496 29.93C0.642735 30.0632 -1.30302 24.6667 2.31017 22.456C4.6298 21.0367 4.83528 17.8879 2.7265 16.076C-0.55824 13.2536 2.06539 8.26226 6.36012 9.16312C9.11731 9.74146 11.6271 7.7246 11.4453 5.0766Z" fill="#91D9F8"/>
</svg>
