<svg width="17" height="16" viewBox="0 0 17 16" fill="none" xmlns="http://www.w3.org/2000/svg">
<path d="M12.1093 1.33325H6.60264C6.33597 1.33325 6.08262 1.42659 5.87595 1.58659L4.41595 2.75326C3.82929 3.21992 3.82929 4.10658 4.41595 4.57324L5.87595 5.73991C6.08262 5.90658 6.34264 5.99325 6.60264 5.99325H12.1093C12.7559 5.99325 13.2759 5.47325 13.2759 4.82658V2.49325C13.2759 1.85325 12.7559 1.33325 12.1093 1.33325Z" stroke="#A2A9B0" stroke-linecap="round" stroke-linejoin="round"/>
<path d="M5.16349 8H10.6702C10.9368 8 11.1902 8.09334 11.3969 8.25334L12.8569 9.42C13.4435 9.88667 13.4435 10.7733 12.8569 11.24L11.3969 12.4067C11.1902 12.5733 10.9302 12.66 10.6702 12.66H5.16349C4.51683 12.66 3.99683 12.14 3.99683 11.4933V9.15999C3.99683 8.51999 4.51683 8 5.16349 8Z" stroke="#A2A9B0" stroke-linecap="round" stroke-linejoin="round"/>
<path d="M8.62964 8V6" stroke="#A2A9B0" stroke-linecap="round" stroke-linejoin="round"/>
<path d="M8.62964 14.6667V12.6667" stroke="#A2A9B0" stroke-linecap="round" stroke-linejoin="round"/>
<path d="M6.62964 14.6667H10.6296" stroke="#A2A9B0" stroke-linecap="round" stroke-linejoin="round"/>
</svg>
