<svg width="24" height="24" viewBox="0 0 24 24" fill="none" xmlns="http://www.w3.org/2000/svg">
<rect width="24" height="24" rx="6" fill="#FE9641"/>
<path d="M15.8599 10.98V15.86C15.8599 17.4133 14.5999 18.6667 13.0533 18.6667H8.13992C6.59325 18.6667 5.33325 17.4067 5.33325 15.86V10.98C5.33325 9.42667 6.59325 8.17334 8.13992 8.17334H13.0533C14.5999 8.17334 15.8599 9.43334 15.8599 10.98Z" stroke="white" stroke-width="1.2" stroke-linecap="round" stroke-linejoin="round"/>
<path d="M7.66675 6.66667V5.5" stroke="white" stroke-width="1.2" stroke-linecap="round" stroke-linejoin="round"/>
<path d="M10.3333 6.66667V5.5" stroke="white" stroke-width="1.2" stroke-linecap="round" stroke-linejoin="round"/>
<path d="M13 6.66667V5.5" stroke="white" stroke-width="1.2" stroke-linecap="round" stroke-linejoin="round"/>
<path d="M18.666 12.7735C18.666 14.3201 17.406 15.5801 15.8594 15.5801V9.9668C17.406 9.9668 18.666 11.2201 18.666 12.7735Z" stroke="white" stroke-width="1.2" stroke-linecap="round" stroke-linejoin="round"/>
<path d="M5.33325 12H15.6733" stroke="white" stroke-width="1.2" stroke-linecap="round" stroke-linejoin="round"/>
</svg>
