<svg width="49" height="49" viewBox="0 0 49 49" fill="none" xmlns="http://www.w3.org/2000/svg">
<circle opacity="0.1" cx="24.5" cy="24.5" r="24" fill="#3DDBD9"/>
<path d="M34.0338 24.1587L24.8414 14.9663L12.9731 26.8346L12.9074 26.9001C12.6372 27.1693 12.3467 27.4588 12.1406 27.8221C11.9346 28.1854 11.8355 28.5833 11.7432 28.9532L11.7207 29.0434L10.8735 32.4145C10.579 33.5856 10.3229 34.6046 10.2425 35.4153C10.1584 36.2641 10.226 37.2488 10.9886 38.0115C11.7513 38.7741 12.7361 38.8417 13.5849 38.7577C14.3956 38.6772 15.4145 38.421 16.5856 38.1267L19.9568 37.2795L20.0468 37.2569C20.4169 37.1647 20.8147 37.0656 21.1781 36.8595C21.5415 36.6534 21.8308 36.3629 22.1 36.0928L22.1655 36.027L34.0338 24.1587Z" fill="#08BDBA"/>
<path d="M36.2095 12.8527L36.1476 12.7908C35.6028 12.246 35.1481 11.7912 34.7493 11.4434C34.3342 11.0812 33.9098 10.7713 33.4065 10.5628C32.2386 10.079 30.9263 10.079 29.7582 10.5628C29.255 10.7713 28.8307 11.0812 28.4155 11.4434C28.0167 11.7912 27.5619 12.246 27.0171 12.7908L26.6799 13.128L35.8723 22.3204L36.2095 21.9832C36.7542 21.4384 37.2091 20.9837 37.5569 20.5848C37.919 20.1697 38.229 19.7454 38.4375 19.242C38.9213 18.0741 38.9213 16.7618 38.4375 15.5938C38.229 15.0905 37.919 14.6662 37.5569 14.251C37.2091 13.8522 36.7542 13.3974 36.2095 12.8527Z" fill="#393939"/>
</svg>
